<svg width="1440" height="600" viewBox="0 0 1440 600" fill="none" xmlns="http://www.w3.org/2000/svg">
<path d="M286.109 0C161.116 38.1433 49.5125 29.1052 0 4.79117V600C27.139 573.219 183.615 569.5 214.084 592.841C329.367 562.654 452.278 581.521 505.599 600C616.016 561.144 784.583 571.796 839.808 600C966.539 567.937 1112.13 577.631 1159.74 600C1278.11 566.427 1381.92 575.335 1440 592.841L1439.27 6.85672C1308.08 61.3402 1257.86 24.5589 1208.3 4.79117C1095.84 48.709 953.116 32.5092 899.795 4.79117C742.205 51.7277 609.385 31.5366 557.016 4.79117C418.166 51.7277 321.914 15.5429 286.109 0Z" fill="white"/>
</svg>
