<svg width="523" height="36" viewBox="0 0 523 36" fill="none" xmlns="http://www.w3.org/2000/svg">
<path d="M6.07031 19.3438C4.61198 19.3438 3.88281 18.7448 3.88281 17.5469C3.88281 16.349 4.61198 15.75 6.07031 15.75H36.9688C38.4271 15.75 39.1562 16.362 39.1562 17.5859C39.1562 18.7578 38.4271 19.3438 36.9688 19.3438H6.07031ZM71.5 35.7109C70.9531 35.7109 70.5495 35.5417 70.2891 35.2031C70.0286 34.8906 69.8984 34.3828 69.8984 33.6797V23.1719C69.8984 22.026 69.3125 21.4531 68.1406 21.4531H51.6953L51.8125 18.2109H69.7031C70.9792 18.2109 71.8906 18.4844 72.4375 19.0312C73.0104 19.5781 73.2578 20.4635 73.1797 21.6875V33.6797C73.1797 35.0339 72.6198 35.7109 71.5 35.7109ZM46.3438 34.8906C45.7448 34.8906 45.2891 34.7474 44.9766 34.4609C44.6901 34.1745 44.5469 33.7057 44.5469 33.0547C44.5469 32.6901 44.7682 32.2214 45.2109 31.6484C46.7214 29.6953 47.75 27.625 48.2969 25.4375C48.8958 23.0417 49.1953 19.513 49.1953 14.8516V10.2812C49.1953 8.58854 49.1823 7.32552 49.1562 6.49219C49.1302 5.65885 49.1172 4.39583 49.1172 2.70312C49.1172 1.50521 49.651 0.90625 50.7188 0.90625C51.8125 0.90625 52.3594 1.7526 52.3594 3.44531C52.3594 6.17969 52.3984 8.95312 52.4766 11.7656L52.5156 13.6797C52.5156 15.138 52.4375 17.5078 52.2812 20.7891C52.125 24.7214 51.3307 28.1068 49.8984 30.9453C48.5964 33.5755 47.4115 34.8906 46.3438 34.8906ZM51.8516 8.52344H64.0391V2.27344C64.0391 0.919271 64.599 0.242188 65.7188 0.242188C66.8125 0.242188 67.3594 0.919271 67.3594 2.27344V8.52344H76.9688C78.3229 8.52344 79 9.07031 79 10.1641C79 11.2057 78.3229 11.7266 76.9688 11.7266H51.8516V8.52344ZM98.6484 35.6719C97.763 35.6719 97.3203 35.2161 97.3203 34.3047C97.3203 33.5495 98.1276 33.0547 99.7422 32.8203L101.148 32.5469V29.8906C98.987 31.1667 97.5417 31.8047 96.8125 31.8047C96.0052 31.8047 95.6016 31.349 95.6016 30.4375C95.6016 29.8906 95.9531 29.5 96.6562 29.2656C99.4167 28.3802 102.112 26.8958 104.742 24.8125H108.336C109.43 26.5573 110.654 27.9245 112.008 28.9141L113.453 27.5078C114.078 26.9089 114.56 26.4792 114.898 26.2188C115.263 25.9323 115.549 25.7891 115.758 25.7891C116.747 25.7891 117.242 26.1927 117.242 27C117.242 27.5208 116.096 28.5625 113.805 30.125C114.716 30.6719 116.161 31.2969 118.141 32C118.948 32.2604 119.352 32.7422 119.352 33.4453C119.352 34.4609 118.831 34.9688 117.789 34.9688C117.19 34.9688 115.849 34.4089 113.766 33.2891C110.875 31.7526 108.479 29.3047 106.578 25.9453C105.797 26.7005 104.872 27.4427 103.805 28.1719V31.9219C105.758 31.5052 107.151 31.1406 107.984 30.8281L108.805 30.6719C109.169 30.5938 109.443 30.6849 109.625 30.9453C109.833 31.2057 109.938 31.5573 109.938 32C109.938 32.651 109.43 33.0938 108.414 33.3281L104.898 34.3047C103.258 34.7474 101.878 35.0859 100.758 35.3203C99.6641 35.5547 98.9609 35.6719 98.6484 35.6719ZM88.2188 34.2266C87.0469 34.2266 86.2005 33.9661 85.6797 33.4453C85.1589 32.9505 84.9505 32.1562 85.0547 31.0625V25.8281C85.0547 24.6823 85.3021 23.862 85.7969 23.3672C86.2917 22.8464 87.099 22.625 88.2188 22.7031H92.0859C93.2578 22.7031 94.1042 22.9505 94.625 23.4453C95.1458 23.9401 95.3672 24.7344 95.2891 25.8281V31.0625C95.2891 32.2083 95.0286 33.0417 94.5078 33.5625C94.013 34.0833 93.2057 34.3047 92.0859 34.2266H88.2188ZM91.6953 31.6484C92.3464 31.6484 92.6589 31.349 92.6328 30.75V26.1797C92.6328 25.8411 92.5547 25.6068 92.3984 25.4766C92.2682 25.3203 92.0339 25.2552 91.6953 25.2812H88.6094C88.2708 25.2812 88.0234 25.3464 87.8672 25.4766C87.737 25.6068 87.6849 25.8411 87.7109 26.1797V30.75C87.7109 31.0625 87.776 31.2969 87.9062 31.4531C88.0625 31.6094 88.2969 31.6745 88.6094 31.6484H91.6953ZM86.5391 20.3594C85.4193 20.3594 84.8594 19.8776 84.8594 18.9141C84.8594 17.9245 85.4193 17.4297 86.5391 17.4297H93.375C94.5469 17.4297 95.1328 17.9245 95.1328 18.9141C95.1328 19.3568 94.9766 19.7083 94.6641 19.9688C94.3776 20.2292 93.9479 20.3594 93.375 20.3594H86.5391ZM86.5391 15.1641C85.4193 15.1641 84.8594 14.6693 84.8594 13.6797C84.8594 12.7161 85.4193 12.2344 86.5391 12.2344H93.375C94.5469 12.2344 95.1328 12.7292 95.1328 13.7188C95.1328 14.1615 94.9766 14.513 94.6641 14.7734C94.3776 15.0339 93.9479 15.1641 93.375 15.1641H86.5391ZM85.2891 10.0469C84.1172 10.0469 83.5312 9.53906 83.5312 8.52344C83.5312 7.50781 84.1172 7 85.2891 7H94.5078C95.0807 7 95.5234 7.13021 95.8359 7.39062C96.1484 7.65104 96.3047 8.02865 96.3047 8.52344C96.3047 9.01823 96.1484 9.39583 95.8359 9.65625C95.5234 9.91667 95.0807 10.0469 94.5078 10.0469H85.2891ZM97.5547 25.4766C96.6693 25.4766 96.2266 25.0859 96.2266 24.3047C96.2266 23.5234 96.6693 23.1328 97.5547 23.1328H117.633C118.544 23.1328 119 23.5234 119 24.3047C119 25.0859 118.544 25.4766 117.633 25.4766H97.5547ZM101.812 12.6641H104.781V24.6953H101.812V12.6641ZM86.4609 4.77344C85.263 4.77344 84.6641 4.26562 84.6641 3.25C84.6641 2.23438 85.263 1.72656 86.4609 1.72656H93.6094C94.7812 1.72656 95.3672 2.23438 95.3672 3.25C95.3672 4.26562 94.7812 4.77344 93.6094 4.77344H86.4609ZM98.5312 21.3359C97.6979 21.3359 97.2812 20.9714 97.2812 20.2422C97.2812 19.487 97.6979 19.1094 98.5312 19.1094H116.227C117.06 19.1094 117.477 19.487 117.477 20.2422C117.477 20.9714 117.06 21.3359 116.227 21.3359H98.5312ZM97.6328 17.3906C96.7474 17.3906 96.3047 17 96.3047 16.2188C96.3047 15.4375 96.7474 15.0469 97.6328 15.0469H117.164C118.049 15.0469 118.492 15.4375 118.492 16.2188C118.492 17 118.049 17.3906 117.164 17.3906H97.6328ZM99.7422 13.4844C98.0755 13.4844 97.2422 12.7161 97.2422 11.1797V9.34375C97.2422 7.80729 98.0755 7.03906 99.7422 7.03906H104.43C106.096 7.03906 106.93 7.83333 106.93 9.42188V11.1797C106.93 12.0391 106.669 12.638 106.148 12.9766C105.628 13.3151 104.807 13.4844 103.688 13.4844H99.7422ZM103.688 11.5312C104.156 11.5312 104.417 11.2708 104.469 10.75V9.85156C104.469 9.33073 104.208 9.07031 103.688 9.07031H100.484C100.042 9.07031 99.7943 9.33073 99.7422 9.85156V10.75C99.7422 11.2708 99.9896 11.5312 100.484 11.5312H103.688ZM110.055 12.6641H113.023V24.6953H110.055V12.6641ZM111.109 13.4844C110.068 13.4844 109.286 13.3021 108.766 12.9375C108.271 12.5729 108.023 11.987 108.023 11.1797V9.34375C108.023 7.80729 108.857 7.03906 110.523 7.03906H115.719C117.359 7.03906 118.18 7.83333 118.18 9.42188V11.1797C118.18 12.7161 117.385 13.4844 115.797 13.4844H111.109ZM114.859 11.5312C115.38 11.5312 115.641 11.2578 115.641 10.7109V9.89062C115.641 9.36979 115.38 9.09635 114.859 9.07031H111.305C110.784 9.07031 110.523 9.33073 110.523 9.85156V10.75C110.523 11.2448 110.784 11.5052 111.305 11.5312H114.859ZM97.3594 5.67188C96.4219 5.67188 95.9531 5.25521 95.9531 4.42188C95.9531 3.5625 96.4219 3.13281 97.3594 3.13281H117.789C118.779 3.13281 119.273 3.5625 119.273 4.42188C119.273 5.25521 118.779 5.67188 117.789 5.67188H97.3594ZM105.797 1.72656C105.797 0.684896 106.331 0.164062 107.398 0.164062C108.492 0.164062 109.039 0.684896 109.039 1.72656V3.75781H105.797V1.72656ZM142.555 35.8672C141.305 35.8672 140.68 35.3464 140.68 34.3047C140.68 33.237 141.24 32.7031 142.359 32.7031H144.117C145.185 32.7031 145.719 32.1693 145.719 31.1016V9.22656H141.031C140.641 10.2943 140.172 11.3359 139.625 12.3516C139.104 13.3411 138.648 14.1354 138.258 14.7344C137.633 15.6719 137.047 16.1406 136.5 16.1406C135.458 16.1406 134.938 15.6198 134.938 14.5781C134.938 14.2917 135.159 13.7708 135.602 13.0156C137.659 9.5 139.221 5.84115 140.289 2.03906C140.628 0.815104 141.279 0.203125 142.242 0.203125C143.258 0.203125 143.766 0.658854 143.766 1.57031C143.766 1.85677 143.635 2.35156 143.375 3.05469C143.115 3.75781 142.672 4.83854 142.047 6.29688H156.695C157.555 6.29688 158.219 6.47917 158.688 6.84375C159.156 7.18229 159.391 7.63802 159.391 8.21094C159.391 8.39323 159.378 8.53646 159.352 8.64062C159.143 9.60417 158.622 10.9323 157.789 12.625C157.242 13.7969 156.773 14.6562 156.383 15.2031C155.992 15.724 155.589 15.9844 155.172 15.9844C154.807 15.9844 154.469 15.8542 154.156 15.5938C153.844 15.3333 153.688 15.0208 153.688 14.6562C153.688 14.4479 153.74 14.2526 153.844 14.0703C154.469 12.8464 155.068 11.5182 155.641 10.0859C155.693 9.92969 155.719 9.8125 155.719 9.73438C155.719 9.39583 155.51 9.22656 155.094 9.22656H148.922V31.7266C148.922 33.2109 148.57 34.2656 147.867 34.8906C147.19 35.5417 146.122 35.8672 144.664 35.8672H142.555ZM130.328 35.7891C129.26 35.7891 128.727 35.1771 128.727 33.9531V15.4766C127.867 17.0651 127.099 18.25 126.422 19.0312C125.771 19.8125 125.263 20.2031 124.898 20.2031C124.43 20.2031 124.078 20.099 123.844 19.8906C123.635 19.6823 123.531 19.2917 123.531 18.7188C123.531 18.3021 123.948 17.4167 124.781 16.0625C127.255 12.1042 129.404 7.45573 131.227 2.11719C131.669 0.841146 132.281 0.203125 133.062 0.203125C134.286 0.203125 134.898 0.697917 134.898 1.6875C134.898 2.02604 134.599 2.97656 134 4.53906C133.635 5.45052 132.919 6.96094 131.852 9.07031V33.9531C131.852 35.1771 131.344 35.7891 130.328 35.7891ZM136.461 30.75C136.018 30.75 135.68 30.6328 135.445 30.3984C135.237 30.1641 135.133 29.8516 135.133 29.4609C135.133 29.2005 135.185 28.9401 135.289 28.6797C135.419 28.4193 135.628 28.0417 135.914 27.5469C137.477 24.8906 138.674 21.974 139.508 18.7969C139.768 17.8073 140.289 17.3125 141.07 17.3125C142.008 17.3125 142.477 17.7552 142.477 18.6406C142.477 19.1615 142.32 19.9688 142.008 21.0625C141.695 22.1562 141.227 23.4453 140.602 24.9297C139.273 28.0026 138.349 29.7865 137.828 30.2812C137.49 30.5938 137.034 30.75 136.461 30.75ZM156.734 31.0625C156.318 31.0625 155.953 30.8802 155.641 30.5156C155.328 30.151 155.068 29.5911 154.859 28.8359C153.531 24.1224 152.646 21.2057 152.203 20.0859C151.969 19.4609 151.865 18.9531 151.891 18.5625C151.917 18.25 152.073 17.9896 152.359 17.7812C152.672 17.5729 153.01 17.4688 153.375 17.4688C153.948 17.4688 154.378 17.7292 154.664 18.25C154.82 18.6146 155.081 19.2656 155.445 20.2031C155.81 21.1146 156.201 22.1693 156.617 23.3672C157.32 25.3464 157.789 26.7656 158.023 27.625C158.284 28.4583 158.414 29.0703 158.414 29.4609C158.414 29.9557 158.258 30.3464 157.945 30.6328C157.659 30.9193 157.255 31.0625 156.734 31.0625ZM165.016 20.5547C164.104 20.5547 163.648 20.0078 163.648 18.9141C163.648 18.3932 163.857 17.8333 164.273 17.2344C166.878 13.3542 169.156 8.15885 171.109 1.64844C171.422 0.658854 171.956 0.164062 172.711 0.164062C173.883 0.164062 174.469 0.619792 174.469 1.53125C174.469 2.46875 173.414 5.1901 171.305 9.69531L169.156 14.3047C167.203 18.4714 165.823 20.5547 165.016 20.5547ZM170.211 35.8281C169.143 35.8281 168.609 35.1771 168.609 33.875V12L171.773 5.16406V33.875C171.773 35.1771 171.253 35.8281 170.211 35.8281ZM181.5 35.9844C180.276 35.9844 179.664 35.4375 179.664 34.3438C179.664 33.25 180.263 32.7031 181.461 32.7031H183.57C184.352 32.7031 184.755 32.2995 184.781 31.4922V24.4609H187.984V32.0391C187.984 33.3672 187.672 34.3438 187.047 34.9688C186.448 35.6198 185.51 35.9583 184.234 35.9844H181.5ZM178.492 25.5938C177.555 25.5938 177.086 25.138 177.086 24.2266C177.086 23.3672 177.555 22.9375 178.492 22.9375H193.492C194.404 22.9375 194.859 23.3672 194.859 24.2266C194.859 25.138 194.404 25.5938 193.492 25.5938H178.492ZM174.859 24.7344C173.87 24.7344 173.375 24.1875 173.375 23.0938V20.75C173.375 18.3542 174.521 17.2083 176.812 17.3125H195.289C196.409 17.3125 197.242 17.5729 197.789 18.0938C198.362 18.6146 198.661 19.4479 198.688 20.5938V23.0156C198.688 24.1615 198.167 24.7344 197.125 24.7344C196.109 24.7344 195.602 24.1615 195.602 23.0156V21.4141C195.602 20.5807 195.172 20.151 194.312 20.125H177.672C176.865 20.125 176.435 20.5547 176.383 21.4141V23.0938C176.383 24.1875 175.875 24.7344 174.859 24.7344ZM179 15.6719C177.984 15.6719 177.229 15.4505 176.734 15.0078C176.266 14.5651 176.031 13.875 176.031 12.9375V10.7891C176.031 8.78385 177.021 7.82031 179 7.89844H192.516C194.547 7.89844 195.562 8.8099 195.562 10.6328V12.9375C195.562 14.8385 194.547 15.75 192.516 15.6719H179ZM191.461 13.25C192.112 13.25 192.464 12.8984 192.516 12.1953V11.4141C192.516 10.737 192.164 10.3724 191.461 10.3203H180.133C179.326 10.3203 178.909 10.6849 178.883 11.4141V12.1953C178.883 12.8984 179.299 13.25 180.133 13.25H191.461ZM175.797 6.29688C174.677 6.29688 174.117 5.82812 174.117 4.89062C174.117 3.95312 174.677 3.48438 175.797 3.48438H197.32C198.44 3.48438 199 3.95312 199 4.89062C199 5.82812 198.44 6.29688 197.32 6.29688H175.797ZM184.195 1.84375C184.195 0.723958 184.755 0.164062 185.875 0.164062C187.021 0.164062 187.594 0.723958 187.594 1.84375V4.14844H184.195V1.84375ZM210.328 34.5391C209.026 34.5391 208.076 34.2526 207.477 33.6797C206.878 33.1068 206.617 32.1823 206.695 30.9062V22.2734C206.695 20.9714 206.982 20.0208 207.555 19.4219C208.154 18.8229 209.078 18.5625 210.328 18.6406H232.633C233.935 18.6406 234.885 18.9271 235.484 19.5C236.083 20.0729 236.344 20.9974 236.266 22.2734V30.9062C236.266 32.2344 235.979 33.1979 235.406 33.7969C234.833 34.3958 233.909 34.6432 232.633 34.5391H210.328ZM219.742 31.8047V27.8203H209.938V30.3594C209.938 31.2708 210.432 31.7526 211.422 31.8047H219.742ZM219.742 25.2422V21.375H211.422C210.484 21.375 209.99 21.8698 209.938 22.8594V25.2422H219.742ZM231.578 31.8047C232.542 31.8047 233.023 31.3229 233.023 30.3594V27.8203H222.828V31.8047H231.578ZM205.094 17.7422C204.13 17.7422 203.648 17.1823 203.648 16.0625C203.648 15.0729 204.521 14.4089 206.266 14.0703L205.914 4.92969C205.888 4.38281 206.018 3.91406 206.305 3.52344C206.591 3.13281 207.008 2.83333 207.555 2.625L214.039 1.17969L216.812 0.359375C217.229 0.229167 217.607 0.164062 217.945 0.164062C219.013 0.164062 219.547 0.710938 219.547 1.80469C219.547 2.29948 219.391 2.65104 219.078 2.85938C218.87 3.01562 217.555 3.39323 215.133 3.99219C211.773 4.61719 209.924 5.03385 209.586 5.24219C209.299 5.42448 209.13 5.86719 209.078 6.57031L209.312 13.3672L216.109 11.4922L214.508 9.03125C214.169 8.48438 214 8.09375 214 7.85938C214 7.02604 214.456 6.60938 215.367 6.60938C215.654 6.60938 216.031 6.85677 216.5 7.35156C216.969 7.84635 217.568 8.61458 218.297 9.65625C219.703 11.6875 220.406 13.0156 220.406 13.6406C220.406 14.6302 219.898 15.125 218.883 15.125C218.258 15.125 217.711 14.6562 217.242 13.7188L206.578 17.4688C206.109 17.651 205.615 17.7422 205.094 17.7422ZM233.023 25.2422V22.8594C233.023 21.9219 232.542 21.4271 231.578 21.375H222.828V25.2422H233.023ZM220.68 17.9375C219.69 17.9375 219.195 17.4167 219.195 16.375C219.195 15.6979 219.586 15.1771 220.367 14.8125C222.607 13.7448 224.169 12.1953 225.055 10.1641C225.497 9.1224 225.784 7.3125 225.914 4.73438H222.242C221.044 4.73438 220.445 4.23958 220.445 3.25C220.445 2.28646 221.044 1.80469 222.242 1.80469H234.977C237.216 1.80469 238.336 2.70312 238.336 4.5L238.102 7.85938C237.945 9.86458 237.737 11.5312 237.477 12.8594C237.242 14.1615 236.995 15.0469 236.734 15.5156C235.849 17 233.896 17.7422 230.875 17.7422C229.599 17.7422 228.961 17.1302 228.961 15.9062C228.961 14.8646 229.573 14.3307 230.797 14.3047C232.542 14.2526 233.596 13.9271 233.961 13.3281C234.404 12.625 234.755 10.4766 235.016 6.88281L235.094 5.82812C235.12 5.09896 234.69 4.73438 233.805 4.73438H229.078C228.844 10.5417 226.839 14.6432 223.062 17.0391C222.099 17.638 221.305 17.9375 220.68 17.9375ZM264.977 24.3047C264.195 24.3047 263.479 23.888 262.828 23.0547C261.24 21.0234 259.495 19.0182 257.594 17.0391C257.307 16.7526 257.099 16.5182 256.969 16.3359C256.839 16.1536 256.773 15.9193 256.773 15.6328C256.773 15.2161 256.93 14.8776 257.242 14.6172C257.581 14.3568 258.01 14.2396 258.531 14.2656C258.974 14.2917 259.547 14.6042 260.25 15.2031C260.979 15.776 262.021 16.7396 263.375 18.0938C264.521 19.3177 265.315 20.2682 265.758 20.9453C266.227 21.6224 266.461 22.2214 266.461 22.7422C266.461 23.263 266.318 23.6536 266.031 23.9141C265.745 24.1745 265.393 24.3047 264.977 24.3047ZM285.484 34.8516C284.938 34.8516 284.534 34.7083 284.273 34.4219C284.013 34.1354 283.883 33.6927 283.883 33.0938C283.883 32.7031 284.117 32.2083 284.586 31.6094C286.878 28.849 288.336 25.1901 288.961 20.6328L286.266 22.5078C285.823 22.7943 285.471 22.9375 285.211 22.9375C284.169 22.9375 283.648 22.3906 283.648 21.2969C283.648 20.776 283.935 20.3333 284.508 19.9688L289.117 17.5078C289.169 15.6849 289.195 14.3177 289.195 13.4062V11.9219V6.49219C289.195 4.53906 290.172 3.5625 292.125 3.5625H302.594V1.76562C302.594 0.645833 303.193 0.0859375 304.391 0.0859375C305.562 0.0859375 306.148 0.645833 306.148 1.76562V3.5625H317.516C318.583 3.5625 319.117 4.01823 319.117 4.92969C319.117 5.84115 318.583 6.29688 317.516 6.29688H293.297C292.646 6.29688 292.32 6.6224 292.32 7.27344V12C292.32 16.9219 291.969 21.1406 291.266 24.6562C290.667 27.651 289.404 30.5286 287.477 33.2891C286.747 34.3307 286.083 34.8516 285.484 34.8516ZM292.75 34.4219C292.307 34.4219 291.969 34.2917 291.734 34.0312C291.5 33.7708 291.383 33.4453 291.383 33.0547C291.383 32.7422 291.5 32.4557 291.734 32.1953C291.995 31.9349 292.333 31.7396 292.75 31.6094C294.521 31.0365 296.214 30.125 297.828 28.875C298.219 28.5625 298.596 28.4062 298.961 28.4062C299.378 28.4062 299.716 28.5755 299.977 28.9141C300.211 29.1745 300.328 29.474 300.328 29.8125C300.328 30.2292 300.133 30.6198 299.742 30.9844C298.987 31.6615 298.102 32.2734 297.086 32.8203C295.055 33.888 293.609 34.4219 292.75 34.4219ZM300.953 35.6719C300.432 35.6719 300.042 35.5547 299.781 35.3203C299.547 35.112 299.43 34.7734 299.43 34.3047C299.43 33.3672 299.938 32.8984 300.953 32.8984H302.828C303.635 32.8984 304.039 32.5078 304.039 31.7266V26.2969H307.086V32.7422C307.086 33.6797 306.812 34.3958 306.266 34.8906C305.745 35.4115 305.016 35.6719 304.078 35.6719H300.953ZM286.734 13.7969C286.656 13.8229 286.539 13.8359 286.383 13.8359C285.732 13.8359 285.315 13.4714 285.133 12.7422C284.69 11.2578 284.273 9.53906 283.883 7.58594C283.779 7.14323 283.857 6.76562 284.117 6.45312C284.404 6.14062 284.794 5.98438 285.289 5.98438C285.888 5.98438 286.318 6.32292 286.578 7C286.839 7.65104 287.086 8.4974 287.32 9.53906C287.581 10.5547 287.763 11.4271 287.867 12.1562C287.919 12.651 287.854 13.0286 287.672 13.2891C287.49 13.5234 287.177 13.6927 286.734 13.7969ZM310.602 24.9297C311.305 24.9297 311.656 24.5651 311.656 23.8359V22.7422H299.391V23.8359C299.391 24.5651 299.755 24.9297 300.484 24.9297H310.602ZM294.898 14.8906C294.456 14.5 294.234 14.1354 294.234 13.7969C294.234 13.0156 294.651 12.625 295.484 12.625C296.057 12.625 297.333 13.5365 299.312 15.3594L297.164 16.9609L294.898 14.8906ZM293.609 21.0625C293.245 21.0625 292.958 20.9583 292.75 20.75C292.542 20.5156 292.438 20.2161 292.438 19.8516C292.438 19.5651 292.529 19.3177 292.711 19.1094C292.919 18.875 293.245 18.6406 293.688 18.4062C296.812 16.6875 299.378 14.2266 301.383 11.0234L304.547 11.375C303.089 13.7448 301.331 15.8281 299.273 17.625C297.815 18.875 296.643 19.7604 295.758 20.2812C294.872 20.8021 294.156 21.0625 293.609 21.0625ZM316.969 34.3438C316.005 34.1094 314.872 33.6406 313.57 32.9375C312.268 32.2344 311.188 31.5312 310.328 30.8281C309.938 30.5156 309.742 30.151 309.742 29.7344C309.742 29.4219 309.872 29.1354 310.133 28.875C310.393 28.6146 310.667 28.4844 310.953 28.4844C311.292 28.4844 311.682 28.6276 312.125 28.9141C312.854 29.3828 313.753 29.8646 314.82 30.3594C315.914 30.8542 316.865 31.2318 317.672 31.4922C318.01 31.5964 318.258 31.7656 318.414 32C318.596 32.2604 318.688 32.5469 318.688 32.8594C318.688 33.3021 318.518 33.6797 318.18 33.9922C317.867 34.3307 317.464 34.4479 316.969 34.3438ZM299.391 27.4297C297.411 27.4297 296.422 26.4401 296.422 24.4609V17.5859C296.422 17.013 296.578 16.5833 296.891 16.2969C297.203 15.9844 297.646 15.8281 298.219 15.8281H312.789C313.362 15.8281 313.805 15.9844 314.117 16.2969C314.43 16.5833 314.586 17.013 314.586 17.5859V24.4609C314.586 26.4401 313.583 27.4297 311.578 27.4297H299.391ZM311.656 20.3203V19.1094C311.656 18.6406 311.396 18.3802 310.875 18.3281H300.211C299.664 18.3281 299.391 18.5885 299.391 19.1094V20.3203H311.656ZM294.703 12C293.661 12 293.141 11.5573 293.141 10.6719C293.141 9.73438 293.661 9.26562 294.703 9.26562H316.891C317.932 9.26562 318.453 9.73438 318.453 10.6719C318.453 11.5573 317.932 12 316.891 12H294.703ZM301.93 10.0469L302.828 7.82031C303.167 6.98698 303.701 6.57031 304.43 6.57031C304.924 6.57031 305.315 6.67448 305.602 6.88281C305.888 7.09115 306.031 7.39062 306.031 7.78125C306.031 8.04167 305.927 8.41927 305.719 8.91406C305.536 9.40885 305.289 9.91667 304.977 10.4375L301.93 10.0469ZM316.969 21.0625C314.885 20.0729 312.984 18.7057 311.266 16.9609C309.547 15.2161 308.271 13.3802 307.438 11.4531L309.586 10.9844C310.628 12.7292 311.852 14.1745 313.258 15.3203C314.664 16.4401 316.305 17.4427 318.18 18.3281C318.883 18.6667 319.234 19.1094 319.234 19.6562C319.234 19.8906 319.182 20.112 319.078 20.3203C318.792 20.9453 318.349 21.2578 317.75 21.2578C317.542 21.2578 317.281 21.1927 316.969 21.0625ZM312.32 15.7109L314.273 13.4844C314.742 12.9635 315.185 12.7031 315.602 12.7031C316.539 12.7552 317.008 13.1719 317.008 13.9531C317.008 14.6562 315.992 15.763 313.961 17.2734L312.32 15.7109ZM325.484 34.7734C324.938 34.7734 324.534 34.6302 324.273 34.3438C324.013 34.0573 323.883 33.6146 323.883 33.0156C323.883 32.5729 324.13 32.0521 324.625 31.4531C326.839 28.6927 328.284 25.0078 328.961 20.3984L328.492 20.75C326.799 22.026 325.706 22.6641 325.211 22.6641C324.169 22.6641 323.648 22.1172 323.648 21.0234C323.648 20.5026 323.935 20.0599 324.508 19.6953L328.922 17.3906L329.195 17.1953V6.88281C329.195 4.4349 330.419 3.21094 332.867 3.21094H341.734V1.76562C341.734 0.697917 342.333 0.164062 343.531 0.164062C344.703 0.164062 345.289 0.697917 345.289 1.76562V3.21094H357.516C358.583 3.21094 359.117 3.66667 359.117 4.57812C359.117 5.4375 358.583 5.86719 357.516 5.86719H333.375C332.542 5.86719 332.138 6.36198 332.164 7.35156V11.7266C332.164 16.4922 331.917 20.3203 331.422 23.2109C330.901 26.3359 330.003 29.0182 328.727 31.2578C327.398 33.6016 326.318 34.7734 325.484 34.7734ZM332.242 34.8125C331.279 34.8125 330.797 34.4219 330.797 33.6406L330.875 33.25L332.516 29.1094C332.802 28.3542 333.245 27.9766 333.844 27.9766C334.755 27.9766 335.211 28.4062 335.211 29.2656C335.211 29.9688 334.911 31.0755 334.312 32.5859C333.74 34.0703 333.049 34.8125 332.242 34.8125ZM345.875 34.9297C342.672 34.9297 340.549 34.8385 339.508 34.6562C338.414 34.474 337.867 33.849 337.867 32.7812V29.2656C337.867 28.3021 338.297 27.8203 339.156 27.8203C340.042 27.8203 340.484 28.2891 340.484 29.2266V31.5312C340.484 31.974 340.693 32.2604 341.109 32.3906C341.5 32.5208 342.359 32.5859 343.688 32.5859C346.839 32.5859 348.596 32.5208 348.961 32.3906C349.508 32.1562 349.794 31.7656 349.82 31.2188C349.924 29.8646 350.38 29.1875 351.188 29.1875C352.099 29.1875 352.555 29.6432 352.555 30.5547C352.555 32.6641 351.865 33.9922 350.484 34.5391C349.833 34.7995 348.297 34.9297 345.875 34.9297ZM326.539 14.1875C325.862 14.1875 325.367 13.4453 325.055 11.9609C324.716 10.3464 324.43 9.17448 324.195 8.44531L324.078 7.78125C324.026 7.39062 324.117 7.10417 324.352 6.92188C324.612 6.71354 324.977 6.60938 325.445 6.60938C325.992 6.60938 326.383 6.86979 326.617 7.39062C326.878 7.98958 327.281 9.51302 327.828 11.9609L327.984 12.7422C327.984 13.7057 327.503 14.1875 326.539 14.1875ZM346.227 31.1406C346.044 31.1406 345.797 31.0234 345.484 30.7891C345.198 30.5286 344.794 30.099 344.273 29.5C343.805 28.9531 343.57 28.5625 343.57 28.3281C343.57 27.5729 343.974 27.1953 344.781 27.1953C345.146 27.1953 345.706 27.5339 346.461 28.2109C347.164 28.8359 347.516 29.3958 347.516 29.8906C347.516 30.724 347.086 31.1406 346.227 31.1406ZM335.484 27.4297C334.625 27.4297 334.195 26.9349 334.195 25.9453V17.4688C334.195 16.6354 334.417 15.9974 334.859 15.5547C335.302 15.112 335.94 14.8906 336.773 14.8906H342.633C343.466 14.8906 344.104 15.112 344.547 15.5547C344.99 15.9714 345.211 16.6094 345.211 17.4688V24.4219C345.211 26.3229 344.26 27.2734 342.359 27.2734H341.07C340.185 27.2734 339.742 26.8828 339.742 26.1016C339.742 25.7109 339.859 25.4115 340.094 25.2031C340.328 24.9948 340.654 24.8906 341.07 24.8906H342.164C342.477 24.8906 342.646 24.7344 342.672 24.4219V23.6016H336.734V25.9453C336.734 26.9349 336.318 27.4297 335.484 27.4297ZM342.672 21.6484V20.2812H336.734V21.6484H342.672ZM342.672 18.2891V17.6641C342.672 17.1693 342.438 16.9219 341.969 16.9219H337.477C336.982 16.9219 336.734 17.1693 336.734 17.6641V18.2891H342.672ZM357.438 34.4219C356.891 34.4219 356.279 33.875 355.602 32.7812C354.924 31.6875 354.43 30.9193 354.117 30.4766C353.831 30.0599 353.688 29.7344 353.688 29.5C353.688 28.6927 354.13 28.2891 355.016 28.2891C355.536 28.2891 356.331 28.9792 357.398 30.3594C358.44 31.7135 358.961 32.625 358.961 33.0938C358.961 33.9792 358.453 34.4219 357.438 34.4219ZM348.805 24.4609C347.945 24.4609 347.516 23.9792 347.516 23.0156V16.6094C347.516 15.724 347.945 15.2812 348.805 15.2812C349.664 15.2812 350.094 15.724 350.094 16.6094V23.0156C350.094 23.9792 349.664 24.4609 348.805 24.4609ZM351.422 27.625C350.901 27.625 350.497 27.5078 350.211 27.2734C349.951 27.0391 349.82 26.7005 349.82 26.2578C349.82 25.8151 349.951 25.4766 350.211 25.2422C350.497 25.0078 350.888 24.8906 351.383 24.8906H352.398C352.685 24.8906 352.893 24.8255 353.023 24.6953C353.154 24.5391 353.232 24.3177 353.258 24.0312V16.375C353.258 15.3333 353.714 14.8125 354.625 14.8125C355.562 14.8125 356.031 15.3333 356.031 16.375V24.4219C356.031 25.5677 355.784 26.401 355.289 26.9219C354.794 27.4427 354 27.6771 352.906 27.625H351.422ZM349.234 11.3359C347.88 10.6328 346.344 9.65625 344.625 8.40625C343.401 9.36979 342.047 10.3464 340.562 11.3359L340.406 11.375L349.234 11.3359ZM333.414 14.8906C332.581 14.8906 332.164 14.3828 332.164 13.3672C332.164 12.638 332.802 12.0391 334.078 11.5703C337.958 10.0859 340.862 8.40625 342.789 6.53125L344.312 5.39844C345.016 5.55469 345.51 5.72396 345.797 5.90625C346.109 6.08854 346.266 6.3099 346.266 6.57031L346.227 6.76562C349.456 8.95312 353.31 10.5286 357.789 11.4922C358.883 11.7266 359.43 12.2214 359.43 12.9766C359.43 14.0443 358.922 14.5781 357.906 14.5781C356.526 14.5781 354.13 13.7448 350.719 12.0781C350.797 12.2344 350.836 12.3906 350.836 12.5469C350.836 13.3281 350.393 13.7188 349.508 13.7188H340.562C339.677 13.7188 339.234 13.3281 339.234 12.5469C339.234 12.3646 339.273 12.1953 339.352 12.0391C336.305 13.9401 334.326 14.8906 333.414 14.8906ZM382.555 35.8672C381.305 35.8672 380.68 35.3464 380.68 34.3047C380.68 33.237 381.24 32.7031 382.359 32.7031H384.117C385.185 32.7031 385.719 32.1693 385.719 31.1016V9.22656H381.031C380.641 10.2943 380.172 11.3359 379.625 12.3516C379.104 13.3411 378.648 14.1354 378.258 14.7344C377.633 15.6719 377.047 16.1406 376.5 16.1406C375.458 16.1406 374.938 15.6198 374.938 14.5781C374.938 14.2917 375.159 13.7708 375.602 13.0156C377.659 9.5 379.221 5.84115 380.289 2.03906C380.628 0.815104 381.279 0.203125 382.242 0.203125C383.258 0.203125 383.766 0.658854 383.766 1.57031C383.766 1.85677 383.635 2.35156 383.375 3.05469C383.115 3.75781 382.672 4.83854 382.047 6.29688H396.695C397.555 6.29688 398.219 6.47917 398.688 6.84375C399.156 7.18229 399.391 7.63802 399.391 8.21094C399.391 8.39323 399.378 8.53646 399.352 8.64062C399.143 9.60417 398.622 10.9323 397.789 12.625C397.242 13.7969 396.773 14.6562 396.383 15.2031C395.992 15.724 395.589 15.9844 395.172 15.9844C394.807 15.9844 394.469 15.8542 394.156 15.5938C393.844 15.3333 393.688 15.0208 393.688 14.6562C393.688 14.4479 393.74 14.2526 393.844 14.0703C394.469 12.8464 395.068 11.5182 395.641 10.0859C395.693 9.92969 395.719 9.8125 395.719 9.73438C395.719 9.39583 395.51 9.22656 395.094 9.22656H388.922V31.7266C388.922 33.2109 388.57 34.2656 387.867 34.8906C387.19 35.5417 386.122 35.8672 384.664 35.8672H382.555ZM370.328 35.7891C369.26 35.7891 368.727 35.1771 368.727 33.9531V15.4766C367.867 17.0651 367.099 18.25 366.422 19.0312C365.771 19.8125 365.263 20.2031 364.898 20.2031C364.43 20.2031 364.078 20.099 363.844 19.8906C363.635 19.6823 363.531 19.2917 363.531 18.7188C363.531 18.3021 363.948 17.4167 364.781 16.0625C367.255 12.1042 369.404 7.45573 371.227 2.11719C371.669 0.841146 372.281 0.203125 373.062 0.203125C374.286 0.203125 374.898 0.697917 374.898 1.6875C374.898 2.02604 374.599 2.97656 374 4.53906C373.635 5.45052 372.919 6.96094 371.852 9.07031V33.9531C371.852 35.1771 371.344 35.7891 370.328 35.7891ZM376.461 30.75C376.018 30.75 375.68 30.6328 375.445 30.3984C375.237 30.1641 375.133 29.8516 375.133 29.4609C375.133 29.2005 375.185 28.9401 375.289 28.6797C375.419 28.4193 375.628 28.0417 375.914 27.5469C377.477 24.8906 378.674 21.974 379.508 18.7969C379.768 17.8073 380.289 17.3125 381.07 17.3125C382.008 17.3125 382.477 17.7552 382.477 18.6406C382.477 19.1615 382.32 19.9688 382.008 21.0625C381.695 22.1562 381.227 23.4453 380.602 24.9297C379.273 28.0026 378.349 29.7865 377.828 30.2812C377.49 30.5938 377.034 30.75 376.461 30.75ZM396.734 31.0625C396.318 31.0625 395.953 30.8802 395.641 30.5156C395.328 30.151 395.068 29.5911 394.859 28.8359C393.531 24.1224 392.646 21.2057 392.203 20.0859C391.969 19.4609 391.865 18.9531 391.891 18.5625C391.917 18.25 392.073 17.9896 392.359 17.7812C392.672 17.5729 393.01 17.4688 393.375 17.4688C393.948 17.4688 394.378 17.7292 394.664 18.25C394.82 18.6146 395.081 19.2656 395.445 20.2031C395.81 21.1146 396.201 22.1693 396.617 23.3672C397.32 25.3464 397.789 26.7656 398.023 27.625C398.284 28.4583 398.414 29.0703 398.414 29.4609C398.414 29.9557 398.258 30.3464 397.945 30.6328C397.659 30.9193 397.255 31.0625 396.734 31.0625ZM428.688 35.5938C427.958 35.5677 427.438 35.4245 427.125 35.1641C426.812 34.9036 426.656 34.5 426.656 33.9531C426.656 32.8854 427.255 32.3516 428.453 32.3516C430.068 32.3516 431.201 32.3125 431.852 32.2344C432.503 32.1823 432.997 32.0391 433.336 31.8047C433.674 31.5703 433.948 31.1536 434.156 30.5547C434.521 29.487 434.807 26.8828 435.016 22.7422C435.224 18.6016 435.328 14.6693 435.328 10.9453C435.328 9.95573 434.755 9.46094 433.609 9.46094H424.898C424.456 10.8411 423.661 12.4297 422.516 14.2266C422.151 14.8255 421.695 15.125 421.148 15.125C420.888 15.125 420.615 15.0469 420.328 14.8906C419.807 14.6042 419.547 14.2005 419.547 13.6797C419.547 13.3411 419.651 12.9896 419.859 12.625C420.953 10.5677 421.76 8.83594 422.281 7.42969C422.932 5.71094 423.544 3.78385 424.117 1.64844C424.247 1.20573 424.443 0.867188 424.703 0.632812C424.99 0.372396 425.328 0.242188 425.719 0.242188C425.823 0.242188 426.005 0.268229 426.266 0.320312C427.047 0.502604 427.438 0.971354 427.438 1.72656C427.438 1.98698 427.398 2.27344 427.32 2.58594C427.138 3.34115 426.917 4.09635 426.656 4.85156C426.396 5.58073 426.148 6.15365 425.914 6.57031H435.289C437.581 6.57031 438.727 7.53385 438.727 9.46094C438.727 14.3568 438.596 19.0833 438.336 23.6406C438.076 28.1719 437.633 31.2057 437.008 32.7422C436.539 33.8359 435.823 34.5911 434.859 35.0078C433.896 35.4245 432.438 35.6328 430.484 35.6328C429.703 35.6328 429.104 35.6198 428.688 35.5938ZM414.234 32C415.094 32 415.523 31.5703 415.523 30.7109V21.6484H407.984V30.7109C407.984 31.5703 408.414 32 409.273 32H414.234ZM407.789 34.9688C406.799 34.9688 406.044 34.7083 405.523 34.1875C405.029 33.6927 404.781 32.9505 404.781 31.9609V9.73438C404.781 8.74479 405.029 7.98958 405.523 7.46875C406.018 6.94792 406.747 6.6875 407.711 6.6875H409.703C409.911 5.51562 410.159 3.86198 410.445 1.72656C410.497 1.25781 410.667 0.90625 410.953 0.671875C411.24 0.4375 411.617 0.320312 412.086 0.320312C413.388 0.320312 413.948 0.984375 413.766 2.3125C413.557 3.77083 413.219 5.22917 412.75 6.6875H415.719C417.698 6.6875 418.688 7.70312 418.688 9.73438L418.727 31.9609C418.727 33.9661 417.724 34.9688 415.719 34.9688H407.789ZM415.523 18.7578V10.9453C415.523 10.0859 415.094 9.65625 414.234 9.65625H409.273C408.414 9.65625 407.984 10.0859 407.984 10.9453V18.7578H415.523ZM428.414 25.3203C427.997 25.3203 427.633 25.1771 427.32 24.8906C427.008 24.5781 426.695 24.1224 426.383 23.5234C425.888 22.638 425.159 21.4531 424.195 19.9688L423.648 19.1094C423.518 18.9271 423.401 18.7057 423.297 18.4453C423.219 18.1849 423.18 17.9635 423.18 17.7812C423.18 17.3385 423.31 17 423.57 16.7656C423.831 16.5052 424.169 16.375 424.586 16.375C425.003 16.375 425.445 16.6094 425.914 17.0781C426.383 17.5469 426.982 18.3151 427.711 19.3828C429.221 21.6484 429.977 23.1458 429.977 23.875C429.977 24.3177 429.833 24.6693 429.547 24.9297C429.286 25.1901 428.909 25.3203 428.414 25.3203ZM467.516 34.8125C462.333 34.8125 459.208 34.7083 458.141 34.5C456.604 34.1875 455.81 33.3151 455.758 31.8828V21.7656C454.586 22.8333 453.701 23.3672 453.102 23.3672C452.06 23.3672 451.539 22.8333 451.539 21.7656C451.539 21.2188 451.917 20.7109 452.672 20.2422C455.042 18.7578 456.956 16.8177 458.414 14.4219H452.906C452.307 14.4219 451.865 14.3177 451.578 14.1094C451.318 13.875 451.188 13.5104 451.188 13.0156C451.188 12.0521 451.76 11.5703 452.906 11.5703H477.203C478.375 11.5703 478.961 12.0521 478.961 13.0156C478.961 13.9531 478.375 14.4219 477.203 14.4219H471.188C472.516 16.4271 474.885 18.3021 478.297 20.0469C479 20.3854 479.352 20.8542 479.352 21.4531C479.352 22.4948 478.857 23.0156 477.867 23.0156C476.643 23.0156 474.911 22.0391 472.672 20.0859V24.1875C472.672 25.2552 472.424 26.0365 471.93 26.5312C471.461 27 470.719 27.2083 469.703 27.1562H458.805V30.5938C458.805 31.401 459.625 31.8047 461.266 31.8047H465.914C470.055 31.8047 472.542 31.6615 473.375 31.375C474 31.1667 474.391 30.4375 474.547 29.1875C474.703 27.9115 475.276 27.2734 476.266 27.2734C477.385 27.2734 477.945 27.7552 477.945 28.7188C477.945 31.0365 477.464 32.638 476.5 33.5234C475.562 34.3828 472.568 34.8125 467.516 34.8125ZM446.031 35.0859C444.833 35.0859 444.234 34.474 444.234 33.25C444.234 33.0677 444.339 32.7031 444.547 32.1562C445.953 28.8229 447.164 25.2552 448.18 21.4531C448.362 20.75 448.87 20.3984 449.703 20.3984C450.641 20.3984 451.109 20.8672 451.109 21.8047C451.109 22.5599 450.536 24.7344 449.391 28.3281C449.026 29.4219 448.844 29.9688 448.844 29.9688C448.01 32.651 447.529 34.0964 447.398 34.3047C447.086 34.8255 446.63 35.0859 446.031 35.0859ZM449.195 15.7109C448.987 15.7109 448.18 15.4245 446.773 14.8516C445.081 14.1484 444.234 13.4453 444.234 12.7422C444.234 11.5964 444.82 11.0234 445.992 11.0234C446.279 11.0234 447.177 11.3099 448.688 11.8828C450.094 12.4297 450.797 13.1328 450.797 13.9922C450.797 15.138 450.263 15.7109 449.195 15.7109ZM468.492 24.4609C469.195 24.4609 469.573 24.0833 469.625 23.3281V21.6484C469.625 21.1016 469.352 20.8281 468.805 20.8281H459.938C459.573 20.8281 459.286 20.9323 459.078 21.1406C458.896 21.3229 458.805 21.5964 458.805 21.9609V24.4609H468.492ZM450.875 5.94531C450.51 5.94531 449.547 5.55469 447.984 4.77344C446.656 4.09635 445.992 3.44531 445.992 2.82031C445.992 1.70052 446.591 1.14062 447.789 1.14062C448.362 1.14062 449.286 1.47917 450.562 2.15625C451.865 2.83333 452.516 3.51042 452.516 4.1875C452.516 5.35938 451.969 5.94531 450.875 5.94531ZM470.641 18.1719C469.443 16.8438 468.557 15.5938 467.984 14.4219H461.656C460.927 15.9062 460.133 17.1562 459.273 18.1719H470.641ZM454.703 7.11719C453.531 7.11719 452.945 6.64844 452.945 5.71094C452.945 4.7474 453.531 4.26562 454.703 4.26562H459.039V7.11719H454.703ZM458.375 1.96094C458.375 0.736979 458.883 0.125 459.898 0.125C460.94 0.125 461.461 0.736979 461.461 1.96094V12.2344H458.375V1.96094ZM460.797 4.26562H468.766V7.11719H460.797V4.26562ZM468.102 1.92188C468.102 0.697917 468.609 0.0859375 469.625 0.0859375C470.667 0.0859375 471.188 0.697917 471.188 1.92188V12.2344H468.102V1.92188ZM470.523 4.26562H475.289C476.435 4.26562 477.008 4.7474 477.008 5.71094C477.008 6.64844 476.435 7.11719 475.289 7.11719H470.523V4.26562ZM510.562 35.75C509.417 35.75 508.844 35.2552 508.844 34.2656C508.844 33.276 509.456 32.7812 510.68 32.7812L513.023 32.8594C514.742 32.9375 515.602 32.2865 515.602 30.9062C515.602 30.6198 515.419 30.4766 515.055 30.4766H494.391C492.75 30.4766 491.93 29.8125 491.93 28.4844C491.93 27.9635 492.138 27.026 492.555 25.6719C492.919 24.5 493.727 23.9141 494.977 23.9141H513.922C514.156 23.9141 514.312 23.849 514.391 23.7188C514.495 23.5885 514.547 23.3542 514.547 23.0156C514.547 22.6771 514.495 22.4557 514.391 22.3516C514.312 22.2214 514.156 22.1432 513.922 22.1172H493.492C492.581 22.1172 492.125 21.7266 492.125 20.9453C492.125 20.1641 492.581 19.7734 493.492 19.7734H515.133C516.826 19.7734 517.672 20.5547 517.672 22.1172V23.9141C517.672 25.4505 516.826 26.2188 515.133 26.2188H495.914C495.367 26.2188 495.094 26.6875 495.094 27.625C495.094 27.9375 495.302 28.0938 495.719 28.0938H516.344C518.036 28.0938 518.883 28.7839 518.883 30.1641C518.883 32.2214 518.427 33.6667 517.516 34.5C516.604 35.3333 514.286 35.75 510.562 35.75ZM485.875 34.8516C484.703 34.8516 484.117 34.2656 484.117 33.0938C484.117 32.8854 484.221 32.5339 484.43 32.0391C485.784 28.862 486.904 25.5547 487.789 22.1172C488.076 21.1016 488.622 20.5938 489.43 20.5938C490.497 20.5938 491.031 21.1406 491.031 22.2344C491.031 22.8854 490.445 24.9688 489.273 28.4844C488.128 31.9479 487.451 33.8359 487.242 34.1484C486.93 34.6172 486.474 34.8516 485.875 34.8516ZM487.906 15.3594C487.49 15.3594 486.721 15.0339 485.602 14.3828C484.482 13.7318 483.922 13.1328 483.922 12.5859C483.922 11.4922 484.482 10.9453 485.602 10.9453C485.862 10.9453 486.279 11.0885 486.852 11.375L487.672 11.6875C488.896 12.1302 489.508 12.8073 489.508 13.7188C489.508 14.8125 488.974 15.3594 487.906 15.3594ZM491.344 18.4844C490.589 18.4844 490.211 18.1458 490.211 17.4688L490.289 16.8047L490.953 14.2266C491.083 13.7318 491.227 13.3672 491.383 13.1328C491.565 12.8984 491.812 12.7812 492.125 12.7812C492.828 12.7812 493.18 13.1068 493.18 13.7578C493.18 14.513 492.958 15.737 492.516 17.4297C492.333 18.1328 491.943 18.4844 491.344 18.4844ZM499.039 17.9375C498.466 17.9375 498.049 17.4036 497.789 16.3359L497.438 14.9297L497.281 14.1094L497.164 13.6016C497.086 13.3151 497.151 13.0938 497.359 12.9375C497.594 12.7812 497.906 12.7031 498.297 12.7031C498.766 12.7031 499.195 13.2891 499.586 14.4609L500.172 16.8047C500.172 17.5599 499.794 17.9375 499.039 17.9375ZM488.531 5.32031C488.089 5.32031 487.359 5.02083 486.344 4.42188C485.198 3.74479 484.625 3.14583 484.625 2.625C484.625 1.53125 485.198 0.984375 486.344 0.984375C486.474 0.984375 486.839 1.10156 487.438 1.33594C488.271 1.64844 488.922 2.01302 489.391 2.42969C489.859 2.82031 490.094 3.23698 490.094 3.67969C490.094 4.77344 489.573 5.32031 488.531 5.32031ZM495.367 19.2266C494.586 19.2266 494.195 18.8099 494.195 17.9766V11.7266L490.953 12.0391C490.562 12.0651 490.263 11.974 490.055 11.7656C489.872 11.5573 489.781 11.2578 489.781 10.8672C489.781 10.112 490.576 9.73438 492.164 9.73438L493.336 8.17188L491.461 6.64844C490.966 6.25781 490.615 5.97135 490.406 5.78906C490.224 5.58073 490.133 5.39844 490.133 5.24219C490.133 4.4349 490.484 4.03125 491.188 4.03125C491.344 4.03125 491.591 4.1224 491.93 4.30469C492.372 3.60156 492.945 2.5599 493.648 1.17969C493.961 0.580729 494.312 0.28125 494.703 0.28125C495.51 0.28125 495.914 0.632812 495.914 1.33594C495.914 1.90885 495.107 3.26302 493.492 5.39844L494.664 6.41406L496.5 3.64062C497.021 2.88542 497.477 2.50781 497.867 2.50781C498.648 2.50781 499.039 2.88542 499.039 3.64062C499.039 4.44792 497.594 6.42708 494.703 9.57812L497.281 9.42188C496.995 8.92708 496.852 8.54948 496.852 8.28906C496.852 7.74219 497.203 7.46875 497.906 7.46875C498.271 7.46875 498.753 7.98958 499.352 9.03125C500.029 10.2552 500.367 10.9974 500.367 11.2578C500.367 11.5964 500.263 11.8568 500.055 12.0391C499.872 12.2214 499.599 12.3125 499.234 12.3125C498.74 12.3125 498.323 11.9479 497.984 11.2188L496.461 11.4141V17.9766C496.461 18.8099 496.096 19.2266 495.367 19.2266ZM502.711 18.7578C501.279 18.7578 500.536 18.1328 500.484 16.8828V14.8906C500.484 14.2656 500.667 13.7969 501.031 13.4844C501.396 13.1719 501.93 13.0156 502.633 13.0156H506.109C506.786 13.0156 507.307 13.1849 507.672 13.5234C508.062 13.8359 508.271 14.2917 508.297 14.8906V16.8828C508.297 17.4818 508.102 17.9505 507.711 18.2891C507.32 18.6016 506.786 18.7578 506.109 18.7578H502.711ZM505.523 16.8438C505.914 16.8438 506.135 16.7005 506.188 16.4141V15.3594C506.188 15.0729 505.966 14.9297 505.523 14.9297H503.258C502.867 14.9297 502.672 15.0729 502.672 15.3594V16.4141C502.672 16.7005 502.867 16.8438 503.258 16.8438H505.523ZM501.656 11.9219C500.901 11.9219 500.523 11.6094 500.523 10.9844C500.523 10.3594 500.862 10.0469 501.539 10.0469H507.164C507.867 10.0469 508.219 10.3594 508.219 10.9844C508.219 11.6094 507.906 11.9219 507.281 11.9219H501.656ZM509.977 18.4844C509.221 18.4844 508.844 18.1328 508.844 17.4297L509.586 14.2266C509.794 13.263 510.172 12.7812 510.719 12.7812C511.448 12.7812 511.812 13.1068 511.812 13.7578C511.812 14.6432 511.591 15.8672 511.148 17.4297C510.966 18.1328 510.576 18.4844 509.977 18.4844ZM501.656 8.91406C500.901 8.91406 500.523 8.58854 500.523 7.9375C500.523 7.3125 500.862 7 501.539 7H507.164C507.867 7 508.219 7.3125 508.219 7.9375C508.219 8.58854 507.906 8.91406 507.281 8.91406H501.656ZM500.641 5.86719C499.938 5.86719 499.586 5.55469 499.586 4.92969C499.586 4.27865 499.938 3.95312 500.641 3.95312H507.711C508.44 3.95312 508.805 4.27865 508.805 4.92969C508.805 5.55469 508.44 5.86719 507.711 5.86719H500.641ZM518.102 17.9375C517.503 17.9375 517.073 17.3516 516.812 16.1797L516.266 13.6016C516.214 13.3151 516.292 13.0938 516.5 12.9375C516.708 12.7812 517.008 12.7031 517.398 12.7031C517.867 12.7031 518.297 13.2891 518.688 14.4609L519.273 16.8047C519.273 17.5599 518.883 17.9375 518.102 17.9375ZM501.656 2.74219C500.901 2.74219 500.523 2.41667 500.523 1.76562C500.523 1.47917 500.615 1.25781 500.797 1.10156C500.979 0.919271 501.24 0.828125 501.578 0.828125H507.125C507.854 0.828125 508.219 1.15365 508.219 1.80469C508.219 2.42969 507.893 2.74219 507.242 2.74219H501.656ZM514.156 19.2266C513.401 19.2266 513.023 18.8099 513.023 17.9766V11.7266L509.703 12.0391C509.312 12.0651 509.013 11.974 508.805 11.7656C508.622 11.5573 508.531 11.2578 508.531 10.8672C508.531 10.112 509.339 9.73438 510.953 9.73438L512.164 8.21094L510.016 6.49219C509.573 6.15365 509.26 5.89323 509.078 5.71094C508.896 5.5026 508.805 5.32031 508.805 5.16406C508.805 4.38281 509.156 3.99219 509.859 3.99219C510.12 3.99219 510.354 4.07031 510.562 4.22656L512.32 0.945312C512.581 0.502604 512.906 0.28125 513.297 0.28125C514.104 0.28125 514.508 0.632812 514.508 1.33594C514.508 1.77865 513.727 3.10677 512.164 5.32031L513.453 6.45312L515.328 3.64062C515.589 3.25 515.823 2.96354 516.031 2.78125C516.24 2.59896 516.461 2.50781 516.695 2.50781C517.477 2.50781 517.867 2.88542 517.867 3.64062C517.867 4.5 516.435 6.47917 513.57 9.57812L516.422 9.38281C516.161 8.8099 516.031 8.44531 516.031 8.28906C516.031 7.74219 516.37 7.46875 517.047 7.46875C517.542 7.46875 518.062 8.05469 518.609 9.22656C518.688 9.38281 518.844 9.73438 519.078 10.2812C519.339 10.8021 519.469 11.1276 519.469 11.2578C519.469 11.5964 519.365 11.8568 519.156 12.0391C518.974 12.2214 518.714 12.3125 518.375 12.3125C517.906 12.3125 517.49 11.9219 517.125 11.1406L515.289 11.4141V17.9766C515.289 18.8099 514.911 19.2266 514.156 19.2266Z" fill="white"/>
</svg>
