<svg width="251" height="118" viewBox="0 0 251 118" fill="none" xmlns="http://www.w3.org/2000/svg">
<path d="M223.926 37.4309C223.561 37.0427 220.277 35.0637 220.883 35.064C182.235 35.0638 162.853 30.4107 123.613 32.5314C63.0191 35.7978 21.0333 10.9218 17.5 69.4551C19.2956 92.7738 64.8553 116.339 123.603 112.608C184.156 108.755 230.122 93.2566 233.5 70.2882C233.5 56.8395 232.032 49.9849 228.491 43.1114C227.365 41.4736 226.838 39.8357 225.448 38.3776L223.926 37.4309Z" fill="#1684C8"/>
<path d="M232.498 60.785C232.498 85.595 183.858 101.615 124.168 105.705C66.2478 109.665 17.4278 84.615 19.5678 59.905C22.7278 23.575 64.4378 24.185 124.168 20.715C177.228 17.635 232.498 23.355 232.498 60.785Z" fill="white"/>
<path fill-rule="evenodd" clip-rule="evenodd" d="M69.8297 23.71C64.7897 23.3 61.6797 24.74 58.3397 24.18C58.7397 24.55 56.6897 25.38 54.5997 26.13C52.5097 26.92 50.3797 27.64 50.4897 27.63C50.1397 27.7 50.4697 26.9 49.5697 27.13C49.6397 27.11 49.3897 27.89 48.9097 28.05C47.8897 28.4 48.0197 27.51 47.1697 27.77C47.1697 27.77 47.1297 27.95 47.0297 28.17C46.9297 28.38 46.7797 28.62 46.5397 28.72C45.5397 29.14 43.3797 29.14 42.6297 30.03C42.3997 29.51 42.3897 28.79 40.7597 29.57C40.8797 30.06 41.3597 30.19 41.8597 30.32C40.7397 29.89 39.7997 30.45 38.9397 31.04C38.0597 31.61 37.3197 32.35 36.4397 32.36C37.6897 31.84 38.2797 30.87 36.9097 31.31C34.6697 33.18 33.1297 32.91 33.6897 34.34C32.8197 34.71 32.1197 35.12 31.4697 35.48C30.8297 35.85 30.2397 36.16 29.7597 36.57C29.2597 36.97 28.8097 37.38 28.3697 37.85C27.9297 38.32 27.5697 38.92 27.1797 39.59L26.2197 38.51C26.0397 38.85 25.8097 39.21 25.5197 39.58C25.2597 39.98 24.9697 40.4 24.6397 40.84C24.3197 41.28 23.9397 41.71 23.6097 42.18L22.6197 43.61C21.9097 44.53 21.4197 45.53 20.9597 46.33C20.4897 47.13 20.2797 47.84 20.2397 48.24C20.7797 47.87 20.4997 49.03 19.9697 50.29C19.5397 51.57 18.8097 52.99 18.1897 53.07C18.3797 54.32 18.2797 55.52 18.1297 56.73C18.0797 57.34 17.9997 57.94 17.8997 58.55C17.8197 59.17 17.6597 59.74 17.6297 60.43C17.2497 63.06 17.6797 65.89 19.2497 67.97C18.9197 69.24 19.6497 71.91 21.1197 74.03C22.4997 76.21 24.3997 77.87 25.3797 78.21C25.4697 79.2 25.9697 80.13 26.6997 81.06C27.4097 82.02 28.4297 82.87 29.5197 83.78C31.7597 85.53 34.4297 87.24 36.8097 89.28C38.2797 90.58 38.6997 90.85 39.1797 91.03C39.6597 91.21 40.1997 91.32 41.9797 92.12C48.0697 94.77 53.5397 99.63 51.0497 96.36C53.9397 98.24 57.2797 99.32 60.6397 100.25C64.0197 101.13 67.4197 101.88 70.6597 102.98C70.7797 103.02 69.6797 103.45 69.6097 103.45C73.5497 104.69 75.6897 103.71 79.5797 104.77C80.9697 105.13 81.0697 105.92 82.6297 106.13C84.6397 106.35 85.9497 105.63 86.9597 105.79L86.7897 106.49C89.6497 107.04 93.1097 107.25 96.4797 107.4C99.8497 107.55 103.14 107.68 105.73 108.16C107.3 107.96 109.11 107.87 109.96 107.26C110.5 107.55 114.48 108.18 114.89 107.34C114.43 107.34 113.98 107.05 114.92 106.98C120.59 108.11 126.87 107.08 133.74 105.8C132.85 105.78 131.78 105.35 132.92 105.14C139.04 106.61 147.31 103.29 156.44 102.34C161.65 101.77 166.31 101.41 169.3 99.9C169.58 100.84 174.46 99.83 176.6 99.19C176.67 99.17 176.83 98.48 177.3 98.3C180.31 97.18 183.24 97.43 186.1 96.57C187.72 96.06 188.43 95.23 189.9 94.79C194.09 93.61 199.05 93.33 202.19 90.35C205.18 90.07 206.01 89.45 207.35 87.85C207.48 88.66 208.36 88.67 209.95 87.84C210.02 87.13 208.52 87.49 209.56 86.83C212.2 86.4 216.57 83.6 222.27 79.62C222.25 79.27 221.88 79.01 222.48 78.51C224.8 76.95 226.64 75.37 227.93 73.8C228.51 72.96 229.03 72.19 229.25 71.34C229.46 70.49 229.56 69.69 229.32 68.85C230.26 68.13 231.27 68.06 232.22 67.67C232.39 67.02 232.49 66.44 232.55 65.92C232.63 65.4 232.55 64.88 232.54 64.39C232.54 63.4 232.37 62.38 232.47 60.93C231.77 60.93 231.29 61.37 230.94 62.05C230.75 62.39 230.66 62.8 230.48 63.24C230.3 63.69 230.15 64.18 230 64.71C229.32 66.81 228.09 69.44 226.17 71.14C226.07 71.56 226.28 71.82 226.35 72.17C226.43 72.52 226.34 72.94 225.55 73.61C224.92 73.39 225.63 72.13 224.79 72.85C225.01 73.41 224.68 73.66 224.22 73.9C223.75 74.14 223.1 74.36 222.72 74.97C224.4 76.38 220.97 76.92 219.42 78.17C218.7 79.18 219.52 80.03 217.58 81.19C217.39 80.76 218.19 80.21 217.71 79.82C212.99 83.24 208.97 85.23 205.27 86.82C201.56 88.39 198.09 89.52 193.92 90.58C194.68 91.35 192.51 91.78 191.87 92.35C190.62 91.85 189.55 92.4 188.52 92.94C187.49 93.46 186.5 93.96 185.51 93.39C185.39 93.71 185.62 94.09 184.87 94.3C179.98 94.77 176.49 95.73 173.88 97.19C173.05 96.96 169.16 96.87 168.27 97.9C169.22 97.78 170.52 97.43 170.7 97.82C166.44 98.36 165.55 98.52 160.28 99.23C160.12 99.54 160.32 99.94 159.53 100.07C152.43 100.36 145.27 101.69 137.67 102.91C130.07 104.09 122.02 105.35 113.46 104.83C111.6 104.67 112.47 105.85 110.93 105.85C109.76 104.26 101.98 105.58 98.0497 104.36C98.0697 105.15 97.1997 105.42 95.4397 105.15C85.9697 103.08 78.7897 102.62 73.0497 101.02C73.3097 101.27 70.9897 100.87 68.2197 100.06C65.4397 99.28 62.2397 98.08 60.6497 97.17C60.3597 97.51 60.3597 98.15 59.4397 97.87C58.3597 97.1 57.1997 96.53 55.8497 95.99C54.4897 95.48 52.8997 95.1 50.9697 94.74C50.9197 94.58 52.0597 94.45 52.0597 94.45C50.4397 93.52 47.6397 92.25 44.9297 90.92C44.2497 90.59 43.5697 90.27 42.9097 89.96C42.2597 89.63 41.6297 89.31 41.0497 89.02L38.1297 87.57C37.9797 86.79 37.4397 86.17 36.7497 85.59C36.0597 85 35.1797 84.47 34.2797 83.97C33.4097 83.42 32.5197 82.88 31.7897 82.32C31.0797 81.74 30.5597 81.11 30.3897 80.47C29.9997 80.42 29.5797 80.29 29.1597 80.06C28.7497 79.82 28.3297 79.5 27.8897 79.12C26.9997 78.38 26.1997 77.29 25.4097 76.15C23.8797 73.79 22.8497 70.93 22.1897 68.89C21.5297 68.75 21.1097 68.18 20.7897 67.39C20.6097 67 20.5497 66.53 20.4797 66.03C20.4197 65.53 20.3497 65.01 20.3297 64.46C20.2697 62.25 20.6597 59.99 19.7797 57.91C20.3397 57.95 20.4797 57.81 20.7397 56.47C21.3297 53.37 22.4397 50.01 23.8097 47.39C24.0897 46.88 24.3597 46.35 24.6497 45.84L25.6397 44.37L26.1397 43.64L26.7097 42.95L27.8497 41.58L29.1097 40.32C29.3197 40.11 29.5197 39.9 29.7397 39.7L30.4197 39.13L31.7697 38L33.1997 36.99C37.0097 34.34 41.1297 32.6 44.6497 31.21C45.7797 30.79 47.0197 30.6 47.8397 30.54C48.6797 30.51 49.1097 30.62 48.6297 30.74C55.1297 28.92 61.7397 26.5 65.0597 26.08C70.5997 25.36 75.1697 24.77 81.2497 24.17C88.1497 23.51 95.0797 22.74 102.42 22.73C104.32 21.38 119.61 23.64 122.03 20.9C123.86 22.27 123.72 20.69 126.92 20.72C127.04 21.26 126.58 22.06 127.68 22.13C129.62 20.84 131.64 22.03 134.19 21.95C139.14 21.82 145.29 20.94 148.91 20.87C156.24 20.7 164.46 22.77 169.32 21.29C169.38 22.02 170.73 22.18 172.41 22.18C174.09 22.2 176.09 22.1 177.41 22.21C181.82 22.66 186.25 23.48 190.52 24.49C194.79 25.52 198.87 26.77 202.67 28C203.87 28.42 204.85 28.06 206 28.48C207.45 29.07 208.65 29.81 209.78 30.68C210.36 31.1 210.94 31.51 211.57 31.88C212.2 32.26 212.85 32.66 213.62 32.96C213.93 32.81 214.04 32.38 214.73 32.76C218.89 35.02 222.55 37.51 225.68 41.12C226.42 42.05 227.25 42.95 227.89 44.04C228.23 44.57 228.58 45.1 228.91 45.66C229.19 46.24 229.48 46.84 229.78 47.44C229.92 47.74 230.08 48.05 230.21 48.36L230.55 49.34C230.77 50 231.03 50.67 231.22 51.37C231.52 52.8 231.92 54.27 232 55.86C232.61 55.42 233.18 56.16 233.45 57.07C233.69 57.98 233.53 59.03 232.98 59.11L232.89 57.56C232.82 57.08 232.68 56.71 232.47 56.65C232.69 57.59 232.63 58.38 232.6 59.05C232.55 59.71 232.45 60.25 232.31 60.71C233.35 61.48 233.21 59.62 234.09 60.01C234.31 56.91 233.49 55.48 232.87 54.14C233.51 54.07 233.4 53.71 233.21 52.39C232.48 47.38 230.26 43.13 227.06 39.43C223.82 35.73 219.56 32.59 213.97 29.43C213.97 30.12 213.33 29.85 212.54 29.53C211.75 29.2 210.84 28.73 210.43 28.85C210.39 27.98 208.48 27.17 210.38 27.22C206.27 26.05 204.03 25.21 201.67 24.45C199.32 23.71 196.87 23 192.44 22.76C192.68 22.23 194.58 22.98 194.39 22.12C189.99 20.69 192.6 22.27 190.84 22.38C189.23 21.71 189.87 20.61 187.18 20.15C184.49 20.39 187.33 21.87 183.47 21.31L183.73 20.26C176.57 19.96 171 19.53 165.14 19.05C159.29 18.59 153.15 18.11 145.04 18.28C144.28 20.08 148.1 17.84 148.25 19.04C144.65 19.37 135.92 17.29 134.32 19.41C130 19.67 131.26 18.72 130.29 18.07C127.97 19.3 123.66 18.95 122.11 18C122.39 19.63 118.07 18.33 115.58 18.61C115.45 18.63 115.31 19.27 114.74 19.36C112.23 19.78 109.45 19.65 107.37 20.36C107.34 20.3 107.44 19.64 107.4 19.64C102.44 19.66 98.9497 20.04 92.6997 19.89C91.9097 20.6 95.1197 20.98 92.6697 21.33C90.8797 21.37 90.9397 20.51 91.0697 19.61C83.6497 20.42 80.7397 22.22 73.0397 21.92C71.4897 22.11 72.4997 23.17 70.6197 23.24C71.3197 22.41 67.8697 22.16 68.1397 22.79C69.1697 22.82 69.8297 23.06 69.8097 23.68L69.8297 23.71ZM215.05 30.88C215.11 30.88 215.2 30.56 215.26 30.58C217.11 31.45 215.89 31.43 214.82 31.25C213.75 31.07 212.79 30.72 215.05 30.88ZM84.5197 21.44C84.3897 20.67 87.4297 21.1 88.6197 20.84C88.7397 21.61 85.7197 21.17 84.5197 21.44ZM126.96 19.64C131.27 19.01 124.74 19.96 126.96 19.64ZM22.7097 73.92C20.4797 72.82 22.6197 72.88 23.0297 73.75C23.6097 74.87 22.7797 73.97 22.7097 73.92ZM105.77 107.8C104.78 107.59 104.14 107.25 104.27 106.64C105.25 106.85 105.89 107.19 105.77 107.8ZM203.37 88.72C206.21 87.72 201.42 90.44 201.87 89.3C199.93 89.41 202.15 89.23 203.37 88.72Z" fill="#72B2DA"/>
</svg>
