<svg width="250" height="118" viewBox="0 0 250 118" fill="none" xmlns="http://www.w3.org/2000/svg">
<path d="M223.426 37.4309C223.061 37.0427 219.777 35.0637 220.383 35.064C181.735 35.0638 162.353 30.4107 123.113 32.5314C62.5191 35.7978 20.5333 10.9218 17 69.4551C18.7956 92.7738 64.3553 116.339 123.103 112.608C183.656 108.755 229.622 93.2566 233 70.2882C233 56.8395 231.532 49.9849 227.991 43.1114C226.865 41.4736 226.338 39.8357 224.948 38.3776L223.426 37.4309Z" fill="#1684C8"/>
<path d="M231.998 60.785C231.998 85.595 183.358 101.615 123.668 105.705C65.7478 109.665 16.9278 84.615 19.0678 59.905C22.2278 23.575 63.9378 24.185 123.668 20.715C176.728 17.635 231.998 23.355 231.998 60.785Z" fill="#72B2DA"/>
<path fill-rule="evenodd" clip-rule="evenodd" d="M69.3297 23.71C64.2897 23.3 61.1797 24.74 57.8397 24.18C58.2397 24.55 56.1897 25.38 54.0997 26.13C52.0097 26.92 49.8797 27.64 49.9897 27.63C49.6397 27.7 49.9697 26.9 49.0697 27.13C49.1397 27.11 48.8897 27.89 48.4097 28.05C47.3897 28.4 47.5197 27.51 46.6697 27.77C46.6697 27.77 46.6297 27.95 46.5297 28.17C46.4297 28.38 46.2797 28.62 46.0397 28.72C45.0397 29.14 42.8797 29.14 42.1297 30.03C41.8997 29.51 41.8897 28.79 40.2597 29.57C40.3797 30.06 40.8597 30.19 41.3597 30.32C40.2397 29.89 39.2997 30.45 38.4397 31.04C37.5597 31.61 36.8197 32.35 35.9397 32.36C37.1897 31.84 37.7797 30.87 36.4097 31.31C34.1697 33.18 32.6297 32.91 33.1897 34.34C32.3197 34.71 31.6197 35.12 30.9697 35.48C30.3297 35.85 29.7397 36.16 29.2597 36.57C28.7597 36.97 28.3097 37.38 27.8697 37.85C27.4297 38.32 27.0697 38.92 26.6797 39.59L25.7197 38.51C25.5397 38.85 25.3097 39.21 25.0197 39.58C24.7597 39.98 24.4697 40.4 24.1397 40.84C23.8197 41.28 23.4397 41.71 23.1097 42.18L22.1197 43.61C21.4097 44.53 20.9197 45.53 20.4597 46.33C19.9897 47.13 19.7797 47.84 19.7397 48.24C20.2797 47.87 19.9997 49.03 19.4697 50.29C19.0397 51.57 18.3097 52.99 17.6897 53.07C17.8797 54.32 17.7797 55.52 17.6297 56.73C17.5797 57.34 17.4997 57.94 17.3997 58.55C17.3197 59.17 17.1597 59.74 17.1297 60.43C16.7497 63.06 17.1797 65.89 18.7497 67.97C18.4197 69.24 19.1497 71.91 20.6197 74.03C21.9997 76.21 23.8997 77.87 24.8797 78.21C24.9697 79.2 25.4697 80.13 26.1997 81.06C26.9097 82.02 27.9297 82.87 29.0197 83.78C31.2597 85.53 33.9297 87.24 36.3097 89.28C37.7797 90.58 38.1997 90.85 38.6797 91.03C39.1597 91.21 39.6997 91.32 41.4797 92.12C47.5697 94.77 53.0397 99.63 50.5497 96.36C53.4397 98.24 56.7797 99.32 60.1397 100.25C63.5197 101.13 66.9197 101.88 70.1597 102.98C70.2797 103.02 69.1797 103.45 69.1097 103.45C73.0497 104.69 75.1897 103.71 79.0797 104.77C80.4697 105.13 80.5697 105.92 82.1297 106.13C84.1397 106.35 85.4497 105.63 86.4597 105.79L86.2897 106.49C89.1497 107.04 92.6097 107.25 95.9797 107.4C99.3497 107.55 102.64 107.68 105.23 108.16C106.8 107.96 108.61 107.87 109.46 107.26C110 107.55 113.98 108.18 114.39 107.34C113.93 107.34 113.48 107.05 114.42 106.98C120.09 108.11 126.37 107.08 133.24 105.8C132.35 105.78 131.28 105.35 132.42 105.14C138.54 106.61 146.81 103.29 155.94 102.34C161.15 101.77 165.81 101.41 168.8 99.9C169.08 100.84 173.96 99.83 176.1 99.19C176.17 99.17 176.33 98.48 176.8 98.3C179.81 97.18 182.74 97.43 185.6 96.57C187.22 96.06 187.93 95.23 189.4 94.79C193.59 93.61 198.55 93.33 201.69 90.35C204.68 90.07 205.51 89.45 206.85 87.85C206.98 88.66 207.86 88.67 209.45 87.84C209.52 87.13 208.02 87.49 209.06 86.83C211.7 86.4 216.07 83.6 221.77 79.62C221.75 79.27 221.38 79.01 221.98 78.51C224.3 76.95 226.14 75.37 227.43 73.8C228.01 72.96 228.53 72.19 228.75 71.34C228.96 70.49 229.06 69.69 228.82 68.85C229.76 68.13 230.77 68.06 231.72 67.67C231.89 67.02 231.99 66.44 232.05 65.92C232.13 65.4 232.05 64.88 232.04 64.39C232.04 63.4 231.87 62.38 231.97 60.93C231.27 60.93 230.79 61.37 230.44 62.05C230.25 62.39 230.16 62.8 229.98 63.24C229.8 63.69 229.65 64.18 229.5 64.71C228.82 66.81 227.59 69.44 225.67 71.14C225.57 71.56 225.78 71.82 225.85 72.17C225.93 72.52 225.84 72.94 225.05 73.61C224.42 73.39 225.13 72.13 224.29 72.85C224.51 73.41 224.18 73.66 223.72 73.9C223.25 74.14 222.6 74.36 222.22 74.97C223.9 76.38 220.47 76.92 218.92 78.17C218.2 79.18 219.02 80.03 217.08 81.19C216.89 80.76 217.69 80.21 217.21 79.82C212.49 83.24 208.47 85.23 204.77 86.82C201.06 88.39 197.59 89.52 193.42 90.58C194.18 91.35 192.01 91.78 191.37 92.35C190.12 91.85 189.05 92.4 188.02 92.94C186.99 93.46 186 93.96 185.01 93.39C184.89 93.71 185.12 94.09 184.37 94.3C179.48 94.77 175.99 95.73 173.38 97.19C172.55 96.96 168.66 96.87 167.77 97.9C168.72 97.78 170.02 97.43 170.2 97.82C165.94 98.36 165.05 98.52 159.78 99.23C159.62 99.54 159.82 99.94 159.03 100.07C151.93 100.36 144.77 101.69 137.17 102.91C129.57 104.09 121.52 105.35 112.96 104.83C111.1 104.67 111.97 105.85 110.43 105.85C109.26 104.26 101.48 105.58 97.5497 104.36C97.5697 105.15 96.6997 105.42 94.9397 105.15C85.4697 103.08 78.2897 102.62 72.5497 101.02C72.8097 101.27 70.4897 100.87 67.7197 100.06C64.9397 99.28 61.7397 98.08 60.1497 97.17C59.8597 97.51 59.8597 98.15 58.9397 97.87C57.8597 97.1 56.6997 96.53 55.3497 95.99C53.9897 95.48 52.3997 95.1 50.4697 94.74C50.4197 94.58 51.5597 94.45 51.5597 94.45C49.9397 93.52 47.1397 92.25 44.4297 90.92C43.7497 90.59 43.0697 90.27 42.4097 89.96C41.7597 89.63 41.1297 89.31 40.5497 89.02L37.6297 87.57C37.4797 86.79 36.9397 86.17 36.2497 85.59C35.5597 85 34.6797 84.47 33.7797 83.97C32.9097 83.42 32.0197 82.88 31.2897 82.32C30.5797 81.74 30.0597 81.11 29.8897 80.47C29.4997 80.42 29.0797 80.29 28.6597 80.06C28.2497 79.82 27.8297 79.5 27.3897 79.12C26.4997 78.38 25.6997 77.29 24.9097 76.15C23.3797 73.79 22.3497 70.93 21.6897 68.89C21.0297 68.75 20.6097 68.18 20.2897 67.39C20.1097 67 20.0497 66.53 19.9797 66.03C19.9197 65.53 19.8497 65.01 19.8297 64.46C19.7697 62.25 20.1597 59.99 19.2797 57.91C19.8397 57.95 19.9797 57.81 20.2397 56.47C20.8297 53.37 21.9397 50.01 23.3097 47.39C23.5897 46.88 23.8597 46.35 24.1497 45.84L25.1397 44.37L25.6397 43.64L26.2097 42.95L27.3497 41.58L28.6097 40.32C28.8197 40.11 29.0197 39.9 29.2397 39.7L29.9197 39.13L31.2697 38L32.6997 36.99C36.5097 34.34 40.6297 32.6 44.1497 31.21C45.2797 30.79 46.5197 30.6 47.3397 30.54C48.1797 30.51 48.6097 30.62 48.1297 30.74C54.6297 28.92 61.2397 26.5 64.5597 26.08C70.0997 25.36 74.6697 24.77 80.7497 24.17C87.6497 23.51 94.5797 22.74 101.92 22.73C103.82 21.38 119.11 23.64 121.53 20.9C123.36 22.27 123.22 20.69 126.42 20.72C126.54 21.26 126.08 22.06 127.18 22.13C129.12 20.84 131.14 22.03 133.69 21.95C138.64 21.82 144.79 20.94 148.41 20.87C155.74 20.7 163.96 22.77 168.82 21.29C168.88 22.02 170.23 22.18 171.91 22.18C173.59 22.2 175.59 22.1 176.91 22.21C181.32 22.66 185.75 23.48 190.02 24.49C194.29 25.52 198.37 26.77 202.17 28C203.37 28.42 204.35 28.06 205.5 28.48C206.95 29.07 208.15 29.81 209.28 30.68C209.86 31.1 210.44 31.51 211.07 31.88C211.7 32.26 212.35 32.66 213.12 32.96C213.43 32.81 213.54 32.38 214.23 32.76C218.39 35.02 222.05 37.51 225.18 41.12C225.92 42.05 226.75 42.95 227.39 44.04C227.73 44.57 228.08 45.1 228.41 45.66C228.69 46.24 228.98 46.84 229.28 47.44C229.42 47.74 229.58 48.05 229.71 48.36L230.05 49.34C230.27 50 230.53 50.67 230.72 51.37C231.02 52.8 231.42 54.27 231.5 55.86C232.11 55.42 232.68 56.16 232.95 57.07C233.19 57.98 233.03 59.03 232.48 59.11L232.39 57.56C232.32 57.08 232.18 56.71 231.97 56.65C232.19 57.59 232.13 58.38 232.1 59.05C232.05 59.71 231.95 60.25 231.81 60.71C232.85 61.48 232.71 59.62 233.59 60.01C233.81 56.91 232.99 55.48 232.37 54.14C233.01 54.07 232.9 53.71 232.71 52.39C231.98 47.38 229.76 43.13 226.56 39.43C223.32 35.73 219.06 32.59 213.47 29.43C213.47 30.12 212.83 29.85 212.04 29.53C211.25 29.2 210.34 28.73 209.93 28.85C209.89 27.98 207.98 27.17 209.88 27.22C205.77 26.05 203.53 25.21 201.17 24.45C198.82 23.71 196.37 23 191.94 22.76C192.18 22.23 194.08 22.98 193.89 22.12C189.49 20.69 192.1 22.27 190.34 22.38C188.73 21.71 189.37 20.61 186.68 20.15C183.99 20.39 186.83 21.87 182.97 21.31L183.23 20.26C176.07 19.96 170.5 19.53 164.64 19.05C158.79 18.59 152.65 18.11 144.54 18.28C143.78 20.08 147.6 17.84 147.75 19.04C144.15 19.37 135.42 17.29 133.82 19.41C129.5 19.67 130.76 18.72 129.79 18.07C127.47 19.3 123.16 18.95 121.61 18C121.89 19.63 117.57 18.33 115.08 18.61C114.95 18.63 114.81 19.27 114.24 19.36C111.73 19.78 108.95 19.65 106.87 20.36C106.84 20.3 106.94 19.64 106.9 19.64C101.94 19.66 98.4497 20.04 92.1997 19.89C91.4097 20.6 94.6197 20.98 92.1697 21.33C90.3797 21.37 90.4397 20.51 90.5697 19.61C83.1497 20.42 80.2397 22.22 72.5397 21.92C70.9897 22.11 71.9997 23.17 70.1197 23.24C70.8197 22.41 67.3697 22.16 67.6397 22.79C68.6697 22.82 69.3297 23.06 69.3097 23.68L69.3297 23.71ZM214.55 30.88C214.61 30.88 214.7 30.56 214.76 30.58C216.61 31.45 215.39 31.43 214.32 31.25C213.25 31.07 212.29 30.72 214.55 30.88ZM84.0197 21.44C83.8897 20.67 86.9297 21.1 88.1197 20.84C88.2397 21.61 85.2197 21.17 84.0197 21.44ZM126.46 19.64C130.77 19.01 124.24 19.96 126.46 19.64ZM22.2097 73.92C19.9797 72.82 22.1197 72.88 22.5297 73.75C23.1097 74.87 22.2797 73.97 22.2097 73.92ZM105.27 107.8C104.28 107.59 103.64 107.25 103.77 106.64C104.75 106.85 105.39 107.19 105.27 107.8ZM202.87 88.72C205.71 87.72 200.92 90.44 201.37 89.3C199.43 89.41 201.65 89.23 202.87 88.72Z" fill="#72B2DA"/>
</svg>
