<svg width="251" height="118" viewBox="0 0 251 118" fill="none" xmlns="http://www.w3.org/2000/svg">
<path d="M225.207 45.4995C224.848 45.1819 224.708 44.8411 224.708 44.5002C206.952 29.596 162.026 41.4249 123.419 43.1601C63.8018 45.8326 12.7881 6.31019 19.0164 73.3712C20.783 92.4508 65.6084 111.732 123.409 108.68C182.987 105.527 228.211 92.8458 231.535 74.0529C233.501 62.9213 232.384 54.9502 228.9 49.3262C227.792 47.9861 226.565 46.6925 225.197 45.4995H225.207Z" fill="#1684C8"/>
<path fill-rule="evenodd" clip-rule="evenodd" d="M22.7597 50.9425L22.4995 52.2393L22.3294 52.1775L22.5896 50.8808L22.7597 50.9425Z" fill="#1684C8"/>
<path fill-rule="evenodd" clip-rule="evenodd" d="M26.1119 42.4596C26.5922 41.5797 27.0025 41.186 27.0825 41.2246C27.1426 41.2478 26.8824 41.6646 26.1119 42.4596Z" fill="#1684C8"/>
<path fill-rule="evenodd" clip-rule="evenodd" d="M34.3566 36.8327C33.8863 36.9716 33.416 37.1028 32.9758 37.2804L32.9457 37.1414C33.386 36.9639 33.8663 36.8327 34.3466 36.686V36.8327H34.3566Z" fill="#1684C8"/>
<path fill-rule="evenodd" clip-rule="evenodd" d="M38.9198 35.8755C37.499 36.0376 37.2588 35.9759 35.8079 36.2538C35.6878 36.2229 36.7485 35.9604 37.7391 35.8524C38.7097 35.7212 39.5902 35.7289 38.9198 35.8755Z" fill="#1684C8"/>
<path fill-rule="evenodd" clip-rule="evenodd" d="M68.1273 38.5771C67.3068 38.0754 72.63 39.2564 74.4011 39.457C74.6012 39.7889 70.2085 38.8627 68.1273 38.5771Z" fill="#1684C8"/>
<path fill-rule="evenodd" clip-rule="evenodd" d="M55.1798 36.3618C51.9478 35.9682 51.5475 35.7289 48.3356 35.4819C49.9165 35.4279 54.8696 36.0222 55.1798 36.3618Z" fill="#1684C8"/>
<path fill-rule="evenodd" clip-rule="evenodd" d="M210.445 39.897C209.904 39.789 209.374 39.6732 208.814 39.596L208.954 39.403C209.794 39.5188 210.585 39.7272 211.405 39.8739C211.545 40.0205 210.555 39.8198 210.445 39.8893V39.897Z" fill="#1684C8"/>
<path fill-rule="evenodd" clip-rule="evenodd" d="M91.1518 42.1586C95.2643 42.9382 93.4432 42.2512 91.1518 42.1586Z" fill="#1684C8"/>
<path fill-rule="evenodd" clip-rule="evenodd" d="M232.568 78.097C232.868 77.2943 233.088 76.7308 233.389 76.2291C233.529 75.9744 233.699 75.7351 233.829 75.4649C233.939 75.1948 234.049 74.9092 234.129 74.5773C234.369 75.3414 233.188 77.6725 232.318 78.8921C232.478 78.4444 233.268 76.8929 232.558 78.097H232.568Z" fill="#1684C8"/>
<path fill-rule="evenodd" clip-rule="evenodd" d="M89.6208 108.933C91.1918 109.142 89.6809 109.065 89.5008 109.134C87.9298 108.926 89.4507 109.003 89.6208 108.933Z" fill="#1684C8"/>
<path fill-rule="evenodd" clip-rule="evenodd" d="M25.4714 35.891C26.1519 35.2195 28.083 33.7529 31.5352 32.6877C30.8447 33.12 28.4332 33.8764 25.4714 35.891Z" fill="#1684C8"/>
<path fill-rule="evenodd" clip-rule="evenodd" d="M21.5891 39.4957C20.7586 40.5763 20.6885 40.5994 20.0982 41.4639C19.9481 41.5488 20.4284 40.7461 20.9087 40.0746C21.439 39.4185 21.9193 38.9013 21.5891 39.4879V39.4957Z" fill="#1684C8"/>
<path fill-rule="evenodd" clip-rule="evenodd" d="M189.722 34.5402C188.811 34.5557 187.911 34.6174 187 34.656C186.55 34.5248 188.771 34.4707 188.891 34.355C189.952 34.3318 189.612 34.463 189.722 34.5402Z" fill="#1684C8"/>
<path fill-rule="evenodd" clip-rule="evenodd" d="M229.857 61.2779C230.047 62.3431 230.047 61.7333 230.047 60.9228C230.027 60.1201 229.967 59.1166 230.167 59.4022C230.377 61.5558 230.187 62.6055 229.997 63.2693C230.077 65.9246 229.957 67.3757 229.847 68.7728C229.797 69.4752 229.706 70.1622 229.616 70.9803L229.436 72.3388L229.326 73.1261L229.156 73.9057C229.036 73.8903 229.046 73.5584 229.056 73.2265C228.406 75.6656 226.925 78.2359 224.894 80.4049C222.872 82.5739 220.591 84.4032 218.96 85.6305C215.718 87.7068 210.385 90.0765 205.031 91.9521C201.799 93.3029 197.967 94.6151 194.095 95.6957C190.212 96.7763 186.28 97.61 182.898 98.1657C181.487 98.706 187.1 97.4324 184.569 98.0808C182.327 98.4513 178.405 99.1228 175.223 99.833C174.643 99.6168 170.41 100.744 168.359 100.867C166.548 101.369 161.385 102.218 157.922 102.504C155.741 102.828 154.5 103.461 151.739 103.523C152.429 103.314 154.36 103.175 152.669 103.206C148.227 103.692 152.429 103.484 149.097 103.878C147.456 103.962 146.075 104.024 143.884 104.179C141.002 104.696 132.097 105.483 127.944 105.583C129.345 105.506 131.006 105.398 130.636 105.275C128.815 105.344 127.134 105.367 125.633 105.452C124.132 105.545 122.831 105.653 121.78 105.823C121.67 105.746 122 105.614 120.98 105.645C119.109 105.761 119.349 106.039 116.487 106.054C114.826 106.07 115.967 105.83 113.936 105.884C113.015 105.993 110.063 105.946 107.922 105.962C105.781 105.915 104.45 105.908 106.791 106.101C105.58 106.062 104.84 106.07 104.12 106.085C103.679 105.931 102.378 105.807 101.668 105.637C95.6043 105.514 91.2316 104.889 87.5193 104.827C88.7301 104.603 84.1373 104.271 82.4162 104.017C82.2061 103.885 81.2755 103.708 81.7358 103.631C79.1942 103.299 76.9829 102.913 74.8916 102.589C72.8203 102.195 70.8491 101.886 68.8879 101.454C64.9455 100.643 60.903 99.6631 55.6698 97.9264C55.6398 98.0885 55.5097 98.2661 53.7687 97.664C53.8187 97.5482 54.1389 97.5559 54.8093 97.7257C50.3166 96.0353 50.6267 96.2823 50.6668 96.483C49.6361 96.0739 48.5855 95.7034 47.5649 95.2712C48.3854 95.3947 46.6743 94.6846 47.1446 94.7C45.2535 93.9281 44.2028 93.4882 43.2122 93.0482C42.2016 92.6314 41.321 92.1528 39.8101 91.2497C39.57 91.3269 38.029 90.447 36.6682 89.6751C35.3674 88.8569 34.2367 88.1545 34.737 88.6254L33.2561 87.483L32.2455 86.742L31.1648 85.8852C29.6239 84.8046 30.6045 85.6691 29.744 85.0439C29.0936 84.4727 28.4331 83.9787 27.9729 83.5387C27.5226 83.091 27.2124 82.7437 27.1824 82.5276C27.9629 83.3612 29.1936 84.1331 28.0329 82.9289C27.7127 82.8903 27.3325 82.4967 26.9122 81.9872C26.532 81.4624 26.1417 80.8294 25.7015 80.3432C24.921 79.6948 26.2418 81.6245 25.2412 80.4358C23.8804 78.5215 23.8203 77.8114 23.5502 77.1244C23.4201 76.4066 22.9998 75.7196 22.3394 73.5507C22.3694 73.9906 22.5595 74.531 22.6896 74.9786C22.7997 75.434 22.9098 75.7968 22.9098 75.8817C22.6396 75.2411 22.5095 74.6313 22.3194 74.0678L22.0993 72.4701C22.0392 71.3508 22.0292 70.4092 22.0392 69.6604C21.4689 66.9512 21.3788 63.416 21.639 58.8002C21.4389 58.3216 21.5589 56.8087 21.7791 55.3422C21.9792 53.8756 22.2494 52.4477 22.0692 52.054C21.8091 53.2813 21.9292 53.536 21.729 54.717C21.5189 54.1458 21.3388 55.2882 21.1287 55.211C21.2788 54.4545 21.4689 53.4588 21.729 51.9228L21.9792 52.0154C22.0692 50.5411 22.3494 49.1132 22.8597 47.5C23.4101 45.9022 24.1705 44.0806 25.6414 42.066C25.8215 41.572 25.3413 42.1586 24.941 42.7992C24.5007 43.4167 24.1805 44.096 24.2706 43.5634C24.4507 43.5094 24.6108 43.1389 24.861 42.6835C24.981 42.4596 25.1011 42.1972 25.2412 41.9502C25.4013 41.7109 25.5614 41.4716 25.7415 41.2555C26.1818 40.7615 25.6514 41.5951 26.7721 40.337C27.2424 39.8198 28.133 38.9862 29.0835 38.3224L29.784 37.8438L30.4544 37.4579C30.8446 37.2032 31.2048 37.0565 31.3749 36.9485C32.0454 36.5702 30.9547 36.933 32.0153 36.439C32.9059 36.0145 34.667 35.505 35.0472 35.59C32.6357 36.2924 30.3343 37.3884 28.4932 38.9939C27.5626 39.7889 26.7221 40.6998 26.0217 41.7263C25.6414 42.2203 25.3513 42.7838 25.0111 43.3164C24.7409 43.8876 24.4007 44.4433 24.1705 45.0531C24.7009 44.1886 24.4307 44.8061 24.1105 45.5857C23.7903 46.3653 23.5301 47.3456 23.8603 47.1217C24.5007 45.2306 24.5508 44.5437 25.5414 42.807C26.492 41.4099 27.2524 40.6226 28.0529 39.951C28.8334 39.2718 29.6039 38.662 30.9547 37.8824C30.8646 38.0522 30.0541 38.5154 31.6351 37.7126C32.0954 37.3498 31.6551 37.4888 31.0748 37.7512L30.2142 38.1912C29.9541 38.3301 29.754 38.4459 29.6839 38.4536C29.904 38.1834 30.2343 37.9056 30.8046 37.5428C32.3656 36.8018 33.4862 36.4699 34.3368 36.1611C35.2073 35.891 35.8377 35.6749 36.6182 35.4896C37.2686 35.451 37.6488 35.5359 37.3686 35.7289C38.1591 35.6131 38.7795 35.5282 39.2498 35.4742C39.7201 35.4124 40.0102 35.3584 40.1503 35.3198C40.4305 35.2426 40.0503 35.1654 39.0597 35.1886C41.5112 34.8335 44.9132 34.8644 48.6755 35.2195C52.4479 35.5668 56.5704 36.192 60.6229 36.7555C62.2138 37.4116 69.3582 38.415 71.1193 38.5154C76.6327 39.8198 81.6858 40.2521 90.3611 41.8576C90.8414 41.8498 91.4017 41.8576 92.2723 41.9193C91.932 42.1354 92.9727 42.0583 94.8839 42.3438C92.5824 42.2358 98.366 43.0077 100.988 43.2701C99.5267 43.2392 100.657 43.409 102.358 43.5943C104.059 43.7872 106.331 43.9648 107.131 44.0883C108.462 43.9571 108.192 43.8258 111.904 43.8644C110.804 43.9185 110.764 43.9879 111.764 44.1346C114.786 44.2349 114.296 43.9571 116.457 43.9107C118.048 44.2272 123.051 43.9493 124.552 43.9107C123.742 44.15 125.753 44.0342 125.333 44.2195C132.317 43.7332 131.526 43.7872 137.9 43.3473C138.791 43.1389 135.299 43.3318 137.98 43.0617C143.023 42.6063 147.496 42.4365 150.438 41.7572C149.747 42.0274 152.169 41.7109 152.139 41.8498C149.938 42.1972 143.193 42.7761 143.223 42.915C146.095 42.5677 145.985 42.7452 146.736 42.7684C149.547 42.5291 149.507 42.367 151.208 42.1509C152.199 42.2281 148.397 42.7607 152.029 42.3438C153.65 41.9193 151.198 42.12 156.512 41.6414C157.292 41.3558 155.311 41.5951 155.711 41.379C157.032 41.2478 158.983 40.9931 159.233 41.0625C160.194 41.1783 157.812 41.3867 157.402 41.5488C160.404 41.572 167.518 40.3447 169.75 40.2212C170.98 40.0514 169.95 39.9279 171.591 39.7581C173.552 39.7581 176.284 39.2178 178.615 39.1869C178.995 38.7624 173.052 39.704 172.541 39.3799C175.803 38.9476 175.783 39.2641 178.735 38.7546C180.546 38.8704 190.142 38.2761 183.978 38.5154C188.431 37.8824 194.755 38.415 199.708 38.2915C198.898 38.3764 196.716 38.3996 199.578 38.5617C200.028 38.2375 200.569 38.7006 201.229 38.7701C203.981 38.9785 203.24 38.5385 207.273 39.1329C205.752 38.6929 207.213 38.6929 209.534 38.9708C211.846 39.2718 214.887 40.0514 216.538 40.7383C216.899 40.7075 215.618 40.2829 215.168 40.0591C215.778 40.2443 216.258 40.3987 216.658 40.5377C217.049 40.6843 217.359 40.8387 217.659 40.9699C218.249 41.2401 218.78 41.4639 219.59 41.8962C220.051 41.927 218.46 41.1397 219.24 41.3018C220.191 41.7649 220.771 42.0042 221.121 42.1663C221.461 42.3361 221.621 42.3824 221.762 42.4133C221.902 42.4442 222.032 42.4673 222.322 42.5986C222.602 42.7298 223.082 42.9382 223.773 43.4708C223.112 42.8764 222.382 42.4365 221.962 42.0814C222.642 42.4982 223.343 42.9073 223.943 43.4013C223.082 42.614 223.423 42.668 223.693 42.6757C223.953 42.6912 224.203 42.5908 222.822 41.6337C223.253 41.8498 223.613 42.0274 223.913 42.1586C224.203 42.3053 224.433 42.4288 224.633 42.5137C225.034 42.6835 230.207 50.4176 230.407 50.4176C230.807 50.4022 226.074 42.4905 226.895 42.7452L227.475 43.8953C227.635 43.8953 227.815 44.7405 227.825 44.5784C227.915 44.617 231.387 47.5665 231.387 47.5665C231.387 47.5665 228.631 43.7359 227.275 42.4828C225.919 41.2297 225.924 41.186 224.013 40.2443C223.823 39.9819 223.242 39.5419 222.372 39.0943C221.942 38.8627 221.461 38.6003 220.921 38.361C220.371 38.1449 219.79 37.9133 219.2 37.674C216.799 36.7941 214.107 36.2075 212.736 35.9836C210.725 35.5514 209.624 35.3661 208.553 35.15C207.493 34.9184 206.462 34.7563 204.591 34.4862C204.981 34.8412 203.56 34.903 201.459 34.8875C203.06 34.6869 199.148 34.6406 198.848 34.4939C201.209 34.5865 202.14 34.5093 203.58 34.5479C201.409 34.3858 200.028 34.3395 198.988 34.2237C197.457 34.3472 196.676 34.4862 193.314 34.5248C193.164 34.355 190.332 34.4321 187.841 34.5711C185.349 34.6946 183.208 34.8567 184.329 34.5865C182.387 34.8104 178.945 35.0342 175.363 35.3121C171.781 35.5977 168.059 35.9141 165.527 36.2306C164.266 36.5239 167.749 36.2615 165.457 36.5162C162.876 36.6243 159.674 36.8558 154.901 37.3884C153.44 37.9905 144.114 38.4845 141.592 39.1329C137.02 39.1251 129.785 40.2058 123.181 40.3215C121.87 40.4373 121.74 40.638 120.45 40.7461C120.339 40.6612 119.099 40.692 117.858 40.6998C118.879 40.5917 118.869 40.5454 117.077 40.4836C116.857 40.5377 116.307 40.5608 115.306 40.5377C114.906 40.6534 116.517 40.7383 115.216 40.7461C113.295 40.638 112.985 40.4605 110.083 40.3447C108.972 40.4991 114.146 40.7924 111.654 40.7615C109.423 40.6612 108.662 40.4682 107.392 40.3138C107.562 40.1903 110.303 40.445 110.113 40.2752C106.331 40.0745 102.268 39.7118 99.7268 39.3258C99.1765 39.3644 98.2759 39.3258 96.9951 39.21C92.9327 38.415 88.57 37.8438 84.0072 37.2572C84.4074 37.0951 81.7558 36.5934 78.3037 35.9605C74.8516 35.3275 70.589 34.5634 67.7572 33.9999C67.5471 34.1388 64.2751 33.4673 64.055 33.614C67.0368 34.0694 64.4852 34.1157 62.8843 33.8378C62.9343 33.7529 61.3933 33.5136 61.2232 33.4056C62.0938 33.475 64.4752 33.9459 64.0149 33.6757C59.9425 33.1508 61.7536 33.228 60.5828 32.9424C59.6923 32.7109 54.1289 31.9622 58.0113 32.3867C56.3302 32.0857 54.0088 32.0239 54.4691 31.8001C52.0176 31.5145 49.1658 31.2289 46.3341 31.0899C43.5024 30.951 40.6907 30.9742 38.4193 31.1517C36.4781 31.4527 39.3598 31.3524 39.2298 31.5762C37.0985 31.6148 33.9565 32.1783 37.3586 31.5453C34.717 31.8155 33.1861 32.3326 32.1654 32.8035C31.1348 33.2666 30.5945 33.7143 29.804 34.1697C29.6539 34.0539 28.8234 34.3704 28.0929 34.849C27.3325 35.2966 26.6921 35.8755 26.582 35.999C25.6715 36.5702 24.6008 37.5274 24.4607 37.5505C24.6909 37.2032 25.0511 36.8481 25.4613 36.5008C25.8416 36.138 26.3118 35.8215 26.7621 35.5128C27.1924 35.1963 27.6527 34.9493 28.0229 34.71C28.3831 34.4707 28.6833 34.2778 28.8434 34.1157C25.9716 35.4742 24.1005 37.0642 22.6696 38.4999C21.2588 39.9588 20.2381 41.3173 19.4176 42.6912C18.6071 44.0651 17.9167 45.4622 17.3964 47.0677C16.846 48.6732 16.4558 50.4948 16.2357 52.7101C14.9749 59.3019 15.5853 66.1021 16.2157 71.0961L15.9455 71.0421L16.0656 72.2153L16.1256 72.7942L16.2357 73.4426L16.4458 74.7239C16.5359 75.1407 16.6759 75.5498 16.796 75.9589C17.2563 77.5953 18.0268 79.1004 18.8573 80.4975C20.5683 83.284 22.7897 85.5379 25.0711 87.2669C27.9228 89.9298 31.2149 92.1374 34.6069 94.0362C38.009 95.9273 41.5012 97.5405 44.9933 98.9299C49.2959 100.643 53.1083 101.763 55.1595 102.349C57.4809 103.067 61.3133 104.264 63.6747 104.812C64.8955 105.12 65.9761 105.228 67.2669 105.514C71.5295 106.456 76.3525 107.513 80.6151 107.86C81.6057 108.069 82.9365 108.316 85.0378 108.54C87.4893 108.81 87.4493 108.555 90.5912 108.879C93.6031 109.25 95.3742 109.42 94.9339 109.543C96.0446 109.528 97.6956 109.62 99.5667 109.682C100.497 109.728 101.488 109.775 102.489 109.829C103.489 109.86 104.51 109.89 105.49 109.929C107.462 110.006 109.323 110.014 110.724 109.983C112.124 109.952 113.085 109.89 113.245 109.736C113.165 109.813 112.064 109.782 112.375 109.667C115.707 109.721 115.346 109.481 116.977 109.404C117.488 109.512 120.44 109.319 120.52 109.443C119.649 109.566 117.188 109.574 117.738 109.744C122.381 109.705 120.349 109.335 123.271 109.203C124.602 109.25 129.075 108.902 130.406 108.879C128.164 109.126 124.802 109.319 124.022 109.589C127.114 109.358 129.855 109.119 132.167 108.833C132.327 108.956 131.116 109.057 131.186 109.18C137.4 108.733 131.246 108.848 134.888 108.517C135.489 108.717 138.931 108.547 141.973 108.161C142.293 108.254 140.602 108.462 141.913 108.378C142.873 108.123 148.397 107.776 147.356 107.521C144.674 107.899 141.873 108.107 141.162 107.953C144.524 107.752 141.422 107.613 144.784 107.42C143.334 107.884 148.156 107.251 149.157 107.266C151.358 106.95 147.606 107.212 150.128 106.888C150.928 106.957 154.68 106.432 154.49 106.679C151.709 106.957 151.328 107.181 148.257 107.428C148.707 107.552 150.288 107.49 151.729 107.413C154.731 106.996 155.891 106.664 158.043 106.24C157.372 106.517 162.235 105.653 161.565 105.923C159.634 106.17 158.723 106.348 158.853 106.487C163.266 105.815 164.056 105.637 166.878 105.089C167.728 105.051 169.84 104.719 170.37 104.758C170.65 104.487 176.414 103.669 177.394 103.592C179.486 103.083 186.76 101.84 190.452 100.574C190.592 100.628 190.302 100.821 191.313 100.582C191.453 100.18 196.946 98.7909 196.446 98.6365C197.487 98.4359 199.688 97.8261 200.679 97.61C200.769 97.4865 200.919 97.3552 202.34 96.9307C203.01 96.3981 200.058 97.3784 198.958 97.5328C202.75 96.4136 202.74 96.2901 203.12 96.0816C204.281 95.7034 204.071 95.9196 204.801 95.7266C199.878 97.3244 205.161 96.0508 201.519 97.3398C202.93 96.9076 204.311 96.4367 205.692 95.9504C207.513 95.2094 204.621 96.1357 206.492 95.441C208.133 95.1091 210.615 93.9822 213.767 92.5928C214.177 92.2609 212.706 92.6005 214.437 91.7978C214.057 92.1528 214.917 91.7978 215.848 91.4118C216.759 90.9873 217.729 90.5242 217.649 90.7171C216.588 91.4041 213.727 92.7549 211.385 93.6966C212.336 93.4727 215.498 92.2377 216.999 91.4659L217.719 90.9873C218.149 90.7017 218.72 90.3698 219.22 90.061C219.06 90.1537 220.331 89.6056 220.761 89.3509C221.201 89.1116 221.541 88.718 222.882 87.8612C225.764 85.9701 226.965 85.0516 227.525 84.2643C229.106 82.9444 228.025 83.971 228.916 83.3689C229.426 82.8981 229.887 82.3886 230.327 81.8637L230.997 81.0842C231.207 80.814 231.397 80.5361 231.588 80.2583C231.648 80.0653 231.478 80.1348 231.928 79.4941C232.028 79.1159 231.377 79.8492 230.867 80.4203C230.617 80.7137 230.367 80.9375 230.277 80.9838C230.167 81.0224 230.277 80.9066 230.567 80.4126C231.127 79.6485 230.917 80.073 230.697 80.5284C232.608 78.0661 232.968 76.5764 233.409 74.9709C233.999 73.3346 234.149 72.362 234.389 71.2119C234.589 70.0618 234.81 68.7805 235.03 66.6733C235.08 67.7539 234.8 69.8302 235.11 69.5987C235.24 67.5764 235.34 66.6424 235.5 64.6587C235.25 64.9597 235.14 65.7625 235.16 63.1458C235.28 63.2153 235.29 64.0875 235.43 63.9254C235.56 61.44 235.14 63.416 235.14 61.7256C235.22 59.5721 235.03 57.3722 234.509 55.072C233.989 52.7718 233.119 50.379 231.668 47.9168L231.628 47.8473L231.528 47.7238C230.837 46.867 231.928 49.0205 231.097 48.1406C231.127 48.4802 227.445 43.6883 228.706 45.124C230.887 48.7749 230.187 46.6046 231.267 47.855L231.317 47.9168L231.387 48.0248C232.148 49.2058 232.798 50.518 233.189 51.8147C232.658 50.4176 232.188 49.638 232.028 49.4219C231.858 49.2058 231.948 49.5531 232.328 50.4254C231.888 49.4451 231.458 48.7118 231.097 48.1406L231.037 48.048L230.997 48.0017C229.977 46.8516 229.286 46.2881 228.266 45.3773C229.596 46.6509 230.237 47.4922 230.697 48.1483L230.777 48.2641C231.027 48.8276 231.247 49.2598 231.428 49.777C231.177 49.4837 230.817 48.9897 230.457 48.3876L230.437 48.349L230.397 48.3104C229.726 47.5231 231.748 48.7581 230.997 48.0017C230.247 47.2452 226.745 44.5128 226.474 44.4897C227.605 45.6629 229.266 47.3224 230.127 48.4494L230.157 48.4957C230.297 48.7658 230.407 48.982 230.487 49.1672C230.347 48.9279 230.227 48.7118 230.117 48.5265V48.5034L230.077 48.4725C229.176 47.4228 228.786 47.2066 228.706 47.3919C228.996 47.6929 229.386 48.1252 229.796 48.6115V48.6346C230.787 50.1166 231.508 52.0463 231.077 51.7916C230.697 50.819 230.457 50.4485 230.407 50.4176C230.347 50.3868 230.447 50.7109 230.577 51.1664C230.847 52.0772 231.177 53.536 231.127 53.7444C230.857 52.8645 230.857 52.494 230.227 51.1509C229.937 50.9116 230.307 51.7607 230.597 52.5712C230.887 53.3893 231.087 54.1689 230.747 53.7213C231.407 55.5043 231.598 57.1021 231.698 58.3602C231.798 59.6184 231.818 60.5446 232.018 61.0618C231.858 59.1938 231.838 58.5146 231.888 57.9743C231.938 57.4262 232.008 57.0249 231.758 55.7513C232.078 57.0866 232.158 58.0283 232.248 58.9931C232.308 59.9657 232.368 60.9769 232.438 62.5052C232.348 62.5438 232.278 61.4786 232.258 62.4589C232.348 63.1535 232.308 64.6587 232.188 66.1793C232.088 67.6999 231.938 69.2359 232.048 70.0387C231.798 70.2393 231.498 72.0687 231.167 73.3037C230.897 74.3689 231.307 73.7591 231.087 74.7008C230.097 77.4718 230.567 75.4109 230.127 76.4838C230.017 77.0473 229.827 77.2479 229.606 77.5104C229.376 77.7651 229.126 78.0816 228.626 78.8303C228.496 79.2317 228.736 79.3706 228.075 80.2505C227.775 80.4203 227.365 80.9684 226.965 81.4547C226.525 81.9178 226.104 82.3423 225.914 82.3037C226.575 81.6631 227.175 81.0378 226.875 81.1305C225.504 82.6588 223.553 84.4495 221.051 86.1245C218.56 87.8072 215.548 89.3818 212.326 90.6245C210.495 91.5739 213.757 90.2154 211.645 91.2574C210.745 91.6511 209.504 92.1914 208.303 92.6159C207.093 93.0328 205.962 93.4033 205.312 93.5345C201.129 95.2172 196.176 96.5139 192.984 97.3321C192.574 97.6871 197.157 96.3672 194.675 97.2472C199.738 96.0431 204.671 94.0593 207.003 93.5113C205.842 94.0053 204.991 94.3604 203.801 94.8158C203.27 94.9161 203.48 94.7772 203.31 94.7926C203.14 94.8081 202.59 95.001 200.499 95.6726C200.188 95.9041 201.749 95.4719 200.519 95.8887C197.026 96.73 190.142 98.405 188.771 99.0534C190.502 98.4281 186.91 99.4161 188.771 98.6829C185.349 99.5242 185.279 99.4933 186.22 99.0688C183.898 99.5782 184.509 99.5782 182.808 99.8252C181.747 100.296 185.579 99.2772 184.499 99.7403C182.367 100.049 181.617 100.535 178.475 101.13C178.305 100.852 175.403 101.755 173.292 101.94C172.672 102.272 173.352 102.218 172.381 102.45C170.77 102.658 168.199 103.059 168.949 102.666C171.151 102.295 173.032 101.909 174.623 101.57C176.204 101.199 177.504 100.86 178.535 100.551C177.865 100.659 176.834 100.867 176.814 100.798C173.762 101.33 174.663 101.454 171.591 101.948C171.941 101.786 172.651 101.647 171.621 101.732C168.519 102.396 163.936 103.167 162.055 103.137C163.886 102.789 165.377 102.465 167.078 102.125C168.779 101.801 170.7 101.462 173.402 101.076C173.302 101.207 171.191 101.508 171.641 101.593C176.474 100.69 177.144 100.883 178.555 100.265L178.525 100.559C181.047 99.9719 182.968 99.4625 187.08 98.5902C186.73 98.8527 188.621 98.3741 187.921 98.7523C190.933 98.1271 188.431 98.3818 190.452 97.911C194.115 96.9847 197.987 95.9196 200.419 95.0165C200.649 94.7926 199.298 95.2249 198.767 95.3175C199.668 94.947 200.689 94.6228 201.689 94.3372L204.451 93.519C204.671 93.3878 205.572 93.025 206.752 92.5233C207.963 92.0525 209.444 91.4118 210.915 90.7866C213.827 89.5207 216.508 88.1545 216.688 88.2394C215.548 88.8415 214.787 89.1811 214.247 89.4358C213.687 89.6828 213.336 89.8449 213.026 90.1305C213.947 89.7446 214.797 89.3509 215.728 88.8878C216.678 88.4478 217.659 87.8844 218.86 87.182C218.77 87.097 219.32 86.6957 220.111 86.1399C220.191 86.2789 220.911 85.8235 221.642 85.2831C222.352 84.7351 223.122 84.1485 223.453 84.1022C223.883 83.3072 224.994 82.5584 227.115 80.3432C227.205 80.1425 227.365 79.88 227.565 79.5867C227.745 79.2934 227.915 78.9692 228.075 78.6836C228.406 78.1124 228.626 77.6648 228.426 77.796C228.966 76.9315 229.066 76.8852 229.226 76.7385C229.296 76.6613 229.406 76.5687 229.546 76.3217C229.676 76.067 229.857 75.6656 230.157 75.0018C229.726 75.9821 229.596 76.7154 230.067 75.6965L230.367 74.8165L230.577 73.844C230.757 73.1956 230.837 72.3929 230.977 71.6056C231.217 70.0078 231.458 68.2711 231.578 66.5266C231.868 63.03 231.658 59.4717 230.907 56.9477C231.087 57.2256 231.207 57.7581 231.187 56.9786C230.757 55.0566 229.797 53.1578 229.556 51.807C229.756 51.8533 230.267 53.4202 230.337 53.0729C229.036 49.9854 229.466 51.9151 229.446 52.4245C229.136 51.6063 229.106 51.2744 229.026 50.9348C228.966 50.5874 228.896 50.2169 228.406 49.3525C228.346 49.2984 228.286 49.2444 228.236 49.2212L228.316 49.337C227.755 48.9974 227.565 49.0823 227.825 49.5763L227.705 49.4142C227.795 49.7693 228.105 50.3482 228.526 51.2049C228.486 51.2899 228.326 50.9965 228.125 50.6029C227.915 50.217 227.655 49.7615 227.485 49.4914L227.615 49.6766C227.405 49.4528 227.295 49.3833 227.415 49.6689L227.475 49.7461L227.335 49.5454C228.826 52.2624 227.385 50.3636 226.995 49.6689L227.165 49.9005C227.115 49.8387 227.075 49.7847 227.055 49.7461L227.165 49.9082L226.995 49.6766C227.615 50.6646 229.396 54.6398 227.875 51.8379C228.266 52.795 228.826 54.3079 229.216 55.952C229.626 57.5883 229.877 59.3328 230.027 60.645C229.967 60.7839 229.847 60.6295 229.877 61.2625L229.857 61.2779ZM87.5193 37.8438C89.8708 38.0445 90.6312 38.4922 93.483 38.8859C93.523 39.0557 90.3911 38.4768 89.1003 38.3069C89.8408 38.5231 92.2322 38.855 94.1934 39.1329C96.1546 39.403 97.6856 39.6346 96.695 39.7426C94.4636 39.457 95.6643 39.5574 95.9145 39.4956C95.054 39.4648 92.6925 39.0788 93.1728 39.3335C89.3705 38.8241 91.4017 38.7315 87.2892 38.1526C89.0003 38.2915 86.8589 37.9596 87.5293 37.8361L87.5193 37.8438ZM157.892 102.658C160.064 102.411 157.892 102.928 156.101 103.098C156.432 102.967 157.662 102.789 157.892 102.658ZM227.915 77.4795C229.026 75.4958 228.105 77.3946 228.836 76.5224C228.496 77.0859 228.256 77.6879 227.825 78.2282C228.085 77.7574 228.075 77.5181 227.925 77.4795H227.915ZM98.0658 105.668C97.7956 105.522 102.108 105.784 100.657 105.877L98.9163 105.784C99.1064 105.738 98.6061 105.699 98.0658 105.668ZM72.19 102.257C73.3206 102.565 72.5602 102.48 71.1293 102.233C69.7084 101.979 67.6472 101.516 66.1463 101.13C66.6366 101.037 71.0993 102.233 72.19 102.249V102.257ZM21.5489 70.2471C21.629 70.4863 21.699 70.8568 21.7591 71.3277L21.8491 72.1073L21.8891 72.5395L21.9592 72.9486C22.0692 74.3997 21.5089 72.2385 21.689 73.4966C21.619 73.3731 21.5689 73.1725 21.5389 72.9409C21.4989 72.7171 21.4889 72.4237 21.5089 72.0918C21.5289 71.4512 21.5689 70.7565 21.5389 70.2471H21.5489ZM186.25 98.1425C187.25 98.0036 189.222 97.5173 191.293 96.9925C193.945 96.3518 189.812 97.4865 188.781 97.6871C188.621 97.7875 189.112 97.6794 189.612 97.5559C188.361 98.0885 185.84 98.4127 186.25 98.1425ZM209.084 91.3115C210.625 90.7789 210.084 90.9255 212.126 89.9993C212.576 89.9993 208.413 91.8827 209.084 91.3115ZM226.865 80.1425C226.324 81.0842 225.774 81.5318 224.343 82.7668C224.743 82.3423 225.014 81.995 225.404 81.6167L226.064 80.9915C226.314 80.7523 226.555 80.4667 226.865 80.1348V80.1425ZM230.607 71.6905C231.217 69.452 230.237 75.2256 230.607 71.6905ZM21.8791 74.1141L22.2293 75.3105H22.0392C21.9292 74.9015 21.7891 74.5001 21.689 74.0987L21.8691 74.1141H21.8791ZM73.5308 103.029C71.3594 102.828 70.2688 102.118 73.5308 103.029ZM59.3121 99.586C60.4027 99.8947 61.5835 100.227 62.6141 100.52C63.6547 100.79 64.5453 101.037 65.0456 101.215C64.9055 101.222 63.1444 100.844 61.6035 100.412C60.0625 99.9719 58.7117 99.5396 59.3121 99.586ZM183.708 98.9993C183.328 99.1769 182.608 99.393 181.137 99.6863C181.517 99.5165 182.247 99.3235 183.708 98.9993ZM27.1624 83.2068C26.6921 82.8363 26.3619 82.5353 26.1618 82.3269C25.9816 82.103 25.9216 81.9795 25.9416 81.9564C25.9716 81.9332 26.0917 82.0258 26.2818 82.2342C26.492 82.4349 26.7921 82.7514 27.1524 83.2068H27.1624ZM54.379 98.1194C55.6898 98.5439 55.7099 98.6211 56.7405 98.953C56.5304 98.953 55.87 98.7523 55.8099 98.8064C55.2696 98.6365 54.7192 98.4745 54.1989 98.2815L54.3891 98.1194H54.379ZM123.321 106.479C123.511 106.394 124.222 106.394 124.202 106.432C127.244 106.317 127.984 106.101 129.515 106.131C129.225 106.301 125.583 106.371 125.903 106.548C123.852 106.679 124.982 106.402 123.321 106.479ZM147.186 104.711C149.117 104.387 148.547 104.896 153.28 104.333C152.579 104.472 152.299 104.603 152.329 104.719C150.488 104.966 150.008 104.935 148.827 105.028C151.849 104.619 150.318 104.518 146.255 105.012C145.815 104.958 149.727 104.487 147.186 104.703V104.711ZM150.708 104.348C150.868 104.248 152.319 104.101 153.36 103.978C153.34 104.047 153.32 104.125 153.31 104.194C151.348 104.456 152.089 104.194 150.708 104.348ZM23.9704 80.6828C23.9904 80.4049 24.4807 81.0378 24.7809 81.1768C23.0498 79.1082 23.7103 79.7025 22.2994 77.1167C22.3995 77.1862 22.5095 77.3406 22.6696 77.5567C22.8397 77.7651 23.0298 78.0353 23.23 78.344C23.6002 78.9769 24.2106 79.7411 24.8009 80.5438C23.7603 79.3397 23.8303 79.5327 24.2906 80.2197L24.6909 80.814L25.2412 81.4855C25.6214 81.9409 25.9716 82.4349 26.3018 82.7823C26.4019 83.0447 25.9016 82.6433 25.4813 82.1416C25.0411 81.6553 24.5708 81.1228 24.5208 81.2308C24.2706 81.2926 26.0117 82.6896 25.2712 82.3732C24.5007 81.4701 24.5208 81.4161 23.9904 80.6828H23.9704ZM21.5089 74.0833C21.2688 74.1527 20.9085 72.3157 21.0086 71.4821C21.0987 71.5824 21.1687 71.8834 21.2387 72.3543C21.2988 72.8328 21.4289 73.3731 21.5189 74.0833H21.5089ZM30.3343 86.2248C30.5444 86.2557 31.465 87.0739 32.2555 87.5756C32.3055 87.8535 30.9247 86.8269 31.2048 87.3055C30.7045 86.7883 29.9441 86.248 29.1836 85.6768C28.4732 85.0747 27.6927 84.4727 27.2324 83.8552C27.3625 83.9324 28.5932 84.9821 29.5538 85.7926C30.5745 86.5645 31.3049 87.1048 30.3343 86.2325V86.2248ZM114.436 106.865C117.328 107.035 117.218 106.564 114.436 106.865ZM117.067 106.896C119.809 106.857 119.669 106.595 123.301 106.548C122.351 106.788 120.53 107.011 117.848 107.166C118.168 107.305 120.329 107.204 119.489 107.459C121.48 107.258 123.451 107.058 123.231 106.757C126.273 106.656 127.014 106.425 128.554 106.471C128.665 106.618 127.744 106.733 125.823 106.834C125.863 106.764 126.923 106.718 127.614 106.664C127.504 106.587 126.023 106.695 124.972 106.741C125.873 107.089 127.674 106.957 131.917 106.818C131.796 106.942 129.195 107.374 133.578 107.058C132.957 107.351 127.864 107.529 128.294 107.258C119.189 107.853 112.505 108.077 103.359 107.691C103.359 107.474 106.211 107.59 108.982 107.629C110.373 107.644 111.744 107.66 112.725 107.652C113.715 107.637 114.316 107.583 114.176 107.505C114.886 107.374 115.797 107.467 116.837 107.467C117.888 107.305 117.528 107.127 117.057 106.911L117.067 106.896ZM101.548 107.667C97.9757 107.529 98.9764 107.359 95.4142 107.143C97.8056 107.173 92.8026 106.71 95.6443 106.741C97.2853 107.127 100.377 107.583 103.459 107.474C102.949 107.567 102.058 107.59 101.538 107.667H101.548ZM128.254 107.397C127.074 107.698 131.106 107.282 129.945 107.575C128.615 107.66 126.383 107.513 125.513 107.76C122.941 107.822 126.723 107.467 128.254 107.397ZM132.157 106.031C134.258 106.054 133.157 106.209 132.897 106.471C131.306 106.587 131.056 106.51 129.375 106.633L129.485 106.278C130.746 106.201 131.997 106.124 132.167 106.031H132.157ZM35.4575 89.7832C35.2173 89.8526 33.5063 89.0344 32.5757 88.17C32.6057 87.9307 33.6964 88.6871 35.4575 89.7832ZM85.318 105.344C86.0284 105.213 87.1391 105.653 88.8101 105.769C88.57 105.938 85.8383 105.429 85.318 105.344ZM147.986 104.981L147.896 105.344C145.215 105.252 144.194 105.854 140.792 106.155C140.792 106.085 139.721 106.193 139.041 106.232C141.142 105.869 137.5 105.962 134.738 106.147C139.791 105.529 143.073 105.514 147.986 104.989V104.981ZM162.755 40.7383C164.366 40.6998 165.977 40.4142 168.049 40.1749C169.49 40.0359 161.665 41.2555 162.755 40.7383ZM23.0899 46.018C23.1399 46.2032 22.7797 47.0214 22.5095 47.8936L21.8391 49.8542C22.1493 48.2564 22.2193 46.8439 23.1399 45.2692C22.9998 45.7401 21.639 49.9391 23.0899 46.018ZM106.421 106.942C109.543 107.096 106.451 107.112 107.111 107.382C105.32 107.282 107.021 107.027 103.699 106.996C103.939 106.903 106.351 107.05 106.421 106.942ZM20.5283 66.6733C20.4182 68.4795 19.9379 65.6621 19.9179 63.8174C20.3282 62.8371 20.1481 67.3757 20.5283 66.6733ZM100.197 106.757C100.988 106.872 103.449 106.957 102.739 107.104C101.128 106.888 100.527 106.973 98.326 106.865C98.6862 106.795 99.937 106.842 100.197 106.757ZM68.8579 102.627C70.9692 103.113 71.4095 103.276 73.0205 103.646C72.3901 103.584 71.3294 103.353 70.2988 103.152C69.2782 102.928 68.2776 102.72 67.7472 102.743C66.6366 102.403 67.417 102.457 68.8579 102.635V102.627ZM83.4769 105.252C83.737 105.514 82.5163 105.421 79.8246 104.989C79.8747 105.136 81.2155 105.321 82.6163 105.522C84.0172 105.73 85.4781 105.884 85.7483 106.101C83.1367 105.746 81.7358 105.56 80.3449 105.414C78.9641 105.275 77.6233 105.097 75.1918 104.634C77.7734 104.804 72.0699 103.785 74.7815 103.924C76.8428 104.264 77.9835 104.456 79.1142 104.642C80.2549 104.812 81.3956 104.981 83.4769 105.259V105.252ZM21.1187 74.6545L21.4389 75.7505C21.5289 76.0979 21.699 76.422 21.8191 76.7308L22.1593 77.6184L22.5495 78.398C22.9898 79.3938 23.4501 80.1348 23.7103 80.7291C23.5201 80.3509 23.1099 79.7951 22.7297 79.139C22.3794 78.4675 21.8991 77.7497 21.649 77.0395L21.2387 76.0515C21.1487 75.7428 21.0886 75.4649 21.0486 75.2411C20.9686 74.7934 20.9686 74.5541 21.1287 74.6545H21.1187ZM29.9141 86.3869C29.7339 86.302 29.4938 86.1708 29.1736 85.9547C28.8634 85.7308 28.4832 85.4066 27.9929 84.9744C27.9529 84.8277 28.203 84.9898 28.5632 85.2909L29.1836 85.8235L29.9141 86.3869ZM88.6801 105.962C88.6801 106.193 85.0078 105.722 84.2273 105.56C84.4475 105.429 86.5087 105.707 88.6801 105.962ZM23.7403 44.0497C23.34 44.7444 23.35 44.4819 23.1999 44.5205C23.5201 43.9107 23.8403 43.301 24.2206 42.7143C24.4107 42.614 24.2206 42.8996 24.0605 43.2469C23.8904 43.5943 23.7002 43.9879 23.7403 44.0497ZM20.7785 74.0061C20.6784 73.8903 20.5983 74.1373 20.7384 74.6236C20.4383 74.199 20.4282 73.1339 20.5883 73.35C20.2982 72.663 20.2281 71.567 20.1481 70.4709C20.068 69.3671 20.098 68.2093 20.108 67.2522C20.2882 68.3405 20.3382 69.2977 20.4282 70.3628C20.5183 71.4203 20.5183 72.6321 20.7785 73.9984V74.0061ZM163.726 103.345C161.204 103.785 158.833 104.194 156.652 104.572C157.762 104.194 160.824 103.661 163.726 103.345ZM229.666 77.8654L230.347 76.6382L230.497 76.7308L229.817 77.9658L229.676 77.8654H229.666ZM159.333 40.6226C160.544 40.2907 158.733 41.1166 155.711 41.3713L155.761 41.1552C155.641 41.0857 154.16 41.2709 153.12 41.3713C153.3 41.2941 154.03 41.2015 154.04 41.132L155.801 40.939C155.941 41.1629 158.553 40.8541 159.323 40.6226H159.333ZM103.599 107.204L105.36 107.258L105.3 107.397L103.529 107.343C103.559 107.297 103.569 107.251 103.609 107.204H103.599ZM168.069 102.836C166.358 102.982 166.968 103.021 164.587 103.368C163.266 103.368 169.47 102.411 168.069 102.836ZM199.638 95.6648C197.847 96.4444 194.325 97.1546 199.638 95.6648ZM213.156 90.5782C215.538 89.5593 214.117 90.3852 212.126 91.3887C211.115 91.8672 209.954 92.3612 209.094 92.7086C208.213 93.0327 207.623 93.1871 207.753 93.0173C210.014 92.1605 213.126 90.8483 213.156 90.5859V90.5782ZM232.608 62.5669C232.238 61.3242 232.768 61.4863 232.708 60.5523C233.099 61.795 232.578 61.6407 232.608 62.5669ZM199.728 38.2915C198.868 38.2452 197.997 38.2298 197.116 38.2143C197.167 38.1526 198.207 38.168 198.898 38.1834C197.717 38.0599 196.186 37.9519 199.828 38.0831L199.728 38.2838V38.2915ZM22.3794 46.4039C23.0699 45.0917 22.6296 45.9253 22.2394 46.6741C22.0292 47.0446 21.8591 47.4073 21.8491 47.4536C21.8291 47.5077 21.9292 47.2375 22.3894 46.4039H22.3794ZM144.224 42.4596C142.753 42.4133 140.722 42.8224 140.722 42.5908C142.413 42.4673 144.544 42.2435 144.224 42.4596ZM108.292 43.7255C107.692 43.6869 107.091 43.656 106.491 43.602L106.571 43.4708C107.171 43.5248 107.772 43.548 108.372 43.5943L108.292 43.7255ZM103.799 43.3859C101.028 43.0308 100.817 43.0926 97.5455 42.7298C97.9858 42.6603 101.038 43.0694 100.387 42.7684C102.649 43.0231 103.799 43.1929 103.799 43.3859ZM89.5706 41.6414C88.0997 41.4253 86.6388 41.186 85.1679 40.939C85.0879 40.7229 86.989 40.9931 88.0497 41.0471C89.3104 41.3095 89.1704 41.4485 89.5706 41.6337V41.6414ZM77.3031 39.5651C76.4526 39.4107 76.6827 39.3644 76.5326 39.2795C75.7221 39.1869 74.5214 38.9862 73.0105 38.7006C73.5108 38.7392 73.9911 38.7701 74.0311 38.6774C76.2324 39.1174 79.4044 39.7889 77.3031 39.5651ZM27.9328 38.4073C28.7633 37.6123 29.3637 37.3421 29.4238 37.3807C29.4738 37.4193 29.0135 37.7666 27.9328 38.4073ZM137.21 106.51C137.56 106.371 138.751 106.448 139.011 106.301C141.192 106.224 137.96 106.718 135.379 106.865C133.628 106.772 140.442 106.371 137.22 106.51H137.21ZM230.627 76.8157C231.007 75.9898 231.197 75.8817 231.558 74.9555C231.608 74.9092 231.608 74.9864 231.588 75.1176C231.548 75.2488 231.468 75.4495 231.397 75.6502C231.217 76.0824 231.067 76.5224 230.857 76.9546L230.637 76.8234L230.627 76.8157ZM128.224 43.5634C128.454 43.6869 124.742 43.7487 125.583 43.5634C127.584 43.4245 126.823 43.6483 128.224 43.5634ZM62.6541 36.7246C63.6647 36.7246 68.0374 37.5814 68.7679 37.7666C69.8485 38.0368 64.135 37.0488 62.6541 36.7246ZM59.192 36.138C58.8518 36.1766 56.9806 35.837 55.6698 35.6594C56.0301 35.6131 57.2708 35.7906 57.541 35.7289C58.4715 35.891 58.0413 35.945 59.182 36.138H59.192ZM44.7331 33.7992C45.1434 34.0771 44.2228 34.1466 41.9114 34.1929C41.9314 34.355 45.1134 34.3086 46.174 34.4939C45.5236 34.5634 43.9326 34.5093 42.2216 34.5402C40.5105 34.5556 38.6794 34.6406 37.5287 34.7718C38.1591 34.6174 39.0897 34.4862 40.1203 34.3936C39.8802 34.3009 37.989 34.4862 36.7282 34.6714C37.1185 34.5479 37.8389 34.3395 39.3298 34.2392C38.5694 34.2392 37.3286 34.0616 36.7883 34.3086C35.8277 34.463 36.328 34.3086 36.7983 34.2392L36.8183 34.0925C37.0384 34.1234 37.4887 34.0925 38.0891 34.0462C38.6894 34.0153 39.4299 33.9459 40.2204 33.9073C41.8013 33.7992 43.5724 33.8069 44.7331 33.7992ZM232.958 62.6518C232.958 61.988 233.059 62.1501 233.129 62.0035C233.028 61.3782 232.968 60.4288 232.858 59.2401C233.349 60.7376 233.259 62.7136 233.289 64.8131C233.129 64.5584 233.089 63.362 232.958 62.6518ZM161.124 40.3601C161.745 40.2366 162.545 40.0128 161.174 40.144C162.505 39.6886 164.737 40.09 161.124 40.3601ZM174.112 102.187C173.982 102.11 179.796 100.983 178.445 101.454C176.354 101.871 176.574 101.685 174.112 102.187ZM175.253 38.8473L172.601 39.0943L172.641 38.9476L175.293 38.7006L175.253 38.8473ZM132.757 43.054C133.007 43.1775 127.704 43.5248 129.205 43.2238C131.086 43.0771 131.556 43.1234 132.757 43.054ZM69.6784 37.8747C69.1881 37.5891 71.5095 38.0754 71.6196 37.9519C73.4507 38.3147 71.5696 38.2838 69.6784 37.8747ZM160.994 104.233L162.745 103.986C162.976 104.071 161.885 104.225 161.835 104.325C161.245 104.41 160.664 104.487 160.074 104.565C159.844 104.48 160.924 104.333 160.994 104.225V104.233ZM61.1232 36.1689C60.1926 36.1997 58.4716 35.6208 55.91 35.3275C56.7105 35.343 58.2014 35.5205 60.3527 35.891C60.1526 35.9373 60.4628 36.0376 61.1232 36.1689ZM216.348 89.6828C217.669 89.0422 218.079 88.9187 217.939 89.1965C216.628 89.8681 216.198 89.953 216.348 89.6828ZM170.88 39.1174C169.159 39.3181 169.67 38.9167 171.821 38.8164L171.781 38.963C171.031 39.0248 170.94 39.0711 170.88 39.1251V39.1174ZM142.603 42.0583C141.903 42.2898 137.61 42.5523 135.469 42.7684C135.959 42.668 136.429 42.5754 136.419 42.4751C138.421 42.4751 139.321 42.0968 142.663 41.8421C142.033 41.9579 141.232 42.174 142.613 42.0583H142.603ZM47.1646 34.3472C47.5849 34.2932 48.3654 34.2855 49.8763 34.4399C50.1965 34.6251 48.5555 34.4321 47.1646 34.3472ZM87.3392 106.587C91.6619 107.112 92.6625 107.204 97.0652 107.482C96.8951 107.675 94.2435 107.467 93.3229 107.544C91.9521 107.243 91.0215 107.282 88.0897 106.888C87.3292 107.089 90.261 107.405 93.2428 107.675C90.4311 107.598 84.3374 106.973 78.9241 106.201C79.1242 106.147 78.814 106.07 78.1436 105.931C78.854 105.846 79.9747 106.278 81.6557 106.463C83.667 106.726 80.6651 106.201 82.6664 106.402C82.5763 106.209 81.0954 106.263 79.1642 105.877C79.8146 105.776 84.1973 106.348 85.4381 106.548C82.4662 106.348 86.1285 106.718 84.2974 106.826C85.6482 106.811 87.7295 106.95 87.3392 106.571V106.587ZM105.931 107.976C106.761 107.93 107.942 107.999 109.493 108.046C109.303 108.1 108.562 108.107 108.542 108.177C107.942 108.177 107.351 108.161 106.751 108.138C106.931 108.061 106.611 108.007 105.931 107.976ZM182.758 100.651C183.618 100.481 184.469 100.273 185.329 100.088C185.329 100.134 185.329 100.188 185.319 100.234C184.459 100.42 183.618 100.628 182.748 100.798V100.651H182.758ZM216.048 40.2829C216.298 40.3138 216.638 40.3678 216.959 40.4373C217.279 40.5222 217.599 40.5994 217.849 40.6457C218.68 41.0008 218.83 41.1783 218.47 41.1243C218.289 41.1011 217.989 41.0162 217.589 40.8696C217.189 40.7229 216.678 40.5068 216.048 40.2829ZM167.368 39.403L164.717 39.6809L164.747 39.5342L167.388 39.2564L167.358 39.403H167.368ZM150.578 41.2323C149.147 41.4099 149.067 41.325 147.936 41.4408C148.507 41.3173 149.037 41.2015 147.976 41.2941C148.156 41.1011 150.978 40.9545 151.519 40.9159C151.038 41.0239 150.568 41.132 150.588 41.2246L150.578 41.2323ZM113.085 43.4013C113.175 43.3241 114.136 43.3473 115.266 43.3859C116.397 43.4013 117.718 43.4476 118.518 43.4167C116.927 43.6174 116.057 43.5017 113.085 43.4013ZM117.508 108.007C117.848 108.215 115.156 108.293 113.885 108.2C114.146 108.077 115.486 108.015 117.508 108.007ZM123.011 43.3318C121.56 43.6252 121.36 43.2547 122.171 43.2161C122.711 43.1929 123.261 43.2778 123.011 43.3318ZM105 108.015C104.94 108.115 104.059 108.107 102.839 108.084C101.628 108.038 100.067 107.945 98.6462 107.938C99.3566 108.053 99.7268 108.185 99.3566 108.324C95.9745 108.192 95.054 107.93 95.054 107.752C98.1659 108.3 97.7356 107.899 99.6168 107.853C102.308 108.053 102.889 107.961 104.99 108.023L105 108.015ZM73.4607 38.1371C78.3537 39.2486 75.8722 38.4073 73.4607 38.1371ZM54.4691 34.6328C55.93 34.8412 57.3909 35.0574 58.8418 35.2966C58.3915 35.397 53.9788 34.8875 54.4691 34.6328ZM38.8695 93.4341C40.0403 94.1134 40.8708 94.6074 41.7413 95.0396C42.6018 95.4796 43.4523 95.935 44.7331 96.4444C42.942 95.989 40.0903 94.3141 38.4893 93.6502C36.368 92.4924 39.64 94.0362 38.8695 93.4264V93.4341ZM61.2032 101.909C60.5228 101.832 58.7817 101.469 56.9206 100.952C55.99 100.69 55.0294 100.404 54.1389 100.126C53.2584 99.8407 52.4679 99.5396 51.8575 99.3004C53.6986 99.5937 58.2714 101.361 61.2032 101.909ZM161.255 39.7812C160.254 39.8739 160.784 39.7658 161.275 39.7118C161.024 39.6423 159.073 39.897 157.762 40.0282C158.943 39.704 162.205 39.3258 165.767 38.9476C163.996 39.2255 161.625 39.5342 161.265 39.7812H161.255ZM159.153 104.958L160.914 104.727L160.884 104.873L159.123 105.097L159.153 104.95V104.958ZM72.7503 37.7898C71.1093 37.7358 70.3088 37.1646 72.0299 37.4424C75.0917 38.0214 70.0186 37.3035 72.7503 37.7898ZM207.133 94.3295C207.353 94.1211 209.154 93.5345 210.315 93.0096C209.904 93.2412 209.524 93.4727 209.574 93.5576L207.963 94.1751C208.083 94.0439 207.763 94.1134 207.133 94.3372V94.3295ZM32.9359 90.2617C32.6357 90.2386 30.9047 88.9032 30.7546 88.965C28.7233 87.429 31.6151 89.3278 32.9359 90.2617ZM73.881 105.035C76.8928 105.522 74.7915 105.483 78.0936 105.993C76.8528 105.954 73.901 105.298 73.6308 105.344C71.1193 104.781 74.3113 105.252 73.881 105.035ZM103.049 108.293L104.83 108.347L104.76 108.486L102.969 108.432L103.039 108.293H103.049ZM21.4889 45.1149C20.9686 45.9639 20.6984 46.4348 20.3982 47.1835C20.2581 47.5617 20.108 48.0094 19.9179 48.6192C19.7778 49.2367 19.5377 50.0008 19.3676 51.0274C19.2775 50.7187 19.0974 51.4983 18.9273 52.3319C18.6772 52.1235 18.8673 50.626 18.5271 50.6878C19.0374 49.8387 19.6177 47.2684 20.5183 44.536C20.9986 43.7178 20.8485 44.2658 20.5483 45.0994C20.2982 45.9485 19.958 47.0986 19.9379 47.4845C20.2782 47.3533 20.9986 44.2349 22.0993 42.9459C22.1993 43.0154 21.9392 43.5402 21.739 44.0651C21.5489 44.59 21.3588 45.1072 21.4989 45.1149H21.4889ZM186.16 100.481C189.212 99.8252 188.261 100.188 191.293 99.3312C190.763 99.5242 190.252 99.7172 191.293 99.4779C190.442 99.7866 189.162 100.095 188.091 100.296C187.02 100.489 186.15 100.566 186.15 100.481H186.16ZM79.7946 38.9399C78.784 38.7469 79.1542 38.6929 79.0742 38.6003C79.9447 38.7546 80.8152 38.909 81.6858 39.0634C81.3155 39.0943 80.0848 38.8936 79.7946 38.9399ZM174.012 102.982C175.563 102.766 174.122 103.09 173.982 103.198C172.441 103.407 173.872 103.09 174.012 102.982ZM179.236 102.017C182.227 101.701 176.274 103.029 173.942 103.492C174.132 103.113 180.927 102.048 179.236 102.017ZM232.598 75.4649C232.858 74.7162 232.898 75.0713 233.149 74.1296C233.349 74.6622 232.548 76.9083 231.568 78.3209C231.528 78.1742 231.998 77.4564 232.258 76.7385C232.528 76.0284 232.768 75.3723 232.608 75.4649H232.598ZM57.4209 34.5711C58.8818 34.8412 57.8612 34.8026 56.4503 34.5711C56.2502 34.602 56.7505 34.6869 57.2808 34.7718C57.4109 34.849 56.9006 34.7718 56.3603 34.7023C55.7699 34.6174 55.1895 34.5325 54.6092 34.4476C54.5391 34.2006 56.5604 34.4167 55.7599 34.1851C59.0419 34.3704 55.4097 34.5171 57.4209 34.5788V34.5711ZM46.6443 33.6062C46.5643 33.4519 47.4948 33.4287 49.426 33.6217C48.4454 33.5985 49.0058 33.8301 46.6443 33.6062ZM30.1742 35.7675C30.7546 35.4356 30.9647 35.2272 30.8846 35.1268C31.395 34.9339 31.8152 34.7872 32.1754 34.6637L33.156 34.4167C33.7464 34.2623 34.2967 34.2006 35.1172 34.0231C34.8971 34.1697 33.3962 34.4862 33.3962 34.4399C32.0854 34.8875 32.6557 34.8026 30.1742 35.7675ZM24.0204 83.338C25.3212 84.3723 23.8904 83.7857 22.3694 81.6167C22.2093 81.5164 22.4495 81.8715 22.7497 82.2265C22.7697 82.35 22.4495 82.0258 22.1793 81.6476L21.2988 80.4126C21.2087 79.7102 22.4695 81.6862 23.1199 82.1571C23.6002 82.7205 23.3901 82.6279 23.4301 82.7746C23.8403 83.2763 23.9304 83.3149 24.0104 83.338H24.0204ZM28.1029 87.0662L29.3637 88.0542L29.1936 88.1159L27.9228 87.1279L28.0929 87.0662H28.1029ZM155.531 105.776C156.111 105.699 156.702 105.63 157.292 105.553C157.132 105.653 157.462 105.653 158.143 105.583C157.852 105.715 155.921 105.938 154.59 106.093C155.071 105.985 155.541 105.869 155.521 105.776H155.531ZM120.6 42.6989C122.281 42.6757 121.77 42.7607 120.87 42.8224C119.969 42.8687 118.668 42.8919 118.788 42.7838C116.107 42.6294 120.67 42.8919 120.6 42.6989ZM106.271 42.3902C103.449 42.1818 103.409 41.9811 100.147 41.68C100.467 41.5797 104.079 42.0583 103.799 41.8344C104.57 42.0351 107.011 42.2049 106.271 42.3902ZM70.3488 37.0565C67.7072 36.4776 64.9655 35.8833 60.883 35.204C61.2733 35.1268 60.853 34.9725 59.282 34.7255C61.2032 35.0265 65.3958 35.6517 67.1769 36.0376C66.7366 36.0376 65.9661 35.9605 64.4652 35.6903C64.4752 35.9296 70.9192 36.8635 70.3488 37.0565ZM20.9185 79.1082C21.2487 79.6485 21.2287 79.7102 21.1887 79.7565L20.9986 79.7797C20.5883 79.1082 20.3682 78.6759 20.1781 78.3131L19.7378 77.163C19.8379 77.2402 20.058 77.7342 20.2882 78.2128C20.5583 78.6759 20.8285 79.1159 20.9085 79.1159L20.9185 79.1082ZM234.299 64.3963C234.319 62.5592 234.309 61.3937 234.559 61.6561C234.589 62.922 234.71 63.169 234.659 64.4889L234.299 64.3963ZM74.7315 37.8052C72.25 37.2804 73.831 37.5274 74.0611 37.3961C76.7528 37.8438 77.173 38.0445 79.2143 38.415C79.2243 38.6234 73.5908 37.2958 74.7315 37.8052ZM18.2669 66.1561C18.1468 68.464 17.9567 63.5935 17.9467 62.6364C18.0868 62.5052 18.0968 63.3002 18.1168 64.1724C18.1468 65.0446 18.1669 65.9863 18.2769 66.1561H18.2669ZM49.9763 98.9376C51.2571 99.4161 52.4879 99.8638 53.4685 100.25C54.4491 100.62 55.1995 100.914 55.4797 101.107C53.6786 100.582 52.3978 100.095 51.5073 99.7326C50.6167 99.3698 50.1264 99.1151 49.9663 98.9376H49.9763ZM29.1336 88.1468C30.7045 89.3818 29.0335 88.4092 28.7934 88.278C27.9929 87.5988 27.9128 87.4598 27.0823 86.6957C27.3125 86.796 28.9935 88.1854 29.1336 88.1468ZM89.4605 107.721C90.5412 107.86 91.2316 107.992 91.1115 108.1C90.0409 107.961 89.3405 107.83 89.4605 107.721ZM229.716 81.8715C228.856 82.9444 228.606 82.9366 228.506 82.9289C227.335 84.0481 227.935 83.8552 226.154 85.2523C224.873 86.1168 225.974 85.1442 225.934 84.9204C226.895 84.6348 228.576 82.6202 229.716 81.8637V81.8715ZM26.4619 37.5814C25.7515 37.9442 24.2606 39.5574 24.5107 39.0094C25.9616 37.4965 26.7721 37.126 26.4619 37.5814ZM17.9667 60.56C17.8567 62.5669 17.7766 61.9185 17.7466 61.0849C17.7466 60.2513 17.8066 59.2479 17.9667 60.56ZM32.2855 90.5782C33.8365 91.5276 34.797 92.1605 35.7977 92.7472C36.298 93.0405 36.7883 93.3492 37.3686 93.6734C37.959 93.9899 38.6394 94.3372 39.4699 94.7463C38.1191 94.5533 34.2767 92.1142 31.2649 90.2617C31.8552 90.6013 32.1854 90.6708 32.2755 90.5705L32.2855 90.5782ZM92.8826 108.277C94.3735 108.146 94.5136 108.532 93.7031 108.478C93.1728 108.447 92.6325 108.3 92.8826 108.277ZM233.269 53.2273C232.568 50.9271 233.729 54.0146 233.759 53.9528C233.959 54.5549 233.909 54.6089 233.859 54.6475C233.999 55.5892 233.939 55.1955 233.799 54.578C233.649 53.9683 233.389 53.1423 233.259 53.2273H233.269ZM115.336 42.4905C113.415 42.4673 113.685 42.3438 113.655 42.2358C114.546 42.2589 115.426 42.2898 116.317 42.2898C115.817 42.3438 115.336 42.3979 115.336 42.4905ZM93.3129 40.4913C93.3129 40.4913 92.9226 40.638 92.3423 40.4913C91.0715 40.1903 98.7262 40.8927 93.3129 40.4913ZM46.9145 33.1354C46.6843 33.1971 45.4836 33.1354 44.2628 33.0968C43.0421 33.0428 41.7913 33.0351 41.4911 33.0042C42.4117 32.8035 44.2929 33.0582 46.9245 33.1354H46.9145ZM144.774 107.397C145.425 107.173 147.456 107.235 148.297 107.189C146.906 107.559 145.825 107.328 144.774 107.397ZM234.78 65.94C234.95 68.1707 234.339 68.217 234.78 65.94ZM176.524 103.523C176.504 103.453 175.463 103.669 174.783 103.77C177.184 103.252 178.855 102.766 173.932 103.7C174.693 103.476 176.764 103.083 178.325 102.751C177.995 102.928 178.995 102.766 180.046 102.558C177.935 103.268 180.977 102.589 176.514 103.584C175.523 103.754 176.034 103.6 176.514 103.515L176.524 103.523ZM102.669 109.049C103.529 109.157 105.39 109.304 107.331 109.396C109.273 109.466 111.314 109.443 112.525 109.319C115.456 109.427 110.583 109.489 111.474 109.659C108.832 109.659 106.981 109.597 105.62 109.458C104.26 109.342 103.379 109.196 102.669 109.049ZM137.63 108.077C139.161 108.023 139.871 108.146 138.431 108.362C137.18 108.223 136.78 108.316 133.107 108.617C133.457 108.439 137.03 108.27 137.63 108.077ZM189.582 100.474C188.591 100.775 187.621 101.053 186.52 101.33C185.419 101.608 184.199 101.94 182.648 102.249C183.658 101.948 184.479 101.685 185.499 101.415C186.52 101.137 187.761 100.883 189.572 100.474H189.582ZM188.161 36.4004C187.961 36.2229 189.482 36.1071 191.823 36.0685C190.392 36.1689 190.392 36.3155 188.161 36.4004ZM57.8011 34.0616C61.9637 34.6714 59.132 34.602 57.8011 34.0616ZM17.6866 56.2376C17.6265 56.7007 17.6165 57.1638 17.5765 57.6269L17.3964 57.5729C17.4364 57.1098 17.4464 56.6467 17.5065 56.1835L17.6766 56.2376H17.6866ZM49.376 99.4084C50.5967 99.9101 52.1977 100.474 53.4785 100.96C54.7793 101.415 55.7499 101.794 55.6898 101.925C53.0782 101.06 53.5886 101.508 50.5567 100.366C49.6161 99.7635 49.2059 99.7172 49.376 99.4007V99.4084ZM194.505 36.0454C194.825 35.9373 196.786 35.9913 198.137 36.0068C197.807 36.1689 195.666 36.1071 194.505 36.0454ZM182.838 36.5625L180.166 36.7555L180.206 36.6165C181.097 36.5548 181.987 36.4776 182.878 36.4236L182.838 36.5625ZM17.4064 67.3294C17.4964 68.4563 17.3864 68.5026 17.4264 69.3903C17.3464 69.2436 17.2963 68.6724 17.2063 68.657L17.1362 67.2676L17.4064 67.3294ZM23.4701 84.1639C21.9392 82.8286 21.709 81.6939 23.4701 84.1639ZM64.4452 104.071C65.0156 104.225 65.5859 104.356 66.1663 104.487L66.0562 104.611C65.4758 104.48 64.8955 104.348 64.3251 104.194L64.4452 104.078V104.071ZM179.316 36.6783C179.005 36.7864 177.074 36.9253 175.733 37.0488C176.294 36.9407 176.844 36.825 175.773 36.9021C176.704 36.6088 178.125 36.7786 179.316 36.6783ZM84.5175 107.922C83.4268 107.853 82.146 107.706 80.8853 107.521C79.6245 107.336 78.3837 107.158 77.3731 106.942C78.854 107.143 80.1448 107.266 81.3155 107.444C82.4763 107.621 83.5169 107.776 84.5175 107.922ZM205.412 36.3232C205.602 36.4004 200.499 36.0299 202.75 36.0222C202.57 36.0222 203.24 36.0917 203.951 36.1611C204.661 36.2152 205.412 36.3232 205.412 36.3232ZM21.2688 81.7866C21.9792 82.7823 22.6096 83.4847 22.9498 84.0096C23.33 84.5113 23.4901 84.7969 23.4001 84.8895C20.7084 81.6862 21.2788 82.3963 20.4282 81.9023C19.8579 80.7291 19.7278 80.7137 19.0274 79.9186C18.9573 79.6485 18.6672 79.1082 18.467 78.645C18.2969 78.1588 18.1869 77.7651 18.327 77.8269L18.7172 78.7068L19.1975 79.5558C19.5177 80.127 19.8379 80.6905 20.2381 81.2154C20.4483 81.3543 20.3282 81.115 20.068 80.7214C19.8079 80.3277 19.4977 79.7257 19.1875 79.2008C19.2575 79.0233 19.7078 79.8723 20.2181 80.6442C20.7685 81.4006 21.2988 82.1107 21.2487 81.7788L21.2688 81.7866ZM66.8667 104.858C66.9868 105.066 65.4758 104.812 63.2445 104.202C64.075 104.302 64.7054 104.364 66.8667 104.858ZM18.377 48.3104C17.2563 53.1501 16.4558 58.4528 16.4958 63.6553C16.1256 61.5172 16.5659 57.6424 16.716 55.1878C16.846 54.0454 16.1156 56.199 16.6559 52.9494C16.836 53.3893 17.1362 53.1192 16.8961 55.2496C17.5765 52.6175 17.1863 51.5677 17.1262 50.8653C17.3364 50.2169 17.6866 49.2675 17.8367 48.982C18.0068 48.6964 17.9067 49.0591 17.5465 51.0429C17.7366 50.626 18.0268 49.6072 18.377 48.3181V48.3104ZM31.9253 91.5122C31.505 91.3732 30.8446 91.0182 29.6739 90.1768C29.5438 89.8681 30.7846 90.8252 31.9253 91.5122ZM134.338 40.6226C134.968 40.638 135.909 40.5994 136.95 40.5454C136.309 40.8001 135.088 40.6457 133.417 40.831C132.727 40.6612 134.868 40.5068 135.279 40.337C137.08 40.1594 135.038 40.5608 134.338 40.6226ZM38.3592 95.4256C36.308 94.6382 35.5375 93.6811 38.3592 95.4256ZM185.73 35.752C184.199 35.8678 184.048 35.7984 183.978 35.7212C184.739 35.6903 184.839 35.644 184.899 35.5977C185.95 35.5436 185.609 35.6826 185.73 35.7598V35.752ZM114.086 41.3404C115.196 41.2632 116.227 41.325 116.457 41.3713C116.697 41.4176 116.137 41.5025 114.086 41.3404ZM95.6443 39.8816C100.237 40.3061 92.7626 39.3258 95.6443 39.8816ZM22.1993 83.724C24.0705 85.808 21.8791 83.7471 23.0198 84.9744C22.4995 84.7969 20.8485 82.2497 22.1993 83.724ZM33.8365 92.971L35.3274 93.8123C35.1272 93.7737 35.5375 94.013 35.9978 94.2755C35.4174 94.0439 34.5269 93.6039 33.5363 93.0945C32.5757 92.5465 31.515 91.929 30.5645 91.3655L30.8146 91.2574C31.8452 91.6974 33.5963 93.2412 33.8465 92.9787L33.8365 92.971ZM39.8902 96.1897C41.181 96.7686 41.171 96.8612 42.1716 97.3321C41.8914 97.3166 39.8001 96.2592 39.67 96.3286C38.5293 95.7575 40.0703 96.4136 39.8902 96.1897ZM63.5547 34.3164C62.544 34.1234 62.9143 34.0771 62.8342 33.9767C63.9949 34.1851 65.1657 34.3936 66.3264 34.602C66.1262 34.6483 64.6954 34.3627 63.6547 34.1929L63.5547 34.3164ZM160.004 37.7435C162.575 37.5505 165.307 37.1105 169.76 36.7092C172.541 36.3541 169.7 36.3155 174.323 35.8447C173.232 36.5008 180.696 35.4201 181.337 35.7598C179.125 35.9605 176.944 36.1611 173.262 36.578C173.662 35.9682 162.115 38.0059 160.004 37.7435ZM73.1806 36.0145C71.4295 35.7057 69.8885 35.0805 68.0174 34.9802C66.8167 34.6251 66.5865 34.3781 66.6666 34.162C69.6784 34.9184 74.6915 36.1225 78.6739 36.6011C79.6545 36.9562 78.0836 36.7169 79.3443 37.0102C77.0329 36.7632 75.1217 35.999 73.1806 36.0145ZM133.578 40.2675C134.638 40.2135 136.669 39.8121 134.518 39.9896C138.671 39.3335 143.404 39.2718 149.497 38.5539C148.967 38.7701 142.363 39.4339 146.786 39.1174C144.054 39.6191 139.561 39.8121 138.01 39.8353C136.639 39.9896 137.93 39.9202 138.871 39.8275C136.76 40.09 133.538 40.445 130.356 40.7075C127.174 40.9622 124.012 41.1474 122.071 41.1474C122.721 41.0625 128.975 40.7306 125.683 40.7229C125.863 40.6843 132.187 40.3293 133.588 40.2829L133.578 40.2675ZM44.7832 31.8464C43.7325 31.8078 44.3029 31.7692 44.8232 31.7769C44.6331 31.6843 42.9921 31.6611 42.952 31.7383C41.4811 31.7229 43.8326 31.6071 42.0615 31.6071C42.5118 31.4373 45.7438 31.6071 45.0333 31.3601C46.4042 31.4527 47.3347 31.5762 48.6856 31.7229L48.5655 31.9236C49.8863 32.0934 49.346 32.0548 48.6455 31.9699C47.9351 31.8927 47.0546 31.7692 47.725 31.7229C44.6731 31.6148 47.6549 31.885 44.7932 31.8387L44.7832 31.8464ZM16.1656 67.7308C16.2157 66.9898 16.1756 66.2719 16.1156 65.3997C16.0456 64.5275 15.9855 63.5009 16.0456 62.1424C16.1656 62.374 16.4858 68.0241 16.1656 67.7385V67.7308ZM16.4258 69.1587C16.3457 69.7917 16.5859 71.7213 16.2957 71.1887C16.3257 70.5635 16.1456 68.6261 16.4258 69.1587ZM207.603 35.9373C203.14 35.4279 210.345 35.7289 204.201 35.1577C204.581 35.0805 205.882 35.2117 206.172 35.15C209.194 35.6054 206.772 35.5514 209.614 35.9682C209.504 36.0917 207.073 35.6594 207.603 35.945V35.9373ZM181.357 35.6903C182.938 35.4356 186.06 35.2195 189.512 35.1037C188.111 35.4665 185.659 35.3661 181.357 35.6903ZM16.6159 74.091C16.746 74.2222 17.7466 77.3251 17.0862 76.3449C17.2163 76.8466 17.4464 77.3251 17.6565 77.8114C17.8066 78.4598 17.5565 77.8346 17.2163 76.916C16.9761 75.9589 16.6559 74.7085 16.6159 74.091ZM153.82 38.4227C151.639 38.6697 149.557 38.9013 148.537 38.9244C149.777 38.7392 155.091 37.921 153.82 38.4227ZM20.3582 41.68C20.3182 41.9579 19.4276 43.4399 18.9974 44.4974C18.8173 44.3044 18.337 45.578 18.6972 44.3121C19.1875 43.162 19.3676 42.9613 19.5477 42.8224C19.7178 42.6835 19.8579 42.5908 20.3582 41.68ZM168.939 36.5085C168.619 36.686 164.727 36.9639 165.427 36.7323C167.859 36.4236 167.178 36.686 168.939 36.5085ZM157.422 37.7435C157.902 37.6354 158.373 37.5274 158.353 37.427C159.153 37.4116 161.615 37.0874 160.954 37.3498C158.543 37.6045 159.153 37.6663 157.422 37.7358V37.7435ZM177.855 35.6749L176.064 35.8292L176.104 35.6826L177.895 35.5282L177.855 35.6749ZM71.8898 35.1268C72.33 35.1268 73.1005 35.204 74.5914 35.4896C74.8816 35.698 73.2606 35.3738 71.8898 35.1268Z" fill="#1684C8"/>
<path fill-rule="evenodd" clip-rule="evenodd" d="M77.5832 40.4682C79.7045 41.0008 74.111 39.8121 73.2805 39.6037C74.4913 39.6114 76.5625 40.2598 77.5832 40.4682Z" fill="#1684C8"/>
<path fill-rule="evenodd" clip-rule="evenodd" d="M19.8879 48.241C19.9279 48.4108 19.7378 48.9434 19.6978 48.9202C19.5377 49.4914 19.5677 49.5763 19.6077 49.6381C19.3476 50.5489 19.2575 50.1166 19.0974 50.1784C19.1574 50.0549 19.3976 49.2367 19.5677 48.7041C19.7578 48.1715 19.8579 47.9091 19.6077 48.8893C19.6578 49.0437 19.7378 48.6578 19.8779 48.2487L19.8879 48.241Z" fill="#1684C8"/>
<path d="M230.498 49.785C230.498 74.595 181.858 90.615 122.168 94.705C64.2478 98.665 15.4278 73.615 17.5678 48.905C20.7278 12.575 62.4378 13.185 122.168 9.71503C175.228 6.63503 230.498 12.355 230.498 49.785Z" fill="#BEDFF4"/>
<path fill-rule="evenodd" clip-rule="evenodd" d="M67.8297 12.71C62.7897 12.3 59.6797 13.74 56.3397 13.18C56.7397 13.55 54.6897 14.38 52.5997 15.13C50.5097 15.92 48.3797 16.64 48.4897 16.63C48.1397 16.7 48.4697 15.9 47.5697 16.13C47.6397 16.11 47.3897 16.89 46.9097 17.05C45.8897 17.4 46.0197 16.51 45.1697 16.77C45.1697 16.77 45.1297 16.95 45.0297 17.17C44.9297 17.38 44.7797 17.62 44.5397 17.72C43.5397 18.14 41.3797 18.14 40.6297 19.03C40.3997 18.51 40.3897 17.79 38.7597 18.57C38.8797 19.06 39.3597 19.19 39.8597 19.32C38.7397 18.89 37.7997 19.45 36.9397 20.04C36.0597 20.61 35.3197 21.35 34.4397 21.36C35.6897 20.84 36.2797 19.87 34.9097 20.31C32.6697 22.18 31.1297 21.91 31.6897 23.34C30.8197 23.71 30.1197 24.12 29.4697 24.48C28.8297 24.85 28.2397 25.16 27.7597 25.57C27.2597 25.97 26.8097 26.38 26.3697 26.85C25.9297 27.32 25.5697 27.92 25.1797 28.59L24.2197 27.51C24.0397 27.85 23.8097 28.21 23.5197 28.58C23.2597 28.98 22.9697 29.4 22.6397 29.84C22.3197 30.28 21.9397 30.71 21.6097 31.18L20.6197 32.61C19.9097 33.53 19.4197 34.53 18.9597 35.33C18.4897 36.13 18.2797 36.84 18.2397 37.24C18.7797 36.87 18.4997 38.03 17.9697 39.29C17.5397 40.57 16.8097 41.99 16.1897 42.07C16.3797 43.32 16.2797 44.52 16.1297 45.73C16.0797 46.34 15.9997 46.94 15.8997 47.55C15.8197 48.17 15.6597 48.74 15.6297 49.43C15.2497 52.06 15.6797 54.89 17.2497 56.97C16.9197 58.24 17.6497 60.91 19.1197 63.03C20.4997 65.21 22.3997 66.87 23.3797 67.21C23.4697 68.2 23.9697 69.13 24.6997 70.06C25.4097 71.02 26.4297 71.87 27.5197 72.78C29.7597 74.53 32.4297 76.24 34.8097 78.28C36.2797 79.58 36.6997 79.85 37.1797 80.03C37.6597 80.21 38.1997 80.32 39.9797 81.12C46.0697 83.77 51.5397 88.63 49.0497 85.36C51.9397 87.24 55.2797 88.32 58.6397 89.25C62.0197 90.13 65.4197 90.88 68.6597 91.98C68.7797 92.02 67.6797 92.45 67.6097 92.45C71.5497 93.69 73.6897 92.71 77.5797 93.77C78.9697 94.13 79.0697 94.92 80.6297 95.13C82.6397 95.35 83.9497 94.63 84.9597 94.79L84.7897 95.49C87.6497 96.04 91.1097 96.25 94.4797 96.4C97.8497 96.55 101.14 96.68 103.73 97.16C105.3 96.96 107.11 96.87 107.96 96.26C108.5 96.55 112.48 97.18 112.89 96.34C112.43 96.34 111.98 96.05 112.92 95.98C118.59 97.11 124.87 96.08 131.74 94.8C130.85 94.78 129.78 94.35 130.92 94.14C137.04 95.61 145.31 92.29 154.44 91.34C159.65 90.77 164.31 90.41 167.3 88.9C167.58 89.84 172.46 88.83 174.6 88.19C174.67 88.17 174.83 87.48 175.3 87.3C178.31 86.18 181.24 86.43 184.1 85.57C185.72 85.06 186.43 84.23 187.9 83.79C192.09 82.61 197.05 82.33 200.19 79.35C203.18 79.07 204.01 78.45 205.35 76.85C205.48 77.66 206.36 77.67 207.95 76.84C208.02 76.13 206.52 76.49 207.56 75.83C210.2 75.4 214.57 72.6 220.27 68.62C220.25 68.27 219.88 68.01 220.48 67.51C222.8 65.95 224.64 64.37 225.93 62.8C226.51 61.96 227.03 61.19 227.25 60.34C227.46 59.49 227.56 58.69 227.32 57.85C228.26 57.13 229.27 57.06 230.22 56.67C230.39 56.02 230.49 55.44 230.55 54.92C230.63 54.4 230.55 53.88 230.54 53.39C230.54 52.4 230.37 51.38 230.47 49.93C229.77 49.93 229.29 50.37 228.94 51.05C228.75 51.39 228.66 51.8 228.48 52.24C228.3 52.69 228.15 53.18 228 53.71C227.32 55.81 226.09 58.44 224.17 60.14C224.07 60.56 224.28 60.82 224.35 61.17C224.43 61.52 224.34 61.94 223.55 62.61C222.92 62.39 223.63 61.13 222.79 61.85C223.01 62.41 222.68 62.66 222.22 62.9C221.75 63.14 221.1 63.36 220.72 63.97C222.4 65.38 218.97 65.92 217.42 67.17C216.7 68.18 217.52 69.03 215.58 70.19C215.39 69.76 216.19 69.21 215.71 68.82C210.99 72.24 206.97 74.23 203.27 75.82C199.56 77.39 196.09 78.52 191.92 79.58C192.68 80.35 190.51 80.78 189.87 81.35C188.62 80.85 187.55 81.4 186.52 81.94C185.49 82.46 184.5 82.96 183.51 82.39C183.39 82.71 183.62 83.09 182.87 83.3C177.98 83.77 174.49 84.73 171.88 86.19C171.05 85.96 167.16 85.87 166.27 86.9C167.22 86.78 168.52 86.43 168.7 86.82C164.44 87.36 163.55 87.52 158.28 88.23C158.12 88.54 158.32 88.94 157.53 89.07C150.43 89.36 143.27 90.69 135.67 91.91C128.07 93.09 120.02 94.35 111.46 93.83C109.6 93.67 110.47 94.85 108.93 94.85C107.76 93.26 99.9797 94.58 96.0497 93.36C96.0697 94.15 95.1997 94.42 93.4397 94.15C83.9697 92.08 76.7897 91.62 71.0497 90.02C71.3097 90.27 68.9897 89.87 66.2197 89.06C63.4397 88.28 60.2397 87.08 58.6497 86.17C58.3597 86.51 58.3597 87.15 57.4397 86.87C56.3597 86.1 55.1997 85.53 53.8497 84.99C52.4897 84.48 50.8997 84.1 48.9697 83.74C48.9197 83.58 50.0597 83.45 50.0597 83.45C48.4397 82.52 45.6397 81.25 42.9297 79.92C42.2497 79.59 41.5697 79.27 40.9097 78.96C40.2597 78.63 39.6297 78.31 39.0497 78.02L36.1297 76.57C35.9797 75.79 35.4397 75.17 34.7497 74.59C34.0597 74 33.1797 73.47 32.2797 72.97C31.4097 72.42 30.5197 71.88 29.7897 71.32C29.0797 70.74 28.5597 70.11 28.3897 69.47C27.9997 69.42 27.5797 69.29 27.1597 69.06C26.7497 68.82 26.3297 68.5 25.8897 68.12C24.9997 67.38 24.1997 66.29 23.4097 65.15C21.8797 62.79 20.8497 59.93 20.1897 57.89C19.5297 57.75 19.1097 57.18 18.7897 56.39C18.6097 56 18.5497 55.53 18.4797 55.03C18.4197 54.53 18.3497 54.01 18.3297 53.46C18.2697 51.25 18.6597 48.99 17.7797 46.91C18.3397 46.95 18.4797 46.81 18.7397 45.47C19.3297 42.37 20.4397 39.01 21.8097 36.39C22.0897 35.88 22.3597 35.35 22.6497 34.84L23.6397 33.37L24.1397 32.64L24.7097 31.95L25.8497 30.58L27.1097 29.32C27.3197 29.11 27.5197 28.9 27.7397 28.7L28.4197 28.13L29.7697 27L31.1997 25.99C35.0097 23.34 39.1297 21.6 42.6497 20.21C43.7797 19.79 45.0197 19.6 45.8397 19.54C46.6797 19.51 47.1097 19.62 46.6297 19.74C53.1297 17.92 59.7397 15.5 63.0597 15.08C68.5997 14.36 73.1697 13.77 79.2497 13.17C86.1497 12.51 93.0797 11.74 100.42 11.73C102.32 10.38 117.61 12.64 120.03 9.9C121.86 11.27 121.72 9.69 124.92 9.72C125.04 10.26 124.58 11.06 125.68 11.13C127.62 9.84 129.64 11.03 132.19 10.95C137.14 10.82 143.29 9.94 146.91 9.87C154.24 9.7 162.46 11.77 167.32 10.29C167.38 11.02 168.73 11.18 170.41 11.18C172.09 11.2 174.09 11.1 175.41 11.21C179.82 11.66 184.25 12.48 188.52 13.49C192.79 14.52 196.87 15.77 200.67 17C201.87 17.42 202.85 17.06 204 17.48C205.45 18.07 206.65 18.81 207.78 19.68C208.36 20.1 208.94 20.51 209.57 20.88C210.2 21.26 210.85 21.66 211.62 21.96C211.93 21.81 212.04 21.38 212.73 21.76C216.89 24.02 220.55 26.51 223.68 30.12C224.42 31.05 225.25 31.95 225.89 33.04C226.23 33.57 226.58 34.1 226.91 34.66C227.19 35.24 227.48 35.84 227.78 36.44C227.92 36.74 228.08 37.05 228.21 37.36L228.55 38.34C228.77 39 229.03 39.67 229.22 40.37C229.52 41.8 229.92 43.27 230 44.86C230.61 44.42 231.18 45.16 231.45 46.07C231.69 46.98 231.53 48.03 230.98 48.11L230.89 46.56C230.82 46.08 230.68 45.71 230.47 45.65C230.69 46.59 230.63 47.38 230.6 48.05C230.55 48.71 230.45 49.25 230.31 49.71C231.35 50.48 231.21 48.62 232.09 49.01C232.31 45.91 231.49 44.48 230.87 43.14C231.51 43.07 231.4 42.71 231.21 41.39C230.48 36.38 228.26 32.13 225.06 28.43C221.82 24.73 217.56 21.59 211.97 18.43C211.97 19.12 211.33 18.85 210.54 18.53C209.75 18.2 208.84 17.73 208.43 17.85C208.39 16.98 206.48 16.17 208.38 16.22C204.27 15.05 202.03 14.21 199.67 13.45C197.32 12.71 194.87 12 190.44 11.76C190.68 11.23 192.58 11.98 192.39 11.12C187.99 9.69 190.6 11.27 188.84 11.38C187.23 10.71 187.87 9.61 185.18 9.15C182.49 9.39 185.33 10.87 181.47 10.31L181.73 9.26C174.57 8.96 169 8.53 163.14 8.05C157.29 7.59 151.15 7.11 143.04 7.28C142.28 9.08 146.1 6.84 146.25 8.04C142.65 8.37 133.92 6.29 132.32 8.41C128 8.67 129.26 7.72 128.29 7.07C125.97 8.3 121.66 7.95 120.11 7C120.39 8.63 116.07 7.33 113.58 7.61C113.45 7.63 113.31 8.27 112.74 8.36C110.23 8.78 107.45 8.65 105.37 9.36C105.34 9.3 105.44 8.64 105.4 8.64C100.44 8.66 96.9497 9.04 90.6997 8.89C89.9097 9.6 93.1197 9.98 90.6697 10.33C88.8797 10.37 88.9397 9.51 89.0697 8.61C81.6497 9.42 78.7397 11.22 71.0397 10.92C69.4897 11.11 70.4997 12.17 68.6197 12.24C69.3197 11.41 65.8697 11.16 66.1397 11.79C67.1697 11.82 67.8297 12.06 67.8097 12.68L67.8297 12.71ZM213.05 19.88C213.11 19.88 213.2 19.56 213.26 19.58C215.11 20.45 213.89 20.43 212.82 20.25C211.75 20.07 210.79 19.72 213.05 19.88ZM82.5197 10.44C82.3897 9.67 85.4297 10.1 86.6197 9.84C86.7397 10.61 83.7197 10.17 82.5197 10.44ZM124.96 8.64C129.27 8.01 122.74 8.96 124.96 8.64ZM20.7097 62.92C18.4797 61.82 20.6197 61.88 21.0297 62.75C21.6097 63.87 20.7797 62.97 20.7097 62.92ZM103.77 96.8C102.78 96.59 102.14 96.25 102.27 95.64C103.25 95.85 103.89 96.19 103.77 96.8ZM201.37 77.72C204.21 76.72 199.42 79.44 199.87 78.3C197.93 78.41 200.15 78.23 201.37 77.72Z" fill="#72B2DA"/>
</svg>
