<svg width="250" height="118" viewBox="0 0 250 118" fill="none" xmlns="http://www.w3.org/2000/svg">
<path d="M224.707 45.4995C224.348 45.1819 224.208 44.8411 224.208 44.5002C206.452 29.596 161.526 41.4249 122.919 43.1601C63.3018 45.8326 12.2881 6.31019 18.5164 73.3712C20.283 92.4508 65.1084 111.732 122.909 108.68C182.487 105.527 227.711 92.8458 231.035 74.0529C233.001 62.9213 231.884 54.9502 228.4 49.3262C227.292 47.9861 226.065 46.6925 224.697 45.4995H224.707Z" fill="#1684C8"/>
<path fill-rule="evenodd" clip-rule="evenodd" d="M22.2597 50.9425L21.9995 52.2393L21.8294 52.1775L22.0896 50.8808L22.2597 50.9425Z" fill="#1684C8"/>
<path fill-rule="evenodd" clip-rule="evenodd" d="M25.6119 42.4596C26.0922 41.5797 26.5025 41.186 26.5825 41.2246C26.6426 41.2478 26.3824 41.6646 25.6119 42.4596Z" fill="#1684C8"/>
<path fill-rule="evenodd" clip-rule="evenodd" d="M33.8566 36.8327C33.3863 36.9716 32.916 37.1028 32.4758 37.2804L32.4457 37.1414C32.886 36.9639 33.3663 36.8327 33.8466 36.686V36.8327H33.8566Z" fill="#1684C8"/>
<path fill-rule="evenodd" clip-rule="evenodd" d="M38.4198 35.8755C36.999 36.0376 36.7588 35.9759 35.3079 36.2538C35.1878 36.2229 36.2485 35.9604 37.2391 35.8524C38.2097 35.7212 39.0902 35.7289 38.4198 35.8755Z" fill="#1684C8"/>
<path fill-rule="evenodd" clip-rule="evenodd" d="M67.6273 38.5771C66.8068 38.0754 72.13 39.2564 73.9011 39.457C74.1012 39.7889 69.7085 38.8627 67.6273 38.5771Z" fill="#1684C8"/>
<path fill-rule="evenodd" clip-rule="evenodd" d="M54.6798 36.3618C51.4478 35.9682 51.0475 35.7289 47.8356 35.4819C49.4165 35.4279 54.3696 36.0222 54.6798 36.3618Z" fill="#1684C8"/>
<path fill-rule="evenodd" clip-rule="evenodd" d="M209.945 39.897C209.404 39.789 208.874 39.6732 208.314 39.596L208.454 39.403C209.294 39.5188 210.085 39.7272 210.905 39.8739C211.045 40.0205 210.055 39.8198 209.945 39.8893V39.897Z" fill="#1684C8"/>
<path fill-rule="evenodd" clip-rule="evenodd" d="M90.6518 42.1586C94.7643 42.9382 92.9432 42.2512 90.6518 42.1586Z" fill="#1684C8"/>
<path fill-rule="evenodd" clip-rule="evenodd" d="M232.068 78.097C232.368 77.2943 232.588 76.7308 232.889 76.2291C233.029 75.9744 233.199 75.7351 233.329 75.4649C233.439 75.1948 233.549 74.9092 233.629 74.5773C233.869 75.3414 232.688 77.6725 231.818 78.8921C231.978 78.4444 232.768 76.8929 232.058 78.097H232.068Z" fill="#1684C8"/>
<path fill-rule="evenodd" clip-rule="evenodd" d="M89.1208 108.933C90.6918 109.142 89.1809 109.065 89.0008 109.134C87.4298 108.926 88.9507 109.003 89.1208 108.933Z" fill="#1684C8"/>
<path fill-rule="evenodd" clip-rule="evenodd" d="M24.9714 35.891C25.6519 35.2195 27.583 33.7529 31.0352 32.6877C30.3447 33.12 27.9332 33.8764 24.9714 35.891Z" fill="#1684C8"/>
<path fill-rule="evenodd" clip-rule="evenodd" d="M21.0891 39.4957C20.2586 40.5763 20.1885 40.5994 19.5982 41.4639C19.4481 41.5488 19.9284 40.7461 20.4087 40.0746C20.939 39.4185 21.4193 38.9013 21.0891 39.4879V39.4957Z" fill="#1684C8"/>
<path fill-rule="evenodd" clip-rule="evenodd" d="M189.222 34.5402C188.311 34.5557 187.411 34.6174 186.5 34.656C186.05 34.5248 188.271 34.4707 188.391 34.355C189.452 34.3318 189.112 34.463 189.222 34.5402Z" fill="#1684C8"/>
<path fill-rule="evenodd" clip-rule="evenodd" d="M229.357 61.2779C229.547 62.3431 229.547 61.7333 229.547 60.9228C229.527 60.1201 229.467 59.1166 229.667 59.4022C229.877 61.5558 229.687 62.6055 229.497 63.2693C229.577 65.9246 229.457 67.3757 229.347 68.7728C229.297 69.4752 229.206 70.1622 229.116 70.9803L228.936 72.3388L228.826 73.1261L228.656 73.9057C228.536 73.8903 228.546 73.5584 228.556 73.2265C227.906 75.6656 226.425 78.2359 224.394 80.4049C222.372 82.5739 220.091 84.4032 218.46 85.6305C215.218 87.7068 209.885 90.0765 204.531 91.9521C201.299 93.3029 197.467 94.6151 193.595 95.6957C189.712 96.7763 185.78 97.61 182.398 98.1657C180.987 98.706 186.6 97.4324 184.069 98.0808C181.827 98.4513 177.905 99.1228 174.723 99.833C174.143 99.6168 169.91 100.744 167.859 100.867C166.048 101.369 160.885 102.218 157.422 102.504C155.241 102.828 154 103.461 151.239 103.523C151.929 103.314 153.86 103.175 152.169 103.206C147.727 103.692 151.929 103.484 148.597 103.878C146.956 103.962 145.575 104.024 143.384 104.179C140.502 104.696 131.597 105.483 127.444 105.583C128.845 105.506 130.506 105.398 130.136 105.275C128.315 105.344 126.634 105.367 125.133 105.452C123.632 105.545 122.331 105.653 121.28 105.823C121.17 105.746 121.5 105.614 120.48 105.645C118.609 105.761 118.849 106.039 115.987 106.054C114.326 106.07 115.467 105.83 113.436 105.884C112.515 105.993 109.563 105.946 107.422 105.962C105.281 105.915 103.95 105.908 106.291 106.101C105.08 106.062 104.34 106.07 103.62 106.085C103.179 105.931 101.878 105.807 101.168 105.637C95.1043 105.514 90.7316 104.889 87.0193 104.827C88.2301 104.603 83.6373 104.271 81.9162 104.017C81.7061 103.885 80.7755 103.708 81.2358 103.631C78.6942 103.299 76.4829 102.913 74.3916 102.589C72.3203 102.195 70.3491 101.886 68.3879 101.454C64.4455 100.643 60.403 99.6631 55.1698 97.9264C55.1398 98.0885 55.0097 98.2661 53.2687 97.664C53.3187 97.5482 53.6389 97.5559 54.3093 97.7257C49.8166 96.0353 50.1267 96.2823 50.1668 96.483C49.1361 96.0739 48.0855 95.7034 47.0649 95.2712C47.8854 95.3947 46.1743 94.6846 46.6446 94.7C44.7535 93.9281 43.7028 93.4882 42.7122 93.0482C41.7016 92.6314 40.821 92.1528 39.3101 91.2497C39.07 91.3269 37.529 90.447 36.1682 89.6751C34.8674 88.8569 33.7367 88.1545 34.237 88.6254L32.7561 87.483L31.7455 86.742L30.6648 85.8852C29.1239 84.8046 30.1045 85.6691 29.244 85.0439C28.5936 84.4727 27.9331 83.9787 27.4729 83.5387C27.0226 83.091 26.7124 82.7437 26.6824 82.5276C27.4629 83.3612 28.6936 84.1331 27.5329 82.9289C27.2127 82.8903 26.8325 82.4967 26.4122 81.9872C26.032 81.4624 25.6417 80.8294 25.2015 80.3432C24.421 79.6948 25.7418 81.6245 24.7412 80.4358C23.3804 78.5215 23.3203 77.8114 23.0502 77.1244C22.9201 76.4066 22.4998 75.7196 21.8394 73.5507C21.8694 73.9906 22.0595 74.531 22.1896 74.9786C22.2997 75.434 22.4098 75.7968 22.4098 75.8817C22.1396 75.2411 22.0095 74.6313 21.8194 74.0678L21.5993 72.4701C21.5392 71.3508 21.5292 70.4092 21.5392 69.6604C20.9689 66.9512 20.8788 63.416 21.139 58.8002C20.9389 58.3216 21.0589 56.8087 21.2791 55.3422C21.4792 53.8756 21.7494 52.4477 21.5692 52.054C21.3091 53.2813 21.4292 53.536 21.229 54.717C21.0189 54.1458 20.8388 55.2882 20.6287 55.211C20.7788 54.4545 20.9689 53.4588 21.229 51.9228L21.4792 52.0154C21.5692 50.5411 21.8494 49.1132 22.3597 47.5C22.9101 45.9022 23.6705 44.0806 25.1414 42.066C25.3215 41.572 24.8413 42.1586 24.441 42.7992C24.0007 43.4167 23.6805 44.096 23.7706 43.5634C23.9507 43.5094 24.1108 43.1389 24.361 42.6835C24.481 42.4596 24.6011 42.1972 24.7412 41.9502C24.9013 41.7109 25.0614 41.4716 25.2415 41.2555C25.6818 40.7615 25.1514 41.5951 26.2721 40.337C26.7424 39.8198 27.633 38.9862 28.5835 38.3224L29.284 37.8438L29.9544 37.4579C30.3446 37.2032 30.7048 37.0565 30.8749 36.9485C31.5454 36.5702 30.4547 36.933 31.5153 36.439C32.4059 36.0145 34.167 35.505 34.5472 35.59C32.1357 36.2924 29.8343 37.3884 27.9932 38.9939C27.0626 39.7889 26.2221 40.6998 25.5217 41.7263C25.1414 42.2203 24.8513 42.7838 24.5111 43.3164C24.2409 43.8876 23.9007 44.4433 23.6705 45.0531C24.2009 44.1886 23.9307 44.8061 23.6105 45.5857C23.2903 46.3653 23.0301 47.3456 23.3603 47.1217C24.0007 45.2306 24.0508 44.5437 25.0414 42.807C25.992 41.4099 26.7524 40.6226 27.5529 39.951C28.3334 39.2718 29.1039 38.662 30.4547 37.8824C30.3646 38.0522 29.5541 38.5154 31.1351 37.7126C31.5954 37.3498 31.1551 37.4888 30.5748 37.7512L29.7142 38.1912C29.4541 38.3301 29.254 38.4459 29.1839 38.4536C29.404 38.1834 29.7343 37.9056 30.3046 37.5428C31.8656 36.8018 32.9862 36.4699 33.8368 36.1611C34.7073 35.891 35.3377 35.6749 36.1182 35.4896C36.7686 35.451 37.1488 35.5359 36.8686 35.7289C37.6591 35.6131 38.2795 35.5282 38.7498 35.4742C39.2201 35.4124 39.5102 35.3584 39.6503 35.3198C39.9305 35.2426 39.5503 35.1654 38.5597 35.1886C41.0112 34.8335 44.4132 34.8644 48.1755 35.2195C51.9479 35.5668 56.0704 36.192 60.1229 36.7555C61.7138 37.4116 68.8582 38.415 70.6193 38.5154C76.1327 39.8198 81.1858 40.2521 89.8611 41.8576C90.3414 41.8498 90.9017 41.8576 91.7723 41.9193C91.432 42.1354 92.4727 42.0583 94.3839 42.3438C92.0824 42.2358 97.866 43.0077 100.488 43.2701C99.0267 43.2392 100.157 43.409 101.858 43.5943C103.559 43.7872 105.831 43.9648 106.631 44.0883C107.962 43.9571 107.692 43.8258 111.404 43.8644C110.304 43.9185 110.264 43.9879 111.264 44.1346C114.286 44.2349 113.796 43.9571 115.957 43.9107C117.548 44.2272 122.551 43.9493 124.052 43.9107C123.242 44.15 125.253 44.0342 124.833 44.2195C131.817 43.7332 131.026 43.7872 137.4 43.3473C138.291 43.1389 134.799 43.3318 137.48 43.0617C142.523 42.6063 146.996 42.4365 149.938 41.7572C149.247 42.0274 151.669 41.7109 151.639 41.8498C149.438 42.1972 142.693 42.7761 142.723 42.915C145.595 42.5677 145.485 42.7452 146.236 42.7684C149.047 42.5291 149.007 42.367 150.708 42.1509C151.699 42.2281 147.897 42.7607 151.529 42.3438C153.15 41.9193 150.698 42.12 156.012 41.6414C156.792 41.3558 154.811 41.5951 155.211 41.379C156.532 41.2478 158.483 40.9931 158.733 41.0625C159.694 41.1783 157.312 41.3867 156.902 41.5488C159.904 41.572 167.018 40.3447 169.25 40.2212C170.48 40.0514 169.45 39.9279 171.091 39.7581C173.052 39.7581 175.784 39.2178 178.115 39.1869C178.495 38.7624 172.552 39.704 172.041 39.3799C175.303 38.9476 175.283 39.2641 178.235 38.7546C180.046 38.8704 189.642 38.2761 183.478 38.5154C187.931 37.8824 194.255 38.415 199.208 38.2915C198.398 38.3764 196.216 38.3996 199.078 38.5617C199.528 38.2375 200.069 38.7006 200.729 38.7701C203.481 38.9785 202.74 38.5385 206.773 39.1329C205.252 38.6929 206.713 38.6929 209.034 38.9708C211.346 39.2718 214.387 40.0514 216.038 40.7383C216.399 40.7075 215.118 40.2829 214.668 40.0591C215.278 40.2443 215.758 40.3987 216.158 40.5377C216.549 40.6843 216.859 40.8387 217.159 40.9699C217.749 41.2401 218.28 41.4639 219.09 41.8962C219.551 41.927 217.96 41.1397 218.74 41.3018C219.691 41.7649 220.271 42.0042 220.621 42.1663C220.961 42.3361 221.121 42.3824 221.262 42.4133C221.402 42.4442 221.532 42.4673 221.822 42.5986C222.102 42.7298 222.582 42.9382 223.273 43.4708C222.612 42.8764 221.882 42.4365 221.462 42.0814C222.142 42.4982 222.843 42.9073 223.443 43.4013C222.582 42.614 222.923 42.668 223.193 42.6757C223.453 42.6912 223.703 42.5908 222.322 41.6337C222.753 41.8498 223.113 42.0274 223.413 42.1586C223.703 42.3053 223.933 42.4288 224.133 42.5137C224.534 42.6835 229.707 50.4176 229.907 50.4176C230.307 50.4022 225.574 42.4905 226.395 42.7452L226.975 43.8953C227.135 43.8953 227.315 44.7405 227.325 44.5784C227.415 44.617 230.887 47.5665 230.887 47.5665C230.887 47.5665 228.131 43.7359 226.775 42.4828C225.419 41.2297 225.424 41.186 223.513 40.2443C223.323 39.9819 222.742 39.5419 221.872 39.0943C221.442 38.8627 220.961 38.6003 220.421 38.361C219.871 38.1449 219.29 37.9133 218.7 37.674C216.299 36.7941 213.607 36.2075 212.236 35.9836C210.225 35.5514 209.124 35.3661 208.053 35.15C206.993 34.9184 205.962 34.7563 204.091 34.4862C204.481 34.8412 203.06 34.903 200.959 34.8875C202.56 34.6869 198.648 34.6406 198.348 34.4939C200.709 34.5865 201.64 34.5093 203.08 34.5479C200.909 34.3858 199.528 34.3395 198.488 34.2237C196.957 34.3472 196.176 34.4862 192.814 34.5248C192.664 34.355 189.832 34.4321 187.341 34.5711C184.849 34.6946 182.708 34.8567 183.829 34.5865C181.887 34.8104 178.445 35.0342 174.863 35.3121C171.281 35.5977 167.559 35.9141 165.027 36.2306C163.766 36.5239 167.249 36.2615 164.957 36.5162C162.376 36.6243 159.174 36.8558 154.401 37.3884C152.94 37.9905 143.614 38.4845 141.092 39.1329C136.52 39.1251 129.285 40.2058 122.681 40.3215C121.37 40.4373 121.24 40.638 119.95 40.7461C119.839 40.6612 118.599 40.692 117.358 40.6998C118.379 40.5917 118.369 40.5454 116.577 40.4836C116.357 40.5377 115.807 40.5608 114.806 40.5377C114.406 40.6534 116.017 40.7383 114.716 40.7461C112.795 40.638 112.485 40.4605 109.583 40.3447C108.472 40.4991 113.646 40.7924 111.154 40.7615C108.923 40.6612 108.162 40.4682 106.892 40.3138C107.062 40.1903 109.803 40.445 109.613 40.2752C105.831 40.0745 101.768 39.7118 99.2268 39.3258C98.6765 39.3644 97.7759 39.3258 96.4951 39.21C92.4327 38.415 88.07 37.8438 83.5072 37.2572C83.9074 37.0951 81.2558 36.5934 77.8037 35.9605C74.3516 35.3275 70.089 34.5634 67.2572 33.9999C67.0471 34.1388 63.7751 33.4673 63.555 33.614C66.5368 34.0694 63.9852 34.1157 62.3843 33.8378C62.4343 33.7529 60.8933 33.5136 60.7232 33.4056C61.5938 33.475 63.9752 33.9459 63.5149 33.6757C59.4425 33.1508 61.2536 33.228 60.0828 32.9424C59.1923 32.7109 53.6289 31.9622 57.5113 32.3867C55.8302 32.0857 53.5088 32.0239 53.9691 31.8001C51.5176 31.5145 48.6658 31.2289 45.8341 31.0899C43.0024 30.951 40.1907 30.9742 37.9193 31.1517C35.9781 31.4527 38.8598 31.3524 38.7298 31.5762C36.5985 31.6148 33.4565 32.1783 36.8586 31.5453C34.217 31.8155 32.6861 32.3326 31.6654 32.8035C30.6348 33.2666 30.0945 33.7143 29.304 34.1697C29.1539 34.0539 28.3234 34.3704 27.5929 34.849C26.8325 35.2966 26.1921 35.8755 26.082 35.999C25.1715 36.5702 24.1008 37.5274 23.9607 37.5505C24.1909 37.2032 24.5511 36.8481 24.9613 36.5008C25.3416 36.138 25.8118 35.8215 26.2621 35.5128C26.6924 35.1963 27.1527 34.9493 27.5229 34.71C27.8831 34.4707 28.1833 34.2778 28.3434 34.1157C25.4716 35.4742 23.6005 37.0642 22.1696 38.4999C20.7588 39.9588 19.7381 41.3173 18.9176 42.6912C18.1071 44.0651 17.4167 45.4622 16.8964 47.0677C16.346 48.6732 15.9558 50.4948 15.7357 52.7101C14.4749 59.3019 15.0853 66.1021 15.7157 71.0961L15.4455 71.0421L15.5656 72.2153L15.6256 72.7942L15.7357 73.4426L15.9458 74.7239C16.0359 75.1407 16.1759 75.5498 16.296 75.9589C16.7563 77.5953 17.5268 79.1004 18.3573 80.4975C20.0683 83.284 22.2897 85.5379 24.5711 87.2669C27.4228 89.9298 30.7149 92.1374 34.1069 94.0362C37.509 95.9273 41.0012 97.5405 44.4933 98.9299C48.7959 100.643 52.6083 101.763 54.6595 102.349C56.9809 103.067 60.8133 104.264 63.1747 104.812C64.3955 105.12 65.4761 105.228 66.7669 105.514C71.0295 106.456 75.8525 107.513 80.1151 107.86C81.1057 108.069 82.4365 108.316 84.5378 108.54C86.9893 108.81 86.9493 108.555 90.0912 108.879C93.1031 109.25 94.8742 109.42 94.4339 109.543C95.5446 109.528 97.1956 109.62 99.0667 109.682C99.9973 109.728 100.988 109.775 101.989 109.829C102.989 109.86 104.01 109.89 104.99 109.929C106.962 110.006 108.823 110.014 110.224 109.983C111.624 109.952 112.585 109.89 112.745 109.736C112.665 109.813 111.564 109.782 111.875 109.667C115.207 109.721 114.846 109.481 116.477 109.404C116.988 109.512 119.94 109.319 120.02 109.443C119.149 109.566 116.688 109.574 117.238 109.744C121.881 109.705 119.849 109.335 122.771 109.203C124.102 109.25 128.575 108.902 129.906 108.879C127.664 109.126 124.302 109.319 123.522 109.589C126.614 109.358 129.355 109.119 131.667 108.833C131.827 108.956 130.616 109.057 130.686 109.18C136.9 108.733 130.746 108.848 134.388 108.517C134.989 108.717 138.431 108.547 141.473 108.161C141.793 108.254 140.102 108.462 141.413 108.378C142.373 108.123 147.897 107.776 146.856 107.521C144.174 107.899 141.373 108.107 140.662 107.953C144.024 107.752 140.922 107.613 144.284 107.42C142.834 107.884 147.656 107.251 148.657 107.266C150.858 106.95 147.106 107.212 149.628 106.888C150.428 106.957 154.18 106.432 153.99 106.679C151.209 106.957 150.828 107.181 147.757 107.428C148.207 107.552 149.788 107.49 151.229 107.413C154.231 106.996 155.391 106.664 157.543 106.24C156.872 106.517 161.735 105.653 161.065 105.923C159.134 106.17 158.223 106.348 158.353 106.487C162.766 105.815 163.556 105.637 166.378 105.089C167.228 105.051 169.34 104.719 169.87 104.758C170.15 104.487 175.914 103.669 176.894 103.592C178.986 103.083 186.26 101.84 189.952 100.574C190.092 100.628 189.802 100.821 190.813 100.582C190.953 100.18 196.446 98.7909 195.946 98.6365C196.987 98.4359 199.188 97.8261 200.179 97.61C200.269 97.4865 200.419 97.3552 201.84 96.9307C202.51 96.3981 199.558 97.3784 198.458 97.5328C202.25 96.4136 202.24 96.2901 202.62 96.0816C203.781 95.7034 203.571 95.9196 204.301 95.7266C199.378 97.3244 204.661 96.0508 201.019 97.3398C202.43 96.9076 203.811 96.4367 205.192 95.9504C207.013 95.2094 204.121 96.1357 205.992 95.441C207.633 95.1091 210.115 93.9822 213.267 92.5928C213.677 92.2609 212.206 92.6005 213.937 91.7978C213.557 92.1528 214.417 91.7978 215.348 91.4118C216.259 90.9873 217.229 90.5242 217.149 90.7171C216.088 91.4041 213.227 92.7549 210.885 93.6966C211.836 93.4727 214.998 92.2377 216.499 91.4659L217.219 90.9873C217.649 90.7017 218.22 90.3698 218.72 90.061C218.56 90.1537 219.831 89.6056 220.261 89.3509C220.701 89.1116 221.041 88.718 222.382 87.8612C225.264 85.9701 226.465 85.0516 227.025 84.2643C228.606 82.9444 227.525 83.971 228.416 83.3689C228.926 82.8981 229.387 82.3886 229.827 81.8637L230.497 81.0842C230.707 80.814 230.897 80.5361 231.088 80.2583C231.148 80.0653 230.978 80.1348 231.428 79.4941C231.528 79.1159 230.877 79.8492 230.367 80.4203C230.117 80.7137 229.867 80.9375 229.777 80.9838C229.667 81.0224 229.777 80.9066 230.067 80.4126C230.627 79.6485 230.417 80.073 230.197 80.5284C232.108 78.0661 232.468 76.5764 232.909 74.9709C233.499 73.3346 233.649 72.362 233.889 71.2119C234.089 70.0618 234.31 68.7805 234.53 66.6733C234.58 67.7539 234.3 69.8302 234.61 69.5987C234.74 67.5764 234.84 66.6424 235 64.6587C234.75 64.9597 234.64 65.7625 234.66 63.1458C234.78 63.2153 234.79 64.0875 234.93 63.9254C235.06 61.44 234.64 63.416 234.64 61.7256C234.72 59.5721 234.53 57.3722 234.009 55.072C233.489 52.7718 232.619 50.379 231.168 47.9168L231.128 47.8473L231.028 47.7238C230.337 46.867 231.428 49.0205 230.597 48.1406C230.627 48.4802 226.945 43.6883 228.206 45.124C230.387 48.7749 229.687 46.6046 230.767 47.855L230.817 47.9168L230.887 48.0248C231.648 49.2058 232.298 50.518 232.689 51.8147C232.158 50.4176 231.688 49.638 231.528 49.4219C231.358 49.2058 231.448 49.5531 231.828 50.4254C231.388 49.4451 230.958 48.7118 230.597 48.1406L230.537 48.048L230.497 48.0017C229.477 46.8516 228.786 46.2881 227.766 45.3773C229.096 46.6509 229.737 47.4922 230.197 48.1483L230.277 48.2641C230.527 48.8276 230.747 49.2598 230.928 49.777C230.677 49.4837 230.317 48.9897 229.957 48.3876L229.937 48.349L229.897 48.3104C229.226 47.5231 231.248 48.7581 230.497 48.0017C229.747 47.2452 226.245 44.5128 225.974 44.4897C227.105 45.6629 228.766 47.3224 229.627 48.4494L229.657 48.4957C229.797 48.7658 229.907 48.982 229.987 49.1672C229.847 48.9279 229.727 48.7118 229.617 48.5265V48.5034L229.577 48.4725C228.676 47.4228 228.286 47.2066 228.206 47.3919C228.496 47.6929 228.886 48.1252 229.296 48.6115V48.6346C230.287 50.1166 231.008 52.0463 230.577 51.7916C230.197 50.819 229.957 50.4485 229.907 50.4176C229.847 50.3868 229.947 50.7109 230.077 51.1664C230.347 52.0772 230.677 53.536 230.627 53.7444C230.357 52.8645 230.357 52.494 229.727 51.1509C229.437 50.9116 229.807 51.7607 230.097 52.5712C230.387 53.3893 230.587 54.1689 230.247 53.7213C230.907 55.5043 231.098 57.1021 231.198 58.3602C231.298 59.6184 231.318 60.5446 231.518 61.0618C231.358 59.1938 231.338 58.5146 231.388 57.9743C231.438 57.4262 231.508 57.0249 231.258 55.7513C231.578 57.0866 231.658 58.0283 231.748 58.9931C231.808 59.9657 231.868 60.9769 231.938 62.5052C231.848 62.5438 231.778 61.4786 231.758 62.4589C231.848 63.1535 231.808 64.6587 231.688 66.1793C231.588 67.6999 231.438 69.2359 231.548 70.0387C231.298 70.2393 230.998 72.0687 230.667 73.3037C230.397 74.3689 230.807 73.7591 230.587 74.7008C229.597 77.4718 230.067 75.4109 229.627 76.4838C229.517 77.0473 229.327 77.2479 229.106 77.5104C228.876 77.7651 228.626 78.0816 228.126 78.8303C227.996 79.2317 228.236 79.3706 227.575 80.2505C227.275 80.4203 226.865 80.9684 226.465 81.4547C226.025 81.9178 225.604 82.3423 225.414 82.3037C226.075 81.6631 226.675 81.0378 226.375 81.1305C225.004 82.6588 223.053 84.4495 220.551 86.1245C218.06 87.8072 215.048 89.3818 211.826 90.6245C209.995 91.5739 213.257 90.2154 211.145 91.2574C210.245 91.6511 209.004 92.1914 207.803 92.6159C206.593 93.0328 205.462 93.4033 204.812 93.5345C200.629 95.2172 195.676 96.5139 192.484 97.3321C192.074 97.6871 196.657 96.3672 194.175 97.2472C199.238 96.0431 204.171 94.0593 206.503 93.5113C205.342 94.0053 204.491 94.3604 203.301 94.8158C202.77 94.9161 202.98 94.7772 202.81 94.7926C202.64 94.8081 202.09 95.001 199.999 95.6726C199.688 95.9041 201.249 95.4719 200.019 95.8887C196.526 96.73 189.642 98.405 188.271 99.0534C190.002 98.4281 186.41 99.4161 188.271 98.6829C184.849 99.5242 184.779 99.4933 185.72 99.0688C183.398 99.5782 184.009 99.5782 182.308 99.8252C181.247 100.296 185.079 99.2772 183.999 99.7403C181.867 100.049 181.117 100.535 177.975 101.13C177.805 100.852 174.903 101.755 172.792 101.94C172.172 102.272 172.852 102.218 171.881 102.45C170.27 102.658 167.699 103.059 168.449 102.666C170.651 102.295 172.532 101.909 174.123 101.57C175.704 101.199 177.004 100.86 178.035 100.551C177.365 100.659 176.334 100.867 176.314 100.798C173.262 101.33 174.163 101.454 171.091 101.948C171.441 101.786 172.151 101.647 171.121 101.732C168.019 102.396 163.436 103.167 161.555 103.137C163.386 102.789 164.877 102.465 166.578 102.125C168.279 101.801 170.2 101.462 172.902 101.076C172.802 101.207 170.691 101.508 171.141 101.593C175.974 100.69 176.644 100.883 178.055 100.265L178.025 100.559C180.547 99.9719 182.468 99.4625 186.58 98.5902C186.23 98.8527 188.121 98.3741 187.421 98.7523C190.433 98.1271 187.931 98.3818 189.952 97.911C193.615 96.9847 197.487 95.9196 199.919 95.0165C200.149 94.7926 198.798 95.2249 198.267 95.3175C199.168 94.947 200.189 94.6228 201.189 94.3372L203.951 93.519C204.171 93.3878 205.072 93.025 206.252 92.5233C207.463 92.0525 208.944 91.4118 210.415 90.7866C213.327 89.5207 216.008 88.1545 216.188 88.2394C215.048 88.8415 214.287 89.1811 213.747 89.4358C213.187 89.6828 212.836 89.8449 212.526 90.1305C213.447 89.7446 214.297 89.3509 215.228 88.8878C216.178 88.4478 217.159 87.8844 218.36 87.182C218.27 87.097 218.82 86.6957 219.611 86.1399C219.691 86.2789 220.411 85.8235 221.142 85.2831C221.852 84.7351 222.622 84.1485 222.953 84.1022C223.383 83.3072 224.494 82.5584 226.615 80.3432C226.705 80.1425 226.865 79.88 227.065 79.5867C227.245 79.2934 227.415 78.9692 227.575 78.6836C227.906 78.1124 228.126 77.6648 227.926 77.796C228.466 76.9315 228.566 76.8852 228.726 76.7385C228.796 76.6613 228.906 76.5687 229.046 76.3217C229.176 76.067 229.357 75.6656 229.657 75.0018C229.226 75.9821 229.096 76.7154 229.567 75.6965L229.867 74.8165L230.077 73.844C230.257 73.1956 230.337 72.3929 230.477 71.6056C230.717 70.0078 230.958 68.2711 231.078 66.5266C231.368 63.03 231.158 59.4717 230.407 56.9477C230.587 57.2256 230.707 57.7581 230.687 56.9786C230.257 55.0566 229.297 53.1578 229.056 51.807C229.256 51.8533 229.767 53.4202 229.837 53.0729C228.536 49.9854 228.966 51.9151 228.946 52.4245C228.636 51.6063 228.606 51.2744 228.526 50.9348C228.466 50.5874 228.396 50.2169 227.906 49.3525C227.846 49.2984 227.786 49.2444 227.736 49.2212L227.816 49.337C227.255 48.9974 227.065 49.0823 227.325 49.5763L227.205 49.4142C227.295 49.7693 227.605 50.3482 228.026 51.2049C227.986 51.2899 227.826 50.9965 227.625 50.6029C227.415 50.217 227.155 49.7615 226.985 49.4914L227.115 49.6766C226.905 49.4528 226.795 49.3833 226.915 49.6689L226.975 49.7461L226.835 49.5454C228.326 52.2624 226.885 50.3636 226.495 49.6689L226.665 49.9005C226.615 49.8387 226.575 49.7847 226.555 49.7461L226.665 49.9082L226.495 49.6766C227.115 50.6646 228.896 54.6398 227.375 51.8379C227.766 52.795 228.326 54.3079 228.716 55.952C229.126 57.5883 229.377 59.3328 229.527 60.645C229.467 60.7839 229.347 60.6295 229.377 61.2625L229.357 61.2779ZM87.0193 37.8438C89.3708 38.0445 90.1312 38.4922 92.983 38.8859C93.023 39.0557 89.8911 38.4768 88.6003 38.3069C89.3408 38.5231 91.7322 38.855 93.6934 39.1329C95.6546 39.403 97.1856 39.6346 96.195 39.7426C93.9636 39.457 95.1643 39.5574 95.4145 39.4956C94.554 39.4648 92.1925 39.0788 92.6728 39.3335C88.8705 38.8241 90.9017 38.7315 86.7892 38.1526C88.5003 38.2915 86.3589 37.9596 87.0293 37.8361L87.0193 37.8438ZM157.392 102.658C159.564 102.411 157.392 102.928 155.601 103.098C155.932 102.967 157.162 102.789 157.392 102.658ZM227.415 77.4795C228.526 75.4958 227.605 77.3946 228.336 76.5224C227.996 77.0859 227.756 77.6879 227.325 78.2282C227.585 77.7574 227.575 77.5181 227.425 77.4795H227.415ZM97.5658 105.668C97.2956 105.522 101.608 105.784 100.157 105.877L98.4163 105.784C98.6064 105.738 98.1061 105.699 97.5658 105.668ZM71.69 102.257C72.8206 102.565 72.0602 102.48 70.6293 102.233C69.2084 101.979 67.1472 101.516 65.6463 101.13C66.1366 101.037 70.5993 102.233 71.69 102.249V102.257ZM21.0489 70.2471C21.129 70.4863 21.199 70.8568 21.2591 71.3277L21.3491 72.1073L21.3891 72.5395L21.4592 72.9486C21.5692 74.3997 21.0089 72.2385 21.189 73.4966C21.119 73.3731 21.0689 73.1725 21.0389 72.9409C20.9989 72.7171 20.9889 72.4237 21.0089 72.0918C21.0289 71.4512 21.0689 70.7565 21.0389 70.2471H21.0489ZM185.75 98.1425C186.75 98.0036 188.722 97.5173 190.793 96.9925C193.445 96.3518 189.312 97.4865 188.281 97.6871C188.121 97.7875 188.612 97.6794 189.112 97.5559C187.861 98.0885 185.34 98.4127 185.75 98.1425ZM208.584 91.3115C210.125 90.7789 209.584 90.9255 211.626 89.9993C212.076 89.9993 207.913 91.8827 208.584 91.3115ZM226.365 80.1425C225.824 81.0842 225.274 81.5318 223.843 82.7668C224.243 82.3423 224.514 81.995 224.904 81.6167L225.564 80.9915C225.814 80.7523 226.055 80.4667 226.365 80.1348V80.1425ZM230.107 71.6905C230.717 69.452 229.737 75.2256 230.107 71.6905ZM21.3791 74.1141L21.7293 75.3105H21.5392C21.4292 74.9015 21.2891 74.5001 21.189 74.0987L21.3691 74.1141H21.3791ZM73.0308 103.029C70.8594 102.828 69.7688 102.118 73.0308 103.029ZM58.8121 99.586C59.9027 99.8947 61.0835 100.227 62.1141 100.52C63.1547 100.79 64.0453 101.037 64.5456 101.215C64.4055 101.222 62.6444 100.844 61.1035 100.412C59.5625 99.9719 58.2117 99.5396 58.8121 99.586ZM183.208 98.9993C182.828 99.1769 182.108 99.393 180.637 99.6863C181.017 99.5165 181.747 99.3235 183.208 98.9993ZM26.6624 83.2068C26.1921 82.8363 25.8619 82.5353 25.6618 82.3269C25.4816 82.103 25.4216 81.9795 25.4416 81.9564C25.4716 81.9332 25.5917 82.0258 25.7818 82.2342C25.992 82.4349 26.2921 82.7514 26.6524 83.2068H26.6624ZM53.879 98.1194C55.1898 98.5439 55.2099 98.6211 56.2405 98.953C56.0304 98.953 55.37 98.7523 55.3099 98.8064C54.7696 98.6365 54.2192 98.4745 53.6989 98.2815L53.8891 98.1194H53.879ZM122.821 106.479C123.011 106.394 123.722 106.394 123.702 106.432C126.744 106.317 127.484 106.101 129.015 106.131C128.725 106.301 125.083 106.371 125.403 106.548C123.352 106.679 124.482 106.402 122.821 106.479ZM146.686 104.711C148.617 104.387 148.047 104.896 152.78 104.333C152.079 104.472 151.799 104.603 151.829 104.719C149.988 104.966 149.508 104.935 148.327 105.028C151.349 104.619 149.818 104.518 145.755 105.012C145.315 104.958 149.227 104.487 146.686 104.703V104.711ZM150.208 104.348C150.368 104.248 151.819 104.101 152.86 103.978C152.84 104.047 152.82 104.125 152.81 104.194C150.848 104.456 151.589 104.194 150.208 104.348ZM23.4704 80.6828C23.4904 80.4049 23.9807 81.0378 24.2809 81.1768C22.5498 79.1082 23.2103 79.7025 21.7994 77.1167C21.8995 77.1862 22.0095 77.3406 22.1696 77.5567C22.3397 77.7651 22.5298 78.0353 22.73 78.344C23.1002 78.9769 23.7106 79.7411 24.3009 80.5438C23.2603 79.3397 23.3303 79.5327 23.7906 80.2197L24.1909 80.814L24.7412 81.4855C25.1214 81.9409 25.4716 82.4349 25.8018 82.7823C25.9019 83.0447 25.4016 82.6433 24.9813 82.1416C24.5411 81.6553 24.0708 81.1228 24.0208 81.2308C23.7706 81.2926 25.5117 82.6896 24.7712 82.3732C24.0007 81.4701 24.0208 81.4161 23.4904 80.6828H23.4704ZM21.0089 74.0833C20.7688 74.1527 20.4085 72.3157 20.5086 71.4821C20.5987 71.5824 20.6687 71.8834 20.7387 72.3543C20.7988 72.8328 20.9289 73.3731 21.0189 74.0833H21.0089ZM29.8343 86.2248C30.0444 86.2557 30.965 87.0739 31.7555 87.5756C31.8055 87.8535 30.4247 86.8269 30.7048 87.3055C30.2045 86.7883 29.4441 86.248 28.6836 85.6768C27.9732 85.0747 27.1927 84.4727 26.7324 83.8552C26.8625 83.9324 28.0932 84.9821 29.0538 85.7926C30.0745 86.5645 30.8049 87.1048 29.8343 86.2325V86.2248ZM113.936 106.865C116.828 107.035 116.718 106.564 113.936 106.865ZM116.567 106.896C119.309 106.857 119.169 106.595 122.801 106.548C121.851 106.788 120.03 107.011 117.348 107.166C117.668 107.305 119.829 107.204 118.989 107.459C120.98 107.258 122.951 107.058 122.731 106.757C125.773 106.656 126.514 106.425 128.054 106.471C128.165 106.618 127.244 106.733 125.323 106.834C125.363 106.764 126.423 106.718 127.114 106.664C127.004 106.587 125.523 106.695 124.472 106.741C125.373 107.089 127.174 106.957 131.417 106.818C131.296 106.942 128.695 107.374 133.078 107.058C132.457 107.351 127.364 107.529 127.794 107.258C118.689 107.853 112.005 108.077 102.859 107.691C102.859 107.474 105.711 107.59 108.482 107.629C109.873 107.644 111.244 107.66 112.225 107.652C113.215 107.637 113.816 107.583 113.676 107.505C114.386 107.374 115.297 107.467 116.337 107.467C117.388 107.305 117.028 107.127 116.557 106.911L116.567 106.896ZM101.048 107.667C97.4757 107.529 98.4764 107.359 94.9142 107.143C97.3056 107.173 92.3026 106.71 95.1443 106.741C96.7853 107.127 99.8772 107.583 102.959 107.474C102.449 107.567 101.558 107.59 101.038 107.667H101.048ZM127.754 107.397C126.574 107.698 130.606 107.282 129.445 107.575C128.115 107.66 125.883 107.513 125.013 107.76C122.441 107.822 126.223 107.467 127.754 107.397ZM131.657 106.031C133.758 106.054 132.657 106.209 132.397 106.471C130.806 106.587 130.556 106.51 128.875 106.633L128.985 106.278C130.246 106.201 131.497 106.124 131.667 106.031H131.657ZM34.9575 89.7832C34.7173 89.8526 33.0063 89.0344 32.0757 88.17C32.1057 87.9307 33.1964 88.6871 34.9575 89.7832ZM84.818 105.344C85.5284 105.213 86.6391 105.653 88.3101 105.769C88.07 105.938 85.3383 105.429 84.818 105.344ZM147.486 104.981L147.396 105.344C144.715 105.252 143.694 105.854 140.292 106.155C140.292 106.085 139.221 106.193 138.541 106.232C140.642 105.869 137 105.962 134.238 106.147C139.291 105.529 142.573 105.514 147.486 104.989V104.981ZM162.255 40.7383C163.866 40.6998 165.477 40.4142 167.549 40.1749C168.99 40.0359 161.165 41.2555 162.255 40.7383ZM22.5899 46.018C22.6399 46.2032 22.2797 47.0214 22.0095 47.8936L21.3391 49.8542C21.6493 48.2564 21.7193 46.8439 22.6399 45.2692C22.4998 45.7401 21.139 49.9391 22.5899 46.018ZM105.921 106.942C109.043 107.096 105.951 107.112 106.611 107.382C104.82 107.282 106.521 107.027 103.199 106.996C103.439 106.903 105.851 107.05 105.921 106.942ZM20.0283 66.6733C19.9182 68.4795 19.4379 65.6621 19.4179 63.8174C19.8282 62.8371 19.6481 67.3757 20.0283 66.6733ZM99.6971 106.757C100.488 106.872 102.949 106.957 102.239 107.104C100.628 106.888 100.027 106.973 97.826 106.865C98.1862 106.795 99.437 106.842 99.6971 106.757ZM68.3579 102.627C70.4692 103.113 70.9095 103.276 72.5205 103.646C71.8901 103.584 70.8294 103.353 69.7988 103.152C68.7782 102.928 67.7776 102.72 67.2472 102.743C66.1366 102.403 66.917 102.457 68.3579 102.635V102.627ZM82.9769 105.252C83.237 105.514 82.0163 105.421 79.3246 104.989C79.3747 105.136 80.7155 105.321 82.1163 105.522C83.5172 105.73 84.9781 105.884 85.2483 106.101C82.6367 105.746 81.2358 105.56 79.8449 105.414C78.4641 105.275 77.1233 105.097 74.6918 104.634C77.2734 104.804 71.5699 103.785 74.2815 103.924C76.3428 104.264 77.4835 104.456 78.6142 104.642C79.7549 104.812 80.8956 104.981 82.9769 105.259V105.252ZM20.6187 74.6545L20.9389 75.7505C21.0289 76.0979 21.199 76.422 21.3191 76.7308L21.6593 77.6184L22.0495 78.398C22.4898 79.3938 22.9501 80.1348 23.2103 80.7291C23.0201 80.3509 22.6099 79.7951 22.2297 79.139C21.8794 78.4675 21.3991 77.7497 21.149 77.0395L20.7387 76.0515C20.6487 75.7428 20.5886 75.4649 20.5486 75.2411C20.4686 74.7934 20.4686 74.5541 20.6287 74.6545H20.6187ZM29.4141 86.3869C29.2339 86.302 28.9938 86.1708 28.6736 85.9547C28.3634 85.7308 27.9832 85.4066 27.4929 84.9744C27.4529 84.8277 27.703 84.9898 28.0632 85.2909L28.6836 85.8235L29.4141 86.3869ZM88.1801 105.962C88.1801 106.193 84.5078 105.722 83.7273 105.56C83.9475 105.429 86.0087 105.707 88.1801 105.962ZM23.2403 44.0497C22.84 44.7444 22.85 44.4819 22.6999 44.5205C23.0201 43.9107 23.3403 43.301 23.7206 42.7143C23.9107 42.614 23.7206 42.8996 23.5605 43.2469C23.3904 43.5943 23.2002 43.9879 23.2403 44.0497ZM20.2785 74.0061C20.1784 73.8903 20.0983 74.1373 20.2384 74.6236C19.9383 74.199 19.9282 73.1339 20.0883 73.35C19.7982 72.663 19.7281 71.567 19.6481 70.4709C19.568 69.3671 19.598 68.2093 19.608 67.2522C19.7882 68.3405 19.8382 69.2977 19.9282 70.3628C20.0183 71.4203 20.0183 72.6321 20.2785 73.9984V74.0061ZM163.226 103.345C160.704 103.785 158.333 104.194 156.152 104.572C157.262 104.194 160.324 103.661 163.226 103.345ZM229.166 77.8654L229.847 76.6382L229.997 76.7308L229.317 77.9658L229.176 77.8654H229.166ZM158.833 40.6226C160.044 40.2907 158.233 41.1166 155.211 41.3713L155.261 41.1552C155.141 41.0857 153.66 41.2709 152.62 41.3713C152.8 41.2941 153.53 41.2015 153.54 41.132L155.301 40.939C155.441 41.1629 158.053 40.8541 158.823 40.6226H158.833ZM103.099 107.204L104.86 107.258L104.8 107.397L103.029 107.343C103.059 107.297 103.069 107.251 103.109 107.204H103.099ZM167.569 102.836C165.858 102.982 166.468 103.021 164.087 103.368C162.766 103.368 168.97 102.411 167.569 102.836ZM199.138 95.6648C197.347 96.4444 193.825 97.1546 199.138 95.6648ZM212.656 90.5782C215.038 89.5593 213.617 90.3852 211.626 91.3887C210.615 91.8672 209.454 92.3612 208.594 92.7086C207.713 93.0327 207.123 93.1871 207.253 93.0173C209.514 92.1605 212.626 90.8483 212.656 90.5859V90.5782ZM232.108 62.5669C231.738 61.3242 232.268 61.4863 232.208 60.5523C232.599 61.795 232.078 61.6407 232.108 62.5669ZM199.228 38.2915C198.368 38.2452 197.497 38.2298 196.616 38.2143C196.667 38.1526 197.707 38.168 198.398 38.1834C197.217 38.0599 195.686 37.9519 199.328 38.0831L199.228 38.2838V38.2915ZM21.8794 46.4039C22.5699 45.0917 22.1296 45.9253 21.7394 46.6741C21.5292 47.0446 21.3591 47.4073 21.3491 47.4536C21.3291 47.5077 21.4292 47.2375 21.8894 46.4039H21.8794ZM143.724 42.4596C142.253 42.4133 140.222 42.8224 140.222 42.5908C141.913 42.4673 144.044 42.2435 143.724 42.4596ZM107.792 43.7255C107.192 43.6869 106.591 43.656 105.991 43.602L106.071 43.4708C106.671 43.5248 107.272 43.548 107.872 43.5943L107.792 43.7255ZM103.299 43.3859C100.528 43.0308 100.317 43.0926 97.0455 42.7298C97.4858 42.6603 100.538 43.0694 99.8872 42.7684C102.149 43.0231 103.299 43.1929 103.299 43.3859ZM89.0706 41.6414C87.5997 41.4253 86.1388 41.186 84.6679 40.939C84.5879 40.7229 86.489 40.9931 87.5497 41.0471C88.8104 41.3095 88.6704 41.4485 89.0706 41.6337V41.6414ZM76.8031 39.5651C75.9526 39.4107 76.1827 39.3644 76.0326 39.2795C75.2221 39.1869 74.0214 38.9862 72.5105 38.7006C73.0108 38.7392 73.4911 38.7701 73.5311 38.6774C75.7324 39.1174 78.9044 39.7889 76.8031 39.5651ZM27.4328 38.4073C28.2633 37.6123 28.8637 37.3421 28.9238 37.3807C28.9738 37.4193 28.5135 37.7666 27.4328 38.4073ZM136.71 106.51C137.06 106.371 138.251 106.448 138.511 106.301C140.692 106.224 137.46 106.718 134.879 106.865C133.128 106.772 139.942 106.371 136.72 106.51H136.71ZM230.127 76.8157C230.507 75.9898 230.697 75.8817 231.058 74.9555C231.108 74.9092 231.108 74.9864 231.088 75.1176C231.048 75.2488 230.968 75.4495 230.897 75.6502C230.717 76.0824 230.567 76.5224 230.357 76.9546L230.137 76.8234L230.127 76.8157ZM127.724 43.5634C127.954 43.6869 124.242 43.7487 125.083 43.5634C127.084 43.4245 126.323 43.6483 127.724 43.5634ZM62.1541 36.7246C63.1647 36.7246 67.5374 37.5814 68.2679 37.7666C69.3485 38.0368 63.635 37.0488 62.1541 36.7246ZM58.692 36.138C58.3518 36.1766 56.4806 35.837 55.1698 35.6594C55.5301 35.6131 56.7708 35.7906 57.041 35.7289C57.9715 35.891 57.5413 35.945 58.682 36.138H58.692ZM44.2331 33.7992C44.6434 34.0771 43.7228 34.1466 41.4114 34.1929C41.4314 34.355 44.6134 34.3086 45.674 34.4939C45.0236 34.5634 43.4326 34.5093 41.7216 34.5402C40.0105 34.5556 38.1794 34.6406 37.0287 34.7718C37.6591 34.6174 38.5897 34.4862 39.6203 34.3936C39.3802 34.3009 37.489 34.4862 36.2282 34.6714C36.6185 34.5479 37.3389 34.3395 38.8298 34.2392C38.0694 34.2392 36.8286 34.0616 36.2883 34.3086C35.3277 34.463 35.828 34.3086 36.2983 34.2392L36.3183 34.0925C36.5384 34.1234 36.9887 34.0925 37.5891 34.0462C38.1894 34.0153 38.9299 33.9459 39.7204 33.9073C41.3013 33.7992 43.0724 33.8069 44.2331 33.7992ZM232.458 62.6518C232.458 61.988 232.559 62.1501 232.629 62.0035C232.528 61.3782 232.468 60.4288 232.358 59.2401C232.849 60.7376 232.759 62.7136 232.789 64.8131C232.629 64.5584 232.589 63.362 232.458 62.6518ZM160.624 40.3601C161.245 40.2366 162.045 40.0128 160.674 40.144C162.005 39.6886 164.237 40.09 160.624 40.3601ZM173.612 102.187C173.482 102.11 179.296 100.983 177.945 101.454C175.854 101.871 176.074 101.685 173.612 102.187ZM174.753 38.8473L172.101 39.0943L172.141 38.9476L174.793 38.7006L174.753 38.8473ZM132.257 43.054C132.507 43.1775 127.204 43.5248 128.705 43.2238C130.586 43.0771 131.056 43.1234 132.257 43.054ZM69.1784 37.8747C68.6881 37.5891 71.0095 38.0754 71.1196 37.9519C72.9507 38.3147 71.0696 38.2838 69.1784 37.8747ZM160.494 104.233L162.245 103.986C162.476 104.071 161.385 104.225 161.335 104.325C160.745 104.41 160.164 104.487 159.574 104.565C159.344 104.48 160.424 104.333 160.494 104.225V104.233ZM60.6232 36.1689C59.6926 36.1997 57.9716 35.6208 55.41 35.3275C56.2105 35.343 57.7014 35.5205 59.8527 35.891C59.6526 35.9373 59.9628 36.0376 60.6232 36.1689ZM215.848 89.6828C217.169 89.0422 217.579 88.9187 217.439 89.1965C216.128 89.8681 215.698 89.953 215.848 89.6828ZM170.38 39.1174C168.659 39.3181 169.17 38.9167 171.321 38.8164L171.281 38.963C170.531 39.0248 170.44 39.0711 170.38 39.1251V39.1174ZM142.103 42.0583C141.403 42.2898 137.11 42.5523 134.969 42.7684C135.459 42.668 135.929 42.5754 135.919 42.4751C137.921 42.4751 138.821 42.0968 142.163 41.8421C141.533 41.9579 140.732 42.174 142.113 42.0583H142.103ZM46.6646 34.3472C47.0849 34.2932 47.8654 34.2855 49.3763 34.4399C49.6965 34.6251 48.0555 34.4321 46.6646 34.3472ZM86.8392 106.587C91.1619 107.112 92.1625 107.204 96.5652 107.482C96.3951 107.675 93.7435 107.467 92.8229 107.544C91.4521 107.243 90.5215 107.282 87.5897 106.888C86.8292 107.089 89.761 107.405 92.7428 107.675C89.9311 107.598 83.8374 106.973 78.4241 106.201C78.6242 106.147 78.314 106.07 77.6436 105.931C78.354 105.846 79.4747 106.278 81.1557 106.463C83.167 106.726 80.1651 106.201 82.1664 106.402C82.0763 106.209 80.5954 106.263 78.6642 105.877C79.3146 105.776 83.6973 106.348 84.9381 106.548C81.9662 106.348 85.6285 106.718 83.7974 106.826C85.1482 106.811 87.2295 106.95 86.8392 106.571V106.587ZM105.431 107.976C106.261 107.93 107.442 107.999 108.993 108.046C108.803 108.1 108.062 108.107 108.042 108.177C107.442 108.177 106.851 108.161 106.251 108.138C106.431 108.061 106.111 108.007 105.431 107.976ZM182.258 100.651C183.118 100.481 183.969 100.273 184.829 100.088C184.829 100.134 184.829 100.188 184.819 100.234C183.959 100.42 183.118 100.628 182.248 100.798V100.651H182.258ZM215.548 40.2829C215.798 40.3138 216.138 40.3678 216.459 40.4373C216.779 40.5222 217.099 40.5994 217.349 40.6457C218.18 41.0008 218.33 41.1783 217.97 41.1243C217.789 41.1011 217.489 41.0162 217.089 40.8696C216.689 40.7229 216.178 40.5068 215.548 40.2829ZM166.868 39.403L164.217 39.6809L164.247 39.5342L166.888 39.2564L166.858 39.403H166.868ZM150.078 41.2323C148.647 41.4099 148.567 41.325 147.436 41.4408C148.007 41.3173 148.537 41.2015 147.476 41.2941C147.656 41.1011 150.478 40.9545 151.019 40.9159C150.538 41.0239 150.068 41.132 150.088 41.2246L150.078 41.2323ZM112.585 43.4013C112.675 43.3241 113.636 43.3473 114.766 43.3859C115.897 43.4013 117.218 43.4476 118.018 43.4167C116.427 43.6174 115.557 43.5017 112.585 43.4013ZM117.008 108.007C117.348 108.215 114.656 108.293 113.385 108.2C113.646 108.077 114.986 108.015 117.008 108.007ZM122.511 43.3318C121.06 43.6252 120.86 43.2547 121.671 43.2161C122.211 43.1929 122.761 43.2778 122.511 43.3318ZM104.5 108.015C104.44 108.115 103.559 108.107 102.339 108.084C101.128 108.038 99.567 107.945 98.1462 107.938C98.8566 108.053 99.2268 108.185 98.8566 108.324C95.4745 108.192 94.554 107.93 94.554 107.752C97.6659 108.3 97.2356 107.899 99.1168 107.853C101.808 108.053 102.389 107.961 104.49 108.023L104.5 108.015ZM72.9607 38.1371C77.8537 39.2486 75.3722 38.4073 72.9607 38.1371ZM53.9691 34.6328C55.43 34.8412 56.8909 35.0574 58.3418 35.2966C57.8915 35.397 53.4788 34.8875 53.9691 34.6328ZM38.3695 93.4341C39.5403 94.1134 40.3708 94.6074 41.2413 95.0396C42.1018 95.4796 42.9523 95.935 44.2331 96.4444C42.442 95.989 39.5903 94.3141 37.9893 93.6502C35.868 92.4924 39.14 94.0362 38.3695 93.4264V93.4341ZM60.7032 101.909C60.0228 101.832 58.2817 101.469 56.4206 100.952C55.49 100.69 54.5294 100.404 53.6389 100.126C52.7584 99.8407 51.9679 99.5396 51.3575 99.3004C53.1986 99.5937 57.7714 101.361 60.7032 101.909ZM160.755 39.7812C159.754 39.8739 160.284 39.7658 160.775 39.7118C160.524 39.6423 158.573 39.897 157.262 40.0282C158.443 39.704 161.705 39.3258 165.267 38.9476C163.496 39.2255 161.125 39.5342 160.765 39.7812H160.755ZM158.653 104.958L160.414 104.727L160.384 104.873L158.623 105.097L158.653 104.95V104.958ZM72.2503 37.7898C70.6093 37.7358 69.8088 37.1646 71.5299 37.4424C74.5917 38.0214 69.5186 37.3035 72.2503 37.7898ZM206.633 94.3295C206.853 94.1211 208.654 93.5345 209.815 93.0096C209.404 93.2412 209.024 93.4727 209.074 93.5576L207.463 94.1751C207.583 94.0439 207.263 94.1134 206.633 94.3372V94.3295ZM32.4359 90.2617C32.1357 90.2386 30.4047 88.9032 30.2546 88.965C28.2233 87.429 31.1151 89.3278 32.4359 90.2617ZM73.381 105.035C76.3928 105.522 74.2915 105.483 77.5936 105.993C76.3528 105.954 73.401 105.298 73.1308 105.344C70.6193 104.781 73.8113 105.252 73.381 105.035ZM102.549 108.293L104.33 108.347L104.26 108.486L102.469 108.432L102.539 108.293H102.549ZM20.9889 45.1149C20.4686 45.9639 20.1984 46.4348 19.8982 47.1835C19.7581 47.5617 19.608 48.0094 19.4179 48.6192C19.2778 49.2367 19.0377 50.0008 18.8676 51.0274C18.7775 50.7187 18.5974 51.4983 18.4273 52.3319C18.1772 52.1235 18.3673 50.626 18.0271 50.6878C18.5374 49.8387 19.1177 47.2684 20.0183 44.536C20.4986 43.7178 20.3485 44.2658 20.0483 45.0994C19.7982 45.9485 19.458 47.0986 19.4379 47.4845C19.7782 47.3533 20.4986 44.2349 21.5993 42.9459C21.6993 43.0154 21.4392 43.5402 21.239 44.0651C21.0489 44.59 20.8588 45.1072 20.9989 45.1149H20.9889ZM185.66 100.481C188.712 99.8252 187.761 100.188 190.793 99.3312C190.263 99.5242 189.752 99.7172 190.793 99.4779C189.942 99.7866 188.662 100.095 187.591 100.296C186.52 100.489 185.65 100.566 185.65 100.481H185.66ZM79.2946 38.9399C78.284 38.7469 78.6542 38.6929 78.5742 38.6003C79.4447 38.7546 80.3152 38.909 81.1858 39.0634C80.8155 39.0943 79.5848 38.8936 79.2946 38.9399ZM173.512 102.982C175.063 102.766 173.622 103.09 173.482 103.198C171.941 103.407 173.372 103.09 173.512 102.982ZM178.736 102.017C181.727 101.701 175.774 103.029 173.442 103.492C173.632 103.113 180.427 102.048 178.736 102.017ZM232.098 75.4649C232.358 74.7162 232.398 75.0713 232.649 74.1296C232.849 74.6622 232.048 76.9083 231.068 78.3209C231.028 78.1742 231.498 77.4564 231.758 76.7385C232.028 76.0284 232.268 75.3723 232.108 75.4649H232.098ZM56.9209 34.5711C58.3818 34.8412 57.3612 34.8026 55.9503 34.5711C55.7502 34.602 56.2505 34.6869 56.7808 34.7718C56.9109 34.849 56.4006 34.7718 55.8603 34.7023C55.2699 34.6174 54.6895 34.5325 54.1092 34.4476C54.0391 34.2006 56.0604 34.4167 55.2599 34.1851C58.5419 34.3704 54.9097 34.5171 56.9209 34.5788V34.5711ZM46.1443 33.6062C46.0643 33.4519 46.9948 33.4287 48.926 33.6217C47.9454 33.5985 48.5058 33.8301 46.1443 33.6062ZM29.6742 35.7675C30.2546 35.4356 30.4647 35.2272 30.3846 35.1268C30.895 34.9339 31.3152 34.7872 31.6754 34.6637L32.656 34.4167C33.2464 34.2623 33.7967 34.2006 34.6172 34.0231C34.3971 34.1697 32.8962 34.4862 32.8962 34.4399C31.5854 34.8875 32.1557 34.8026 29.6742 35.7675ZM23.5204 83.338C24.8212 84.3723 23.3904 83.7857 21.8694 81.6167C21.7093 81.5164 21.9495 81.8715 22.2497 82.2265C22.2697 82.35 21.9495 82.0258 21.6793 81.6476L20.7988 80.4126C20.7087 79.7102 21.9695 81.6862 22.6199 82.1571C23.1002 82.7205 22.8901 82.6279 22.9301 82.7746C23.3403 83.2763 23.4304 83.3149 23.5104 83.338H23.5204ZM27.6029 87.0662L28.8637 88.0542L28.6936 88.1159L27.4228 87.1279L27.5929 87.0662H27.6029ZM155.031 105.776C155.611 105.699 156.202 105.63 156.792 105.553C156.632 105.653 156.962 105.653 157.643 105.583C157.352 105.715 155.421 105.938 154.09 106.093C154.571 105.985 155.041 105.869 155.021 105.776H155.031ZM120.1 42.6989C121.781 42.6757 121.27 42.7607 120.37 42.8224C119.469 42.8687 118.168 42.8919 118.288 42.7838C115.607 42.6294 120.17 42.8919 120.1 42.6989ZM105.771 42.3902C102.949 42.1818 102.909 41.9811 99.6471 41.68C99.9673 41.5797 103.579 42.0583 103.299 41.8344C104.07 42.0351 106.511 42.2049 105.771 42.3902ZM69.8488 37.0565C67.2072 36.4776 64.4655 35.8833 60.383 35.204C60.7733 35.1268 60.353 34.9725 58.782 34.7255C60.7032 35.0265 64.8958 35.6517 66.6769 36.0376C66.2366 36.0376 65.4661 35.9605 63.9652 35.6903C63.9752 35.9296 70.4192 36.8635 69.8488 37.0565ZM20.4185 79.1082C20.7487 79.6485 20.7287 79.7102 20.6887 79.7565L20.4986 79.7797C20.0883 79.1082 19.8682 78.6759 19.6781 78.3131L19.2378 77.163C19.3379 77.2402 19.558 77.7342 19.7882 78.2128C20.0583 78.6759 20.3285 79.1159 20.4085 79.1159L20.4185 79.1082ZM233.799 64.3963C233.819 62.5592 233.809 61.3937 234.059 61.6561C234.089 62.922 234.21 63.169 234.159 64.4889L233.799 64.3963ZM74.2315 37.8052C71.75 37.2804 73.331 37.5274 73.5611 37.3961C76.2528 37.8438 76.673 38.0445 78.7143 38.415C78.7243 38.6234 73.0908 37.2958 74.2315 37.8052ZM17.7669 66.1561C17.6468 68.464 17.4567 63.5935 17.4467 62.6364C17.5868 62.5052 17.5968 63.3002 17.6168 64.1724C17.6468 65.0446 17.6669 65.9863 17.7769 66.1561H17.7669ZM49.4763 98.9376C50.7571 99.4161 51.9879 99.8638 52.9685 100.25C53.9491 100.62 54.6995 100.914 54.9797 101.107C53.1786 100.582 51.8978 100.095 51.0073 99.7326C50.1167 99.3698 49.6264 99.1151 49.4663 98.9376H49.4763ZM28.6336 88.1468C30.2045 89.3818 28.5335 88.4092 28.2934 88.278C27.4929 87.5988 27.4128 87.4598 26.5823 86.6957C26.8125 86.796 28.4935 88.1854 28.6336 88.1468ZM88.9605 107.721C90.0412 107.86 90.7316 107.992 90.6115 108.1C89.5409 107.961 88.8405 107.83 88.9605 107.721ZM229.216 81.8715C228.356 82.9444 228.106 82.9366 228.006 82.9289C226.835 84.0481 227.435 83.8552 225.654 85.2523C224.373 86.1168 225.474 85.1442 225.434 84.9204C226.395 84.6348 228.076 82.6202 229.216 81.8637V81.8715ZM25.9619 37.5814C25.2515 37.9442 23.7606 39.5574 24.0107 39.0094C25.4616 37.4965 26.2721 37.126 25.9619 37.5814ZM17.4667 60.56C17.3567 62.5669 17.2766 61.9185 17.2466 61.0849C17.2466 60.2513 17.3066 59.2479 17.4667 60.56ZM31.7855 90.5782C33.3365 91.5276 34.297 92.1605 35.2977 92.7472C35.798 93.0405 36.2883 93.3492 36.8686 93.6734C37.459 93.9899 38.1394 94.3372 38.9699 94.7463C37.6191 94.5533 33.7767 92.1142 30.7649 90.2617C31.3552 90.6013 31.6854 90.6708 31.7755 90.5705L31.7855 90.5782ZM92.3826 108.277C93.8735 108.146 94.0136 108.532 93.2031 108.478C92.6728 108.447 92.1325 108.3 92.3826 108.277ZM232.769 53.2273C232.068 50.9271 233.229 54.0146 233.259 53.9528C233.459 54.5549 233.409 54.6089 233.359 54.6475C233.499 55.5892 233.439 55.1955 233.299 54.578C233.149 53.9683 232.889 53.1423 232.759 53.2273H232.769ZM114.836 42.4905C112.915 42.4673 113.185 42.3438 113.155 42.2358C114.046 42.2589 114.926 42.2898 115.817 42.2898C115.317 42.3438 114.836 42.3979 114.836 42.4905ZM92.8129 40.4913C92.8129 40.4913 92.4226 40.638 91.8423 40.4913C90.5715 40.1903 98.2262 40.8927 92.8129 40.4913ZM46.4145 33.1354C46.1843 33.1971 44.9836 33.1354 43.7628 33.0968C42.5421 33.0428 41.2913 33.0351 40.9911 33.0042C41.9117 32.8035 43.7929 33.0582 46.4245 33.1354H46.4145ZM144.274 107.397C144.925 107.173 146.956 107.235 147.797 107.189C146.406 107.559 145.325 107.328 144.274 107.397ZM234.28 65.94C234.45 68.1707 233.839 68.217 234.28 65.94ZM176.024 103.523C176.004 103.453 174.963 103.669 174.283 103.77C176.684 103.252 178.355 102.766 173.432 103.7C174.193 103.476 176.264 103.083 177.825 102.751C177.495 102.928 178.495 102.766 179.546 102.558C177.435 103.268 180.477 102.589 176.014 103.584C175.023 103.754 175.534 103.6 176.014 103.515L176.024 103.523ZM102.169 109.049C103.029 109.157 104.89 109.304 106.831 109.396C108.773 109.466 110.814 109.443 112.025 109.319C114.956 109.427 110.083 109.489 110.974 109.659C108.332 109.659 106.481 109.597 105.12 109.458C103.76 109.342 102.879 109.196 102.169 109.049ZM137.13 108.077C138.661 108.023 139.371 108.146 137.931 108.362C136.68 108.223 136.28 108.316 132.607 108.617C132.957 108.439 136.53 108.27 137.13 108.077ZM189.082 100.474C188.091 100.775 187.121 101.053 186.02 101.33C184.919 101.608 183.699 101.94 182.148 102.249C183.158 101.948 183.979 101.685 184.999 101.415C186.02 101.137 187.261 100.883 189.072 100.474H189.082ZM187.661 36.4004C187.461 36.2229 188.982 36.1071 191.323 36.0685C189.892 36.1689 189.892 36.3155 187.661 36.4004ZM57.3011 34.0616C61.4637 34.6714 58.632 34.602 57.3011 34.0616ZM17.1866 56.2376C17.1265 56.7007 17.1165 57.1638 17.0765 57.6269L16.8964 57.5729C16.9364 57.1098 16.9464 56.6467 17.0065 56.1835L17.1766 56.2376H17.1866ZM48.876 99.4084C50.0967 99.9101 51.6977 100.474 52.9785 100.96C54.2793 101.415 55.2499 101.794 55.1898 101.925C52.5782 101.06 53.0886 101.508 50.0567 100.366C49.1161 99.7635 48.7059 99.7172 48.876 99.4007V99.4084ZM194.005 36.0454C194.325 35.9373 196.286 35.9913 197.637 36.0068C197.307 36.1689 195.166 36.1071 194.005 36.0454ZM182.338 36.5625L179.666 36.7555L179.706 36.6165C180.597 36.5548 181.487 36.4776 182.378 36.4236L182.338 36.5625ZM16.9064 67.3294C16.9964 68.4563 16.8864 68.5026 16.9264 69.3903C16.8464 69.2436 16.7963 68.6724 16.7063 68.657L16.6362 67.2676L16.9064 67.3294ZM22.9701 84.1639C21.4392 82.8286 21.209 81.6939 22.9701 84.1639ZM63.9452 104.071C64.5156 104.225 65.0859 104.356 65.6663 104.487L65.5562 104.611C64.9758 104.48 64.3955 104.348 63.8251 104.194L63.9452 104.078V104.071ZM178.816 36.6783C178.505 36.7864 176.574 36.9253 175.233 37.0488C175.794 36.9407 176.344 36.825 175.273 36.9021C176.204 36.6088 177.625 36.7786 178.816 36.6783ZM84.0175 107.922C82.9268 107.853 81.646 107.706 80.3853 107.521C79.1245 107.336 77.8837 107.158 76.8731 106.942C78.354 107.143 79.6448 107.266 80.8155 107.444C81.9763 107.621 83.0169 107.776 84.0175 107.922ZM204.912 36.3232C205.102 36.4004 199.999 36.0299 202.25 36.0222C202.07 36.0222 202.74 36.0917 203.451 36.1611C204.161 36.2152 204.912 36.3232 204.912 36.3232ZM20.7688 81.7866C21.4792 82.7823 22.1096 83.4847 22.4498 84.0096C22.83 84.5113 22.9901 84.7969 22.9001 84.8895C20.2084 81.6862 20.7788 82.3963 19.9282 81.9023C19.3579 80.7291 19.2278 80.7137 18.5274 79.9186C18.4573 79.6485 18.1672 79.1082 17.967 78.645C17.7969 78.1588 17.6869 77.7651 17.827 77.8269L18.2172 78.7068L18.6975 79.5558C19.0177 80.127 19.3379 80.6905 19.7381 81.2154C19.9483 81.3543 19.8282 81.115 19.568 80.7214C19.3079 80.3277 18.9977 79.7257 18.6875 79.2008C18.7575 79.0233 19.2078 79.8723 19.7181 80.6442C20.2685 81.4006 20.7988 82.1107 20.7487 81.7788L20.7688 81.7866ZM66.3667 104.858C66.4868 105.066 64.9758 104.812 62.7445 104.202C63.575 104.302 64.2054 104.364 66.3667 104.858ZM17.877 48.3104C16.7563 53.1501 15.9558 58.4528 15.9958 63.6553C15.6256 61.5172 16.0659 57.6424 16.216 55.1878C16.346 54.0454 15.6156 56.199 16.1559 52.9494C16.336 53.3893 16.6362 53.1192 16.3961 55.2496C17.0765 52.6175 16.6863 51.5677 16.6262 50.8653C16.8364 50.2169 17.1866 49.2675 17.3367 48.982C17.5068 48.6964 17.4067 49.0591 17.0465 51.0429C17.2366 50.626 17.5268 49.6072 17.877 48.3181V48.3104ZM31.4253 91.5122C31.005 91.3732 30.3446 91.0182 29.1739 90.1768C29.0438 89.8681 30.2846 90.8252 31.4253 91.5122ZM133.838 40.6226C134.468 40.638 135.409 40.5994 136.45 40.5454C135.809 40.8001 134.588 40.6457 132.917 40.831C132.227 40.6612 134.368 40.5068 134.779 40.337C136.58 40.1594 134.538 40.5608 133.838 40.6226ZM37.8592 95.4256C35.808 94.6382 35.0375 93.6811 37.8592 95.4256ZM185.23 35.752C183.699 35.8678 183.548 35.7984 183.478 35.7212C184.239 35.6903 184.339 35.644 184.399 35.5977C185.45 35.5436 185.109 35.6826 185.23 35.7598V35.752ZM113.586 41.3404C114.696 41.2632 115.727 41.325 115.957 41.3713C116.197 41.4176 115.637 41.5025 113.586 41.3404ZM95.1443 39.8816C99.7371 40.3061 92.2626 39.3258 95.1443 39.8816ZM21.6993 83.724C23.5705 85.808 21.3791 83.7471 22.5198 84.9744C21.9995 84.7969 20.3485 82.2497 21.6993 83.724ZM33.3365 92.971L34.8274 93.8123C34.6272 93.7737 35.0375 94.013 35.4978 94.2755C34.9174 94.0439 34.0269 93.6039 33.0363 93.0945C32.0757 92.5465 31.015 91.929 30.0645 91.3655L30.3146 91.2574C31.3452 91.6974 33.0963 93.2412 33.3465 92.9787L33.3365 92.971ZM39.3902 96.1897C40.681 96.7686 40.671 96.8612 41.6716 97.3321C41.3914 97.3166 39.3001 96.2592 39.17 96.3286C38.0293 95.7575 39.5703 96.4136 39.3902 96.1897ZM63.0547 34.3164C62.044 34.1234 62.4143 34.0771 62.3342 33.9767C63.4949 34.1851 64.6657 34.3936 65.8264 34.602C65.6262 34.6483 64.1954 34.3627 63.1547 34.1929L63.0547 34.3164ZM159.504 37.7435C162.075 37.5505 164.807 37.1105 169.26 36.7092C172.041 36.3541 169.2 36.3155 173.823 35.8447C172.732 36.5008 180.196 35.4201 180.837 35.7598C178.625 35.9605 176.444 36.1611 172.762 36.578C173.162 35.9682 161.615 38.0059 159.504 37.7435ZM72.6806 36.0145C70.9295 35.7057 69.3885 35.0805 67.5174 34.9802C66.3167 34.6251 66.0865 34.3781 66.1666 34.162C69.1784 34.9184 74.1915 36.1225 78.1739 36.6011C79.1545 36.9562 77.5836 36.7169 78.8443 37.0102C76.5329 36.7632 74.6217 35.999 72.6806 36.0145ZM133.078 40.2675C134.138 40.2135 136.169 39.8121 134.018 39.9896C138.171 39.3335 142.904 39.2718 148.997 38.5539C148.467 38.7701 141.863 39.4339 146.286 39.1174C143.554 39.6191 139.061 39.8121 137.51 39.8353C136.139 39.9896 137.43 39.9202 138.371 39.8275C136.26 40.09 133.038 40.445 129.856 40.7075C126.674 40.9622 123.512 41.1474 121.571 41.1474C122.221 41.0625 128.475 40.7306 125.183 40.7229C125.363 40.6843 131.687 40.3293 133.088 40.2829L133.078 40.2675ZM44.2832 31.8464C43.2325 31.8078 43.8029 31.7692 44.3232 31.7769C44.1331 31.6843 42.4921 31.6611 42.452 31.7383C40.9811 31.7229 43.3326 31.6071 41.5615 31.6071C42.0118 31.4373 45.2438 31.6071 44.5333 31.3601C45.9042 31.4527 46.8347 31.5762 48.1856 31.7229L48.0655 31.9236C49.3863 32.0934 48.846 32.0548 48.1455 31.9699C47.4351 31.8927 46.5546 31.7692 47.225 31.7229C44.1731 31.6148 47.1549 31.885 44.2932 31.8387L44.2832 31.8464ZM15.6656 67.7308C15.7157 66.9898 15.6756 66.2719 15.6156 65.3997C15.5456 64.5275 15.4855 63.5009 15.5456 62.1424C15.6656 62.374 15.9858 68.0241 15.6656 67.7385V67.7308ZM15.9258 69.1587C15.8457 69.7917 16.0859 71.7213 15.7957 71.1887C15.8257 70.5635 15.6456 68.6261 15.9258 69.1587ZM207.103 35.9373C202.64 35.4279 209.845 35.7289 203.701 35.1577C204.081 35.0805 205.382 35.2117 205.672 35.15C208.694 35.6054 206.272 35.5514 209.114 35.9682C209.004 36.0917 206.573 35.6594 207.103 35.945V35.9373ZM180.857 35.6903C182.438 35.4356 185.56 35.2195 189.012 35.1037C187.611 35.4665 185.159 35.3661 180.857 35.6903ZM16.1159 74.091C16.246 74.2222 17.2466 77.3251 16.5862 76.3449C16.7163 76.8466 16.9464 77.3251 17.1565 77.8114C17.3066 78.4598 17.0565 77.8346 16.7163 76.916C16.4761 75.9589 16.1559 74.7085 16.1159 74.091ZM153.32 38.4227C151.139 38.6697 149.057 38.9013 148.037 38.9244C149.277 38.7392 154.591 37.921 153.32 38.4227ZM19.8582 41.68C19.8182 41.9579 18.9276 43.4399 18.4974 44.4974C18.3173 44.3044 17.837 45.578 18.1972 44.3121C18.6875 43.162 18.8676 42.9613 19.0477 42.8224C19.2178 42.6835 19.3579 42.5908 19.8582 41.68ZM168.439 36.5085C168.119 36.686 164.227 36.9639 164.927 36.7323C167.359 36.4236 166.678 36.686 168.439 36.5085ZM156.922 37.7435C157.402 37.6354 157.873 37.5274 157.853 37.427C158.653 37.4116 161.115 37.0874 160.454 37.3498C158.043 37.6045 158.653 37.6663 156.922 37.7358V37.7435ZM177.355 35.6749L175.564 35.8292L175.604 35.6826L177.395 35.5282L177.355 35.6749ZM71.3898 35.1268C71.83 35.1268 72.6005 35.204 74.0914 35.4896C74.3816 35.698 72.7606 35.3738 71.3898 35.1268Z" fill="#1684C8"/>
<path fill-rule="evenodd" clip-rule="evenodd" d="M77.0832 40.4682C79.2045 41.0008 73.611 39.8121 72.7805 39.6037C73.9913 39.6114 76.0625 40.2598 77.0832 40.4682Z" fill="#1684C8"/>
<path fill-rule="evenodd" clip-rule="evenodd" d="M19.3879 48.241C19.4279 48.4108 19.2378 48.9434 19.1978 48.9202C19.0377 49.4914 19.0677 49.5763 19.1077 49.6381C18.8476 50.5489 18.7575 50.1166 18.5974 50.1784C18.6574 50.0549 18.8976 49.2367 19.0677 48.7041C19.2578 48.1715 19.3579 47.9091 19.1077 48.8893C19.1578 49.0437 19.2378 48.6578 19.3779 48.2487L19.3879 48.241Z" fill="#1684C8"/>
<path d="M229.998 49.785C229.998 74.595 181.358 90.615 121.668 94.705C63.7478 98.665 14.9278 73.615 17.0678 48.905C20.2278 12.575 61.9378 13.185 121.668 9.71503C174.728 6.63503 229.998 12.355 229.998 49.785Z" fill="#72B2DA"/>
<path fill-rule="evenodd" clip-rule="evenodd" d="M67.3297 12.71C62.2897 12.3 59.1797 13.74 55.8397 13.18C56.2397 13.55 54.1897 14.38 52.0997 15.13C50.0097 15.92 47.8797 16.64 47.9897 16.63C47.6397 16.7 47.9697 15.9 47.0697 16.13C47.1397 16.11 46.8897 16.89 46.4097 17.05C45.3897 17.4 45.5197 16.51 44.6697 16.77C44.6697 16.77 44.6297 16.95 44.5297 17.17C44.4297 17.38 44.2797 17.62 44.0397 17.72C43.0397 18.14 40.8797 18.14 40.1297 19.03C39.8997 18.51 39.8897 17.79 38.2597 18.57C38.3797 19.06 38.8597 19.19 39.3597 19.32C38.2397 18.89 37.2997 19.45 36.4397 20.04C35.5597 20.61 34.8197 21.35 33.9397 21.36C35.1897 20.84 35.7797 19.87 34.4097 20.31C32.1697 22.18 30.6297 21.91 31.1897 23.34C30.3197 23.71 29.6197 24.12 28.9697 24.48C28.3297 24.85 27.7397 25.16 27.2597 25.57C26.7597 25.97 26.3097 26.38 25.8697 26.85C25.4297 27.32 25.0697 27.92 24.6797 28.59L23.7197 27.51C23.5397 27.85 23.3097 28.21 23.0197 28.58C22.7597 28.98 22.4697 29.4 22.1397 29.84C21.8197 30.28 21.4397 30.71 21.1097 31.18L20.1197 32.61C19.4097 33.53 18.9197 34.53 18.4597 35.33C17.9897 36.13 17.7797 36.84 17.7397 37.24C18.2797 36.87 17.9997 38.03 17.4697 39.29C17.0397 40.57 16.3097 41.99 15.6897 42.07C15.8797 43.32 15.7797 44.52 15.6297 45.73C15.5797 46.34 15.4997 46.94 15.3997 47.55C15.3197 48.17 15.1597 48.74 15.1297 49.43C14.7497 52.06 15.1797 54.89 16.7497 56.97C16.4197 58.24 17.1497 60.91 18.6197 63.03C19.9997 65.21 21.8997 66.87 22.8797 67.21C22.9697 68.2 23.4697 69.13 24.1997 70.06C24.9097 71.02 25.9297 71.87 27.0197 72.78C29.2597 74.53 31.9297 76.24 34.3097 78.28C35.7797 79.58 36.1997 79.85 36.6797 80.03C37.1597 80.21 37.6997 80.32 39.4797 81.12C45.5697 83.77 51.0397 88.63 48.5497 85.36C51.4397 87.24 54.7797 88.32 58.1397 89.25C61.5197 90.13 64.9197 90.88 68.1597 91.98C68.2797 92.02 67.1797 92.45 67.1097 92.45C71.0497 93.69 73.1897 92.71 77.0797 93.77C78.4697 94.13 78.5697 94.92 80.1297 95.13C82.1397 95.35 83.4497 94.63 84.4597 94.79L84.2897 95.49C87.1497 96.04 90.6097 96.25 93.9797 96.4C97.3497 96.55 100.64 96.68 103.23 97.16C104.8 96.96 106.61 96.87 107.46 96.26C108 96.55 111.98 97.18 112.39 96.34C111.93 96.34 111.48 96.05 112.42 95.98C118.09 97.11 124.37 96.08 131.24 94.8C130.35 94.78 129.28 94.35 130.42 94.14C136.54 95.61 144.81 92.29 153.94 91.34C159.15 90.77 163.81 90.41 166.8 88.9C167.08 89.84 171.96 88.83 174.1 88.19C174.17 88.17 174.33 87.48 174.8 87.3C177.81 86.18 180.74 86.43 183.6 85.57C185.22 85.06 185.93 84.23 187.4 83.79C191.59 82.61 196.55 82.33 199.69 79.35C202.68 79.07 203.51 78.45 204.85 76.85C204.98 77.66 205.86 77.67 207.45 76.84C207.52 76.13 206.02 76.49 207.06 75.83C209.7 75.4 214.07 72.6 219.77 68.62C219.75 68.27 219.38 68.01 219.98 67.51C222.3 65.95 224.14 64.37 225.43 62.8C226.01 61.96 226.53 61.19 226.75 60.34C226.96 59.49 227.06 58.69 226.82 57.85C227.76 57.13 228.77 57.06 229.72 56.67C229.89 56.02 229.99 55.44 230.05 54.92C230.13 54.4 230.05 53.88 230.04 53.39C230.04 52.4 229.87 51.38 229.97 49.93C229.27 49.93 228.79 50.37 228.44 51.05C228.25 51.39 228.16 51.8 227.98 52.24C227.8 52.69 227.65 53.18 227.5 53.71C226.82 55.81 225.59 58.44 223.67 60.14C223.57 60.56 223.78 60.82 223.85 61.17C223.93 61.52 223.84 61.94 223.05 62.61C222.42 62.39 223.13 61.13 222.29 61.85C222.51 62.41 222.18 62.66 221.72 62.9C221.25 63.14 220.6 63.36 220.22 63.97C221.9 65.38 218.47 65.92 216.92 67.17C216.2 68.18 217.02 69.03 215.08 70.19C214.89 69.76 215.69 69.21 215.21 68.82C210.49 72.24 206.47 74.23 202.77 75.82C199.06 77.39 195.59 78.52 191.42 79.58C192.18 80.35 190.01 80.78 189.37 81.35C188.12 80.85 187.05 81.4 186.02 81.94C184.99 82.46 184 82.96 183.01 82.39C182.89 82.71 183.12 83.09 182.37 83.3C177.48 83.77 173.99 84.73 171.38 86.19C170.55 85.96 166.66 85.87 165.77 86.9C166.72 86.78 168.02 86.43 168.2 86.82C163.94 87.36 163.05 87.52 157.78 88.23C157.62 88.54 157.82 88.94 157.03 89.07C149.93 89.36 142.77 90.69 135.17 91.91C127.57 93.09 119.52 94.35 110.96 93.83C109.1 93.67 109.97 94.85 108.43 94.85C107.26 93.26 99.4797 94.58 95.5497 93.36C95.5697 94.15 94.6997 94.42 92.9397 94.15C83.4697 92.08 76.2897 91.62 70.5497 90.02C70.8097 90.27 68.4897 89.87 65.7197 89.06C62.9397 88.28 59.7397 87.08 58.1497 86.17C57.8597 86.51 57.8597 87.15 56.9397 86.87C55.8597 86.1 54.6997 85.53 53.3497 84.99C51.9897 84.48 50.3997 84.1 48.4697 83.74C48.4197 83.58 49.5597 83.45 49.5597 83.45C47.9397 82.52 45.1397 81.25 42.4297 79.92C41.7497 79.59 41.0697 79.27 40.4097 78.96C39.7597 78.63 39.1297 78.31 38.5497 78.02L35.6297 76.57C35.4797 75.79 34.9397 75.17 34.2497 74.59C33.5597 74 32.6797 73.47 31.7797 72.97C30.9097 72.42 30.0197 71.88 29.2897 71.32C28.5797 70.74 28.0597 70.11 27.8897 69.47C27.4997 69.42 27.0797 69.29 26.6597 69.06C26.2497 68.82 25.8297 68.5 25.3897 68.12C24.4997 67.38 23.6997 66.29 22.9097 65.15C21.3797 62.79 20.3497 59.93 19.6897 57.89C19.0297 57.75 18.6097 57.18 18.2897 56.39C18.1097 56 18.0497 55.53 17.9797 55.03C17.9197 54.53 17.8497 54.01 17.8297 53.46C17.7697 51.25 18.1597 48.99 17.2797 46.91C17.8397 46.95 17.9797 46.81 18.2397 45.47C18.8297 42.37 19.9397 39.01 21.3097 36.39C21.5897 35.88 21.8597 35.35 22.1497 34.84L23.1397 33.37L23.6397 32.64L24.2097 31.95L25.3497 30.58L26.6097 29.32C26.8197 29.11 27.0197 28.9 27.2397 28.7L27.9197 28.13L29.2697 27L30.6997 25.99C34.5097 23.34 38.6297 21.6 42.1497 20.21C43.2797 19.79 44.5197 19.6 45.3397 19.54C46.1797 19.51 46.6097 19.62 46.1297 19.74C52.6297 17.92 59.2397 15.5 62.5597 15.08C68.0997 14.36 72.6697 13.77 78.7497 13.17C85.6497 12.51 92.5797 11.74 99.9197 11.73C101.82 10.38 117.11 12.64 119.53 9.9C121.36 11.27 121.22 9.69 124.42 9.72C124.54 10.26 124.08 11.06 125.18 11.13C127.12 9.84 129.14 11.03 131.69 10.95C136.64 10.82 142.79 9.94 146.41 9.87C153.74 9.7 161.96 11.77 166.82 10.29C166.88 11.02 168.23 11.18 169.91 11.18C171.59 11.2 173.59 11.1 174.91 11.21C179.32 11.66 183.75 12.48 188.02 13.49C192.29 14.52 196.37 15.77 200.17 17C201.37 17.42 202.35 17.06 203.5 17.48C204.95 18.07 206.15 18.81 207.28 19.68C207.86 20.1 208.44 20.51 209.07 20.88C209.7 21.26 210.35 21.66 211.12 21.96C211.43 21.81 211.54 21.38 212.23 21.76C216.39 24.02 220.05 26.51 223.18 30.12C223.92 31.05 224.75 31.95 225.39 33.04C225.73 33.57 226.08 34.1 226.41 34.66C226.69 35.24 226.98 35.84 227.28 36.44C227.42 36.74 227.58 37.05 227.71 37.36L228.05 38.34C228.27 39 228.53 39.67 228.72 40.37C229.02 41.8 229.42 43.27 229.5 44.86C230.11 44.42 230.68 45.16 230.95 46.07C231.19 46.98 231.03 48.03 230.48 48.11L230.39 46.56C230.32 46.08 230.18 45.71 229.97 45.65C230.19 46.59 230.13 47.38 230.1 48.05C230.05 48.71 229.95 49.25 229.81 49.71C230.85 50.48 230.71 48.62 231.59 49.01C231.81 45.91 230.99 44.48 230.37 43.14C231.01 43.07 230.9 42.71 230.71 41.39C229.98 36.38 227.76 32.13 224.56 28.43C221.32 24.73 217.06 21.59 211.47 18.43C211.47 19.12 210.83 18.85 210.04 18.53C209.25 18.2 208.34 17.73 207.93 17.85C207.89 16.98 205.98 16.17 207.88 16.22C203.77 15.05 201.53 14.21 199.17 13.45C196.82 12.71 194.37 12 189.94 11.76C190.18 11.23 192.08 11.98 191.89 11.12C187.49 9.69 190.1 11.27 188.34 11.38C186.73 10.71 187.37 9.61 184.68 9.15C181.99 9.39 184.83 10.87 180.97 10.31L181.23 9.26C174.07 8.96 168.5 8.53 162.64 8.05C156.79 7.59 150.65 7.11 142.54 7.28C141.78 9.08 145.6 6.84 145.75 8.04C142.15 8.37 133.42 6.29 131.82 8.41C127.5 8.67 128.76 7.72 127.79 7.07C125.47 8.3 121.16 7.95 119.61 7C119.89 8.63 115.57 7.33 113.08 7.61C112.95 7.63 112.81 8.27 112.24 8.36C109.73 8.78 106.95 8.65 104.87 9.36C104.84 9.3 104.94 8.64 104.9 8.64C99.9397 8.66 96.4497 9.04 90.1997 8.89C89.4097 9.6 92.6197 9.98 90.1697 10.33C88.3797 10.37 88.4397 9.51 88.5697 8.61C81.1497 9.42 78.2397 11.22 70.5397 10.92C68.9897 11.11 69.9997 12.17 68.1197 12.24C68.8197 11.41 65.3697 11.16 65.6397 11.79C66.6697 11.82 67.3297 12.06 67.3097 12.68L67.3297 12.71ZM212.55 19.88C212.61 19.88 212.7 19.56 212.76 19.58C214.61 20.45 213.39 20.43 212.32 20.25C211.25 20.07 210.29 19.72 212.55 19.88ZM82.0197 10.44C81.8897 9.67 84.9297 10.1 86.1197 9.84C86.2397 10.61 83.2197 10.17 82.0197 10.44ZM124.46 8.64C128.77 8.01 122.24 8.96 124.46 8.64ZM20.2097 62.92C17.9797 61.82 20.1197 61.88 20.5297 62.75C21.1097 63.87 20.2797 62.97 20.2097 62.92ZM103.27 96.8C102.28 96.59 101.64 96.25 101.77 95.64C102.75 95.85 103.39 96.19 103.27 96.8ZM200.87 77.72C203.71 76.72 198.92 79.44 199.37 78.3C197.43 78.41 199.65 78.23 200.87 77.72Z" fill="#72B2DA"/>
</svg>
